<?xml version="1.0" encoding="utf-8"?>
<!-- Generator: Adobe Illustrator 18.1.1, SVG Export Plug-In . SVG Version: 6.00 Build 0)  -->
<svg version="1.1" id="Layer_1" xmlns="http://www.w3.org/2000/svg" xmlns:xlink="http://www.w3.org/1999/xlink" x="0px" y="0px"
	 viewBox="0 0 536 443" enable-background="new 0 0 536 443" xml:space="preserve">
<g opacity="0.5">
	<g id="Layer_2" opacity="0.51">
		<circle fill="#FBFBF9" cx="496.8" cy="337.8" r="3.9"/>
		<circle fill="#FBFBF9" cx="476.4" cy="346.6" r="2.7"/>
	</g>
	
		<linearGradient id="SVGID_1_" gradientUnits="userSpaceOnUse" x1="316.1808" y1="125.5704" x2="316.1808" y2="181.7635" gradientTransform="matrix(0.8116 0.5842 0.5842 -0.8116 -83.3322 240.5283)">
		<stop  offset="0" style="stop-color:#5E5D63"/>
		<stop  offset="1" style="stop-color:#47464E"/>
	</linearGradient>
	<polyline fill="url(#SVGID_1_)" points="281.2,333 239.1,291.2 242.9,242.9 324.1,301.3 281.2,333 	"/>
	<polygon fill="#1F1C27" points="239.1,291.2 221,324.3 238.7,357.1 	"/>
	
		<linearGradient id="SVGID_2_" gradientUnits="userSpaceOnUse" x1="295.6884" y1="94.5749" x2="349.7297" y2="124.8501" gradientTransform="matrix(0.8116 0.5842 0.5842 -0.8116 -83.3322 240.5283)">
		<stop  offset="0" style="stop-color:#5E5D63"/>
		<stop  offset="1" style="stop-color:#2B2831"/>
	</linearGradient>
	<polygon fill="url(#SVGID_2_)" points="245.2,388.7 238.7,357.1 239.1,291.2 281.2,333 	"/>
	
		<linearGradient id="SVGID_3_" gradientUnits="userSpaceOnUse" x1="324.278" y1="89.4779" x2="370.1678" y2="115.1864" gradientTransform="matrix(0.8116 0.5842 0.5842 -0.8116 -83.3322 240.5283)">
		<stop  offset="0" style="stop-color:#A9AAAE"/>
		<stop  offset="1" style="stop-color:#BCC0C1"/>
	</linearGradient>
	<polyline fill="url(#SVGID_3_)" points="332.6,349.4 245.2,388.7 281.2,333 332.6,349.4 	"/>
	<polygon fill="#5E5D63" points="242.9,242.9 273,246.6 358.1,307.8 324.1,301.3 	"/>
	
		<linearGradient id="SVGID_4_" gradientUnits="userSpaceOnUse" x1="389.6567" y1="104.9781" x2="420.1976" y2="84.9382" gradientTransform="matrix(0.8116 0.5842 0.5842 -0.8116 -83.3322 240.5283)">
		<stop  offset="0" style="stop-color:#4E4D55"/>
		<stop  offset="1" style="stop-color:#67666C"/>
	</linearGradient>
	<polygon fill="url(#SVGID_4_)" points="245.2,388.7 332.6,349.4 336.7,394.4 	"/>
	
		<linearGradient id="SVGID_5_" gradientUnits="userSpaceOnUse" x1="418.813" y1="186.88" x2="449.1827" y2="166.9523" gradientTransform="matrix(0.8116 0.5842 0.5842 -0.8116 -83.3322 240.5283)">
		<stop  offset="0" style="stop-color:#706F75"/>
		<stop  offset="1" style="stop-color:#858489"/>
	</linearGradient>
	<polygon fill="url(#SVGID_5_)" points="336.7,394.4 332.6,349.4 374.8,311.1 411.4,315.8 	"/>
	<polygon fill="#57565C" points="223.6,329.1 197.6,357 238.7,357.1 	"/>
	<polygon fill="#1E1B26" points="198.3,347.8 197.6,357 223.6,329.1 	"/>
	<polygon fill="#1E1B26" points="180.6,304.9 189.8,331 208.1,326.9 	"/>
	<polygon fill="#1E1B26" points="187.1,288.3 180.6,304.9 194.5,293.6 	"/>
	
		<linearGradient id="SVGID_6_" gradientUnits="userSpaceOnUse" x1="277.5175" y1="93.1246" x2="271.3782" y2="114.6554" gradientTransform="matrix(0.8116 0.5842 0.5842 -0.8116 -83.3322 240.5283)">
		<stop  offset="0" style="stop-color:#5E5D63"/>
		<stop  offset="0.4456" style="stop-color:#4A484F"/>
		<stop  offset="1" style="stop-color:#2B2831"/>
	</linearGradient>
	<polygon fill="url(#SVGID_6_)" points="208.1,326.9 180.6,304.9 194.5,293.6 221,324.3 	"/>
	
		<linearGradient id="SVGID_7_" gradientUnits="userSpaceOnUse" x1="318.6955" y1="57.4635" x2="330.9039" y2="84.5998" gradientTransform="matrix(0.8116 0.5842 0.5842 -0.8116 -83.3322 240.5283)">
		<stop  offset="0" style="stop-color:#5E5D63"/>
		<stop  offset="0.2767" style="stop-color:#55535A"/>
		<stop  offset="0.7393" style="stop-color:#3C3A42"/>
		<stop  offset="1" style="stop-color:#2B2831"/>
	</linearGradient>
	<polygon fill="url(#SVGID_7_)" points="245.2,388.7 238.7,357.1 197.6,357 	"/>
	
		<linearGradient id="SVGID_8_" gradientUnits="userSpaceOnUse" x1="274.5288" y1="93.629" x2="300.8509" y2="93.629" gradientTransform="matrix(0.8116 0.5842 0.5842 -0.8116 -83.3322 240.5283)">
		<stop  offset="0" style="stop-color:#5E5D63"/>
		<stop  offset="0.2767" style="stop-color:#55535A"/>
		<stop  offset="0.7393" style="stop-color:#3C3A42"/>
		<stop  offset="1" style="stop-color:#2B2831"/>
	</linearGradient>
	<polygon fill="url(#SVGID_8_)" points="198.3,347.8 189.8,331 221,324.3 223.6,329.1 	"/>
	
		<linearGradient id="SVGID_9_" gradientUnits="userSpaceOnUse" x1="276.2191" y1="90.6517" x2="257.0525" y2="157.8705" gradientTransform="matrix(0.8116 0.5842 0.5842 -0.8116 -83.3322 240.5283)">
		<stop  offset="0" style="stop-color:#7B7A80"/>
		<stop  offset="0.7789" style="stop-color:#66656B"/>
		<stop  offset="1" style="stop-color:#5F5E64"/>
	</linearGradient>
	<polygon fill="url(#SVGID_9_)" points="221,324.3 198.2,227.7 239.1,291.2 	"/>
	<polyline fill="#727177" points="383.8,384.6 336.7,394.4 316.3,407.8 383.8,384.6 	"/>
	
		<linearGradient id="SVGID_10_" gradientUnits="userSpaceOnUse" x1="449.4572" y1="156.6581" x2="453.659" y2="188.9185" gradientTransform="matrix(0.8116 0.5842 0.5842 -0.8116 -83.3322 240.5283)">
		<stop  offset="0" style="stop-color:#A9AAAE"/>
		<stop  offset="1" style="stop-color:#BCC0C1"/>
	</linearGradient>
	<polyline fill="url(#SVGID_10_)" points="383.8,384.6 336.7,394.4 411.4,315.8 424.9,315.3 	"/>
	
		<linearGradient id="SVGID_11_" gradientUnits="userSpaceOnUse" x1="250.9632" y1="84.7753" x2="257.1982" y2="132.6454" gradientTransform="matrix(0.8116 0.5842 0.5842 -0.8116 -83.3322 240.5283)">
		<stop  offset="0" style="stop-color:#5E5D63"/>
		<stop  offset="0.2767" style="stop-color:#55535A"/>
		<stop  offset="0.7393" style="stop-color:#3C3A42"/>
		<stop  offset="1" style="stop-color:#2B2831"/>
	</linearGradient>
	<polygon fill="url(#SVGID_11_)" points="221,324.3 194.5,293.6 198.2,227.7 	"/>
	
		<linearGradient id="SVGID_12_" gradientUnits="userSpaceOnUse" x1="248.3107" y1="131.1568" x2="252.6916" y2="164.7919" gradientTransform="matrix(0.8116 0.5842 0.5842 -0.8116 -83.3322 240.5283)">
		<stop  offset="0" style="stop-color:#5E5D63"/>
		<stop  offset="0.2767" style="stop-color:#55535A"/>
		<stop  offset="0.7393" style="stop-color:#3C3A42"/>
		<stop  offset="1" style="stop-color:#2B2831"/>
	</linearGradient>
	<polygon fill="url(#SVGID_12_)" points="239.1,291.2 198.2,227.7 206.3,207.6 	"/>
	
		<linearGradient id="SVGID_13_" gradientUnits="userSpaceOnUse" x1="244.3047" y1="190.1531" x2="272.8112" y2="171.771" gradientTransform="matrix(0.8116 0.5842 0.5842 -0.8116 -83.3322 240.5283)">
		<stop  offset="0" style="stop-color:#706F75"/>
		<stop  offset="1" style="stop-color:#858489"/>
	</linearGradient>
	<polygon fill="url(#SVGID_13_)" points="239.1,291.2 206.3,207.6 242.9,242.9 	"/>
	
		<linearGradient id="SVGID_14_" gradientUnits="userSpaceOnUse" x1="232.7746" y1="132.9392" x2="205.205" y2="162.7318" gradientTransform="matrix(0.8116 0.5842 0.5842 -0.8116 -83.3322 240.5283)">
		<stop  offset="0" style="stop-color:#5E5D63"/>
		<stop  offset="1" style="stop-color:#47464E"/>
	</linearGradient>
	<polygon fill="url(#SVGID_14_)" points="194.5,293.6 154.1,194.1 198.2,227.7 	"/>
	
		<linearGradient id="SVGID_15_" gradientUnits="userSpaceOnUse" x1="343.6981" y1="184.4038" x2="345.8592" y2="212.1834" gradientTransform="matrix(0.8116 0.5842 0.5842 -0.8116 -83.3322 240.5283)">
		<stop  offset="0" style="stop-color:#5E5D63"/>
		<stop  offset="1" style="stop-color:#47464E"/>
	</linearGradient>
	<polygon fill="url(#SVGID_15_)" points="273,246.6 338.8,266.6 358.1,307.8 	"/>
	
		<linearGradient id="SVGID_16_" gradientUnits="userSpaceOnUse" x1="221.8775" y1="192.7331" x2="238.3775" y2="198.7496" gradientTransform="matrix(0.8116 0.5842 0.5842 -0.8116 -83.3322 240.5283)">
		<stop  offset="0" style="stop-color:#5E5D63"/>
		<stop  offset="1" style="stop-color:#47464E"/>
	</linearGradient>
	<polygon fill="url(#SVGID_16_)" points="242.9,242.9 235.2,201.3 206.3,207.6 	"/>
	<polygon fill="#F0F2EF" points="218.4,88 231.1,147.9 311.1,138.9 	"/>
	
		<linearGradient id="SVGID_17_" gradientUnits="userSpaceOnUse" x1="264.5135" y1="283.4904" x2="279.1493" y2="312.8209" gradientTransform="matrix(0.8116 0.5842 0.5842 -0.8116 -83.3322 240.5283)">
		<stop  offset="0" style="stop-color:#5E5D63"/>
		<stop  offset="0.2767" style="stop-color:#55535A"/>
		<stop  offset="0.7393" style="stop-color:#3C3A42"/>
		<stop  offset="1" style="stop-color:#2B2831"/>
	</linearGradient>
	<polygon fill="url(#SVGID_17_)" points="267.9,192.9 311.1,138.9 325.9,168.4 	"/>
	<polygon fill="#A6A7AB" points="242.9,242.9 235.2,201.3 242.5,200.3 273,246.6 	"/>
	
		<linearGradient id="SVGID_18_" gradientUnits="userSpaceOnUse" x1="372.2056" y1="253.4969" x2="424.8302" y2="214.3995" gradientTransform="matrix(0.8116 0.5842 0.5842 -0.8116 -83.3322 240.5283)">
		<stop  offset="0" style="stop-color:#706F75"/>
		<stop  offset="1" style="stop-color:#858489"/>
	</linearGradient>
	<polygon fill="url(#SVGID_18_)" points="338.8,266.6 400.4,255.2 399.3,294.7 	"/>
	<polygon fill="#F9FBF6" points="338.8,266.6 376,206.9 300.2,208.8 	"/>
	<polygon fill="#B8BCBD" points="400.4,255.2 338.8,266.6 376,206.9 	"/>
	
		<linearGradient id="SVGID_19_" gradientUnits="userSpaceOnUse" x1="421.9522" y1="287.4686" x2="429.6619" y2="243.7806" gradientTransform="matrix(0.8116 0.5842 0.5842 -0.8116 -83.3322 240.5283)">
		<stop  offset="0" style="stop-color:#A5A6AA"/>
		<stop  offset="1" style="stop-color:#B0B1B5"/>
	</linearGradient>
	<polygon fill="url(#SVGID_19_)" points="399.3,294.7 400.4,255.2 446.5,267.1 	"/>
	
		<linearGradient id="SVGID_20_" gradientUnits="userSpaceOnUse" x1="442.2372" y1="237.2247" x2="472.7915" y2="287.0074" gradientTransform="matrix(0.8116 0.5842 0.5842 -0.8116 -83.3322 240.5283)">
		<stop  offset="0" style="stop-color:#76757B"/>
		<stop  offset="1" style="stop-color:#97989C"/>
	</linearGradient>
	<polyline fill="url(#SVGID_20_)" points="457.6,313.8 411.4,315.8 399.3,294.7 446.5,267.1 457.6,313.8 	"/>
	
		<linearGradient id="SVGID_21_" gradientUnits="userSpaceOnUse" x1="118.4022" y1="216.9943" x2="133.0178" y2="134.1724" gradientTransform="matrix(0.8116 0.5842 0.5842 -0.8116 -83.3322 240.5283)">
		<stop  offset="0" style="stop-color:#4E4D55"/>
		<stop  offset="1" style="stop-color:#89888D"/>
	</linearGradient>
	<polygon fill="url(#SVGID_21_)" points="154.1,194.1 102.1,218.7 101,122.8 	"/>
	
		<linearGradient id="SVGID_22_" gradientUnits="userSpaceOnUse" x1="204.9742" y1="68.3189" x2="188.0085" y2="185.8956" gradientTransform="matrix(0.8116 0.5842 0.5842 -0.8116 -83.3322 240.5283)">
		<stop  offset="0" style="stop-color:#5E5D63"/>
		<stop  offset="0.2767" style="stop-color:#55535A"/>
		<stop  offset="0.7393" style="stop-color:#3C3A42"/>
		<stop  offset="1" style="stop-color:#2B2831"/>
	</linearGradient>
	<polygon fill="url(#SVGID_22_)" points="102.1,218.7 154.1,194.1 194.5,293.6 	"/>
	
		<linearGradient id="SVGID_23_" gradientUnits="userSpaceOnUse" x1="75.3765" y1="185.985" x2="98.6586" y2="123.0829" gradientTransform="matrix(0.8116 0.5842 0.5842 -0.8116 -83.3322 240.5283)">
		<stop  offset="0" style="stop-color:#4E4D55"/>
		<stop  offset="1" style="stop-color:#5B5A60"/>
	</linearGradient>
	<polygon fill="url(#SVGID_23_)" points="102.1,218.7 48.5,129.3 101,122.8 	"/>
	<polygon fill="#8F9094" points="376,206.9 365.2,113.8 395,94.5 401.2,171.8 	"/>
	<polyline fill="#5C5B61" points="358.1,307.8 338.8,266.6 399.3,294.7 411.4,315.8 357.3,308.8 	"/>
	
		<linearGradient id="SVGID_24_" gradientUnits="userSpaceOnUse" x1="67.7349" y1="244.3506" x2="36.2898" y2="175.496" gradientTransform="matrix(0.8116 0.5842 0.5842 -0.8116 -83.3322 240.5283)">
		<stop  offset="0" style="stop-color:#4E4D55"/>
		<stop  offset="1" style="stop-color:#89888D"/>
	</linearGradient>
	<polygon fill="url(#SVGID_24_)" points="48.5,129.3 101.5,55.8 101,122.8 	"/>
	<polygon fill="#44434B" points="101.5,55.8 80.3,67.2 48.5,129.3 	"/>
	<polygon fill="#CED0CF" points="154.1,194.1 101,122.8 231.1,147.9 	"/>
	
		<linearGradient id="SVGID_25_" gradientUnits="userSpaceOnUse" x1="110.0217" y1="217.4846" x2="101.9501" y2="262.1081" gradientTransform="matrix(0.8116 0.5842 0.5842 -0.8116 -83.3322 240.5283)">
		<stop  offset="0" style="stop-color:#919296"/>
		<stop  offset="1" style="stop-color:#A3A4A8"/>
	</linearGradient>
	<polygon fill="url(#SVGID_25_)" points="101,122.8 101.5,55.8 218.4,88 	"/>
	
		<linearGradient id="SVGID_26_" gradientUnits="userSpaceOnUse" x1="232.7461" y1="231.6489" x2="221.4848" y2="293.9057" gradientTransform="matrix(0.8116 0.5842 0.5842 -0.8116 -83.3322 240.5283)">
		<stop  offset="0" style="stop-color:#5E5D63"/>
		<stop  offset="0.2767" style="stop-color:#55535A"/>
		<stop  offset="0.7393" style="stop-color:#3C3A42"/>
		<stop  offset="1" style="stop-color:#2B2831"/>
	</linearGradient>
	<polygon fill="url(#SVGID_26_)" points="267.9,192.9 231.1,147.9 214.2,186.2 	"/>
	<polygon fill="#414048" points="235.2,201.3 214.2,186.2 267.9,192.9 	"/>
	<polygon fill="#2A2730" points="206.3,207.6 214.2,186.2 235.2,201.3 	"/>
	
		<linearGradient id="SVGID_27_" gradientUnits="userSpaceOnUse" x1="224.0768" y1="295.2009" x2="259.297" y2="247.0667" gradientTransform="matrix(0.8116 0.5842 0.5842 -0.8116 -83.3322 240.5283)">
		<stop  offset="0" style="stop-color:#98979D"/>
		<stop  offset="1" style="stop-color:#A8A9AD"/>
	</linearGradient>
	<polygon fill="url(#SVGID_27_)" points="267.9,192.9 231.1,147.9 311.1,138.9 	"/>
	
		<linearGradient id="SVGID_28_" gradientUnits="userSpaceOnUse" x1="174.5848" y1="208.2176" x2="121.7798" y2="248.9541" gradientTransform="matrix(0.8116 0.5842 0.5842 -0.8116 -83.3322 240.5283)">
		<stop  offset="0" style="stop-color:#A1A2A6"/>
		<stop  offset="1" style="stop-color:#C9CACC"/>
	</linearGradient>
	<polygon fill="url(#SVGID_28_)" points="101,122.8 218.4,88 231.1,147.9 	"/>
	<polygon fill="#1F1C27" points="197.6,357 234.9,400.3 245.2,388.7 	"/>
	<polygon fill="#1E1B24" points="336.7,394.4 316.3,407.8 234.9,400.3 	"/>
	
		<linearGradient id="SVGID_29_" gradientUnits="userSpaceOnUse" x1="354.5634" y1="72.1123" x2="404.1013" y2="94.0722" gradientTransform="matrix(0.8116 0.5842 0.5842 -0.8116 -83.3322 240.5283)">
		<stop  offset="0" style="stop-color:#5E5D63"/>
		<stop  offset="0.2767" style="stop-color:#55535A"/>
		<stop  offset="0.7393" style="stop-color:#3C3A42"/>
		<stop  offset="1" style="stop-color:#2B2831"/>
	</linearGradient>
	<polygon fill="url(#SVGID_29_)" points="234.9,400.3 245.2,388.7 336.7,394.4 	"/>
	<polygon fill="#A3A4A8" points="376,206.9 352.7,180.1 300.2,208.8 	"/>
	
		<linearGradient id="SVGID_30_" gradientUnits="userSpaceOnUse" x1="158.8161" y1="297.6341" x2="75.5565" y2="283.0809" gradientTransform="matrix(0.8116 0.5842 0.5842 -0.8116 -83.3322 240.5283)">
		<stop  offset="0" style="stop-color:#706F75"/>
		<stop  offset="1" style="stop-color:#858489"/>
	</linearGradient>
	<polygon fill="url(#SVGID_30_)" points="218.4,88 214.4,68.1 101.5,55.8 	"/>
	
		<linearGradient id="SVGID_31_" gradientUnits="userSpaceOnUse" x1="246.8621" y1="324.7974" x2="204.0134" y2="317.3077" gradientTransform="matrix(0.8116 0.5842 0.5842 -0.8116 -83.3322 240.5283)">
		<stop  offset="0" style="stop-color:#A5A6AA"/>
		<stop  offset="1" style="stop-color:#B0B1B5"/>
	</linearGradient>
	<polygon fill="url(#SVGID_31_)" points="218.4,88 214.4,68.1 318,116.9 	"/>
	<polygon fill="#807F84" points="352.7,180.1 293.1,197.6 300.2,208.8 	"/>
	<polygon fill="#EFF1EE" points="446.6,267.5 401.3,172.1 400.5,255.3 	"/>
	<polygon fill="#8B8A8F" points="154.1,194.1 214.2,186.2 231.1,147.9 	"/>
	
		<linearGradient id="SVGID_32_" gradientUnits="userSpaceOnUse" x1="202.1011" y1="179.3257" x2="167.2585" y2="222.3606" gradientTransform="matrix(0.8116 0.5842 0.5842 -0.8116 -83.3322 240.5283)">
		<stop  offset="0" style="stop-color:#5E5D63"/>
		<stop  offset="0.2767" style="stop-color:#55535A"/>
		<stop  offset="0.7393" style="stop-color:#3C3A42"/>
		<stop  offset="1" style="stop-color:#2B2831"/>
	</linearGradient>
	<polygon fill="url(#SVGID_32_)" points="198.2,227.7 154.1,194.1 214.2,186.2 	"/>
	
		<linearGradient id="SVGID_33_" gradientUnits="userSpaceOnUse" x1="283.7389" y1="197.7786" x2="310.6266" y2="243.0855" gradientTransform="matrix(0.8116 0.5842 0.5842 -0.8116 -83.3322 240.5283)">
		<stop  offset="0" style="stop-color:#87868B"/>
		<stop  offset="1" style="stop-color:#78797E"/>
	</linearGradient>
	<polygon fill="url(#SVGID_33_)" points="338.8,266.6 273,246.6 242.5,200.3 300.2,208.8 	"/>
	
		<linearGradient id="SVGID_34_" gradientUnits="userSpaceOnUse" x1="446.0369" y1="252.5587" x2="387.095" y2="329.3159" gradientTransform="matrix(0.8116 0.5842 0.5842 -0.8116 -83.3322 240.5283)">
		<stop  offset="0" style="stop-color:#A1A2A6"/>
		<stop  offset="1" style="stop-color:#C9CACC"/>
	</linearGradient>
	<polygon fill="url(#SVGID_34_)" points="446.5,267.1 401.2,171.8 426.5,129.3 	"/>
	
		<linearGradient id="SVGID_35_" gradientUnits="userSpaceOnUse" x1="423.3823" y1="331.524" x2="416.1347" y2="456.6057" gradientTransform="matrix(0.8116 0.5842 0.5842 -0.8116 -83.3322 240.5283)">
		<stop  offset="0" style="stop-color:#A1A2A6"/>
		<stop  offset="1" style="stop-color:#C9CACC"/>
	</linearGradient>
	<polygon fill="url(#SVGID_35_)" points="439.6,219.5 461.2,170.7 457.3,233.9 446.5,267.1 	"/>
	<polygon fill="#BBBFC0" points="461.2,170.7 426.5,129.3 421.9,85 	"/>
	<polygon fill="#D2D4D3" points="459.1,206.4 482.4,190.6 453.6,154.2 461.2,170.7 	"/>
	
		<linearGradient id="SVGID_36_" gradientUnits="userSpaceOnUse" x1="388.5508" y1="391.0844" x2="376.7432" y2="338.9064" gradientTransform="matrix(0.8116 0.5842 0.5842 -0.8116 -83.3322 240.5283)">
		<stop  offset="0" style="stop-color:#4E4D55"/>
		<stop  offset="1" style="stop-color:#89888D"/>
	</linearGradient>
	<polygon fill="url(#SVGID_36_)" points="439.6,219.5 426.5,129.3 461.2,170.7 	"/>
	<polygon fill="#898A8E" points="350.1,59.9 362.1,104.2 374.5,56.4 	"/>
	
		<linearGradient id="SVGID_37_" gradientUnits="userSpaceOnUse" x1="264.0788" y1="390.8614" x2="290.0805" y2="390.8614" gradientTransform="matrix(0.8116 0.5842 0.5842 -0.8116 -83.3322 240.5283)">
		<stop  offset="0" style="stop-color:#5E5D63"/>
		<stop  offset="0.4456" style="stop-color:#4A484F"/>
		<stop  offset="1" style="stop-color:#2B2831"/>
	</linearGradient>
	<polygon fill="url(#SVGID_37_)" points="365.2,113.8 362.1,104.2 374.5,56.4 	"/>
	<polygon fill="#F0F2EF" points="401.2,171.8 395,94.5 421.9,85 426.5,129.3 	"/>
	<polygon fill="#66656B" points="293.1,197.6 325.9,168.4 352.7,180.1 	"/>
	
		<linearGradient id="SVGID_38_" gradientUnits="userSpaceOnUse" x1="248.9855" y1="238.9118" x2="286.9689" y2="277.9504" gradientTransform="matrix(0.8116 0.5842 0.5842 -0.8116 -83.3322 240.5283)">
		<stop  offset="0" style="stop-color:#5E5D63"/>
		<stop  offset="1" style="stop-color:#2B2831"/>
	</linearGradient>
	<polygon fill="url(#SVGID_38_)" points="325.9,168.4 293.1,197.6 235.2,201.3 270.1,192 	"/>
	<polygon fill="#626167" points="293.1,197.6 300.2,208.8 244.6,200.7 	"/>
	<polygon fill="#AEAFB1" points="482.4,190.6 458.2,220.9 459.1,206.4 	"/>
	
		<linearGradient id="SVGID_39_" gradientUnits="userSpaceOnUse" x1="290.0558" y1="331.2177" x2="305.8294" y2="331.2177" gradientTransform="matrix(0.8116 0.5842 0.5842 -0.8116 -83.3322 240.5283)">
		<stop  offset="0" style="stop-color:#3D3C44"/>
		<stop  offset="1" style="stop-color:#35343C"/>
	</linearGradient>
	<polygon fill="url(#SVGID_39_)" points="325.9,168.4 358.4,150.2 365.2,113.8 	"/>
	
		<linearGradient id="SVGID_40_" gradientUnits="userSpaceOnUse" x1="290.0558" y1="314.4583" x2="328.262" y2="314.4583" gradientTransform="matrix(0.8116 0.5842 0.5842 -0.8116 -83.3322 240.5283)">
		<stop  offset="0" style="stop-color:#5E5D63"/>
		<stop  offset="1" style="stop-color:#2B2831"/>
	</linearGradient>
	<polygon fill="url(#SVGID_40_)" points="325.9,168.4 358.4,150.2 352.7,180.1 	"/>
	
		<linearGradient id="SVGID_41_" gradientUnits="userSpaceOnUse" x1="353.1007" y1="295.6287" x2="353.1007" y2="295.6287" gradientTransform="matrix(0.8116 0.5842 0.5842 -0.8116 -83.3322 240.5283)">
		<stop  offset="0" style="stop-color:#5E5D63"/>
		<stop  offset="1" style="stop-color:#2B2831"/>
	</linearGradient>
	<path fill="url(#SVGID_41_)" d="M376,206.9"/>
	
		<linearGradient id="SVGID_42_" gradientUnits="userSpaceOnUse" x1="390.291" y1="319.1992" x2="357.9488" y2="283.4836" gradientTransform="matrix(0.8116 0.5842 0.5842 -0.8116 -83.3322 240.5283)">
		<stop  offset="0" style="stop-color:#706F75"/>
		<stop  offset="1" style="stop-color:#858489"/>
	</linearGradient>
	<polygon fill="url(#SVGID_42_)" points="401.2,171.8 376,206.9 400.5,255.3 	"/>
	
		<linearGradient id="SVGID_43_" gradientUnits="userSpaceOnUse" x1="330.2502" y1="339.8355" x2="303.8246" y2="310.6537" gradientTransform="matrix(0.8116 0.5842 0.5842 -0.8116 -83.3322 240.5283)">
		<stop  offset="0" style="stop-color:#4E4D55"/>
		<stop  offset="1" style="stop-color:#67666C"/>
	</linearGradient>
	<polygon fill="url(#SVGID_43_)" points="352.7,180.1 365.2,113.8 376,206.9 	"/>
	<polygon fill="#B1B2B4" points="374.5,56.4 395.3,80 371.4,75.5 	"/>
	
		<linearGradient id="SVGID_44_" gradientUnits="userSpaceOnUse" x1="297.8654" y1="363.0465" x2="295.9584" y2="409.5339" gradientTransform="matrix(0.8116 0.5842 0.5842 -0.8116 -83.3322 240.5283)">
		<stop  offset="0" style="stop-color:#706F75"/>
		<stop  offset="1" style="stop-color:#9D9EA3"/>
	</linearGradient>
	<polyline fill="url(#SVGID_44_)" points="365.2,113.8 371.4,75.5 421.9,85 395,94.5 	"/>
	
		<linearGradient id="SVGID_45_" gradientUnits="userSpaceOnUse" x1="198.363" y1="301.5934" x2="246.8288" y2="325.56" gradientTransform="matrix(0.8116 0.5842 0.5842 -0.8116 -83.3322 240.5283)">
		<stop  offset="0" style="stop-color:#706F75"/>
		<stop  offset="1" style="stop-color:#9D9EA3"/>
	</linearGradient>
	<polygon fill="url(#SVGID_45_)" points="318,116.9 311.1,138.9 218.4,88 	"/>
	
		<linearGradient id="SVGID_46_" gradientUnits="userSpaceOnUse" x1="139.7992" y1="295.9128" x2="191.6199" y2="321.5384" gradientTransform="matrix(0.8116 0.5842 0.5842 -0.8116 -83.3322 240.5283)">
		<stop  offset="0" style="stop-color:#706F75"/>
		<stop  offset="1" style="stop-color:#9D9EA3"/>
	</linearGradient>
	<polygon fill="url(#SVGID_46_)" points="214.4,68.1 306.8,98.8 318,116.9 	"/>
	<polygon fill="#616066" points="264.5,84.7 273,81.4 285.4,91.7 	"/>
	<polyline fill="#AAABAF" points="287.4,92.3 299.5,90.3 319.5,79.4 273,81.4 285.4,91.7 	"/>
	
		<linearGradient id="SVGID_47_" gradientUnits="userSpaceOnUse" x1="241.4576" y1="377.3885" x2="224.3682" y2="334.0863" gradientTransform="matrix(0.8116 0.5842 0.5842 -0.8116 -83.3322 240.5283)">
		<stop  offset="0" style="stop-color:#5E5D63"/>
		<stop  offset="0.2767" style="stop-color:#55535A"/>
		<stop  offset="0.7393" style="stop-color:#3C3A42"/>
		<stop  offset="1" style="stop-color:#2B2831"/>
	</linearGradient>
	<polygon fill="url(#SVGID_47_)" points="306.8,98.8 350.1,59.9 299.5,90.3 	"/>
	
		<linearGradient id="SVGID_48_" gradientUnits="userSpaceOnUse" x1="278.373" y1="366.411" x2="252.4191" y2="300.6476" gradientTransform="matrix(0.8116 0.5842 0.5842 -0.8116 -83.3322 240.5283)">
		<stop  offset="0" style="stop-color:#5E5D63"/>
		<stop  offset="1" style="stop-color:#2B2831"/>
	</linearGradient>
	<polygon fill="url(#SVGID_48_)" points="311,139 318.1,117 365.2,113.8 	"/>
	
		<linearGradient id="SVGID_49_" gradientUnits="userSpaceOnUse" x1="242.9541" y1="327.9044" x2="245.814" y2="371.5496" gradientTransform="matrix(0.8116 0.5842 0.5842 -0.8116 -83.3322 240.5283)">
		<stop  offset="0" style="stop-color:#4E4D55"/>
		<stop  offset="1" style="stop-color:#89888D"/>
	</linearGradient>
	<polygon fill="url(#SVGID_49_)" points="306.8,98.8 318,116.9 350.1,59.9 	"/>
	
		<linearGradient id="SVGID_50_" gradientUnits="userSpaceOnUse" x1="219.3324" y1="344.7685" x2="227.4083" y2="336.4288" gradientTransform="matrix(0.8116 0.5842 0.5842 -0.8116 -83.3322 240.5283)">
		<stop  offset="0" style="stop-color:#706F75"/>
		<stop  offset="1" style="stop-color:#9D9EA3"/>
	</linearGradient>
	<polygon fill="url(#SVGID_50_)" points="287.4,92.3 299.5,90.3 306.8,98.8 	"/>
	
		<linearGradient id="SVGID_51_" gradientUnits="userSpaceOnUse" x1="286.2968" y1="354.8024" x2="274.126" y2="299.6144" gradientTransform="matrix(0.8116 0.5842 0.5842 -0.8116 -83.3322 240.5283)">
		<stop  offset="0" style="stop-color:#4E4D55"/>
		<stop  offset="1" style="stop-color:#67666C"/>
	</linearGradient>
	<polygon fill="url(#SVGID_51_)" points="325.9,168.4 311.1,138.9 365.2,113.8 	"/>
	
		<linearGradient id="SVGID_52_" gradientUnits="userSpaceOnUse" x1="268.6442" y1="384.7071" x2="257.1556" y2="332.6124" gradientTransform="matrix(0.8116 0.5842 0.5842 -0.8116 -83.3322 240.5283)">
		<stop  offset="0" style="stop-color:#4E4D55"/>
		<stop  offset="1" style="stop-color:#67666C"/>
	</linearGradient>
	<polygon fill="url(#SVGID_52_)" points="318,116.9 350.1,59.9 365.2,113.8 320.4,116.8 	"/>
	<polygon fill="#AAABAF" points="332.6,349.4 324.1,301.3 374.8,311.1 	"/>
	<polygon fill="#8A898E" points="281.2,333 324.1,301.3 332.6,349.4 	"/>
	<circle fill="#34313A" cx="113.7" cy="7.3" r="3.9"/>
	<circle fill="#1E1C27" cx="87.4" cy="14.6" r="2.7"/>
	<circle fill="#57565E" cx="40.3" cy="75.4" r="8.6"/>
	<circle fill="#CCCDCF" cx="210" cy="173.8" r="2.7"/>
	<polyline fill="none" stroke="#535258" stroke-miterlimit="10" points="359.9,345.4 306,380.1 306.7,323.5 	"/>
	<polyline fill="none" stroke="#535258" stroke-miterlimit="10" points="342.9,339.4 329.9,288.7 232,240.4 197.3,196 	"/>
	<polyline fill="none" stroke="#535258" stroke-miterlimit="10" points="207.9,172.2 231.6,194.8 230.5,242.4 	"/>
	<polyline fill="none" stroke="#535258" stroke-miterlimit="10" points="238.8,194.5 265.8,257 340.7,337.8 	"/>
	<line fill="none" stroke="#535258" stroke-miterlimit="10" x1="236.9" y1="45" x2="339.7" y2="120.2"/>
	<line fill="none" stroke="#535258" stroke-miterlimit="10" x1="236.9" y1="45" x2="330.4" y2="96.5"/>
	<polyline fill="none" stroke="#535258" stroke-miterlimit="10" points="288.7,72.6 297.4,70.5 307.8,84 	"/>
	<line fill="none" stroke="#535258" stroke-miterlimit="10" x1="297.4" y1="70.5" x2="347.9" y2="78.1"/>
	<line fill="none" stroke="#535258" stroke-miterlimit="10" x1="327.1" y1="85.6" x2="314.8" y2="87.9"/>
	<polyline fill="none" stroke="#535258" stroke-miterlimit="10" points="188.2,328.5 201.4,367.2 156.3,359.3 187.1,414.3 
		274.5,440.8 354.9,428.7 	"/>
	<polyline fill="none" stroke="#E2E4E1" stroke-miterlimit="10" points="186.4,324.4 160.3,337.3 182.3,384.8 212.7,375.1 
		220.9,385.5 	"/>
	<polyline fill="none" stroke="#E2E4E1" stroke-miterlimit="10" points="121.8,322.9 156.3,359.3 200.3,401.6 	"/>
	<line fill="none" stroke="#E2E4E1" stroke-miterlimit="10" x1="121.8" y1="322.9" x2="151.5" y2="273.8"/>
	<polyline fill="none" stroke="#FFFFFF" stroke-miterlimit="10" points="255.7,81.8 265.2,1.3 321.1,76.4 367.5,27.6 263.1,-0.2 
		296.3,-46.4 204,-42.8 182,-28.6 297.5,-45.6 368.5,26.2 375.4,57.6 	"/>
	<polyline fill="none" stroke="#FFFFFF" stroke-miterlimit="10" points="263.1,-0.2 182,-28.6 188.4,65.9 	"/>
	<line fill="none" stroke="#FFFFFF" stroke-miterlimit="10" x1="182" y1="-28.6" x2="173.5" y2="63.7"/>
	<line fill="none" stroke="#FFFFFF" stroke-miterlimit="10" x1="265.2" y1="1.3" x2="207.2" y2="68.5"/>
	<polyline fill="none" stroke="#FFFFFF" stroke-miterlimit="10" points="385.4,376.8 454.6,382 476.4,346.6 	"/>
	<polyline fill="none" stroke="#FFFFFF" stroke-miterlimit="10" points="477.7,345.3 498.3,243.1 496.2,336 	"/>
	<polyline fill="none" stroke="#FFFFFF" stroke-miterlimit="10" points="474,197.7 498.3,243.1 484.1,249.1 467.5,200.6 
		455.7,218.4 484.1,249.1 450.4,286.8 452.9,251.5 484.1,249.1 477.7,345.3 	"/>
	<line fill="none" stroke="#FFFFFF" stroke-miterlimit="10" x1="476.1" y1="347.5" x2="399.4" y2="357.4"/>
	<line fill="none" stroke="#FFFFFF" stroke-miterlimit="10" x1="476.1" y1="347.5" x2="425.7" y2="311.2"/>
	<line fill="none" stroke="#FFFFFF" stroke-miterlimit="10" x1="484.1" y1="249.1" x2="453" y2="223.1"/>
	<polyline fill="none" stroke="#535258" stroke-miterlimit="10" points="306.7,323.5 301.9,320.1 230.5,242.4 216.1,293.3 
		253.7,351 306.7,323.5 342.9,339.4 308.8,379.2 205.1,403 208,405.1 303,430.6 306,380.1 253.7,351 207.3,399.7 202.1,400.8 
		201.4,367.2 216.1,293.3 188.2,328.5 	"/>
	<polyline fill="none" stroke="#535258" stroke-miterlimit="10" points="216.1,293.3 197.3,196 184.2,217.8 142.5,169.3 210,173.8 
		268,191.6 237,136.3 98.6,81 140.5,167.9 80,186.2 97.4,80.1 42.9,77.3 80,186.2 	"/>
	<line fill="none" stroke="#535258" stroke-miterlimit="10" x1="451.7" y1="365.9" x2="398.3" y2="358.9"/>
	<polyline fill="none" stroke="#535258" stroke-miterlimit="10" points="342.9,339.4 398.3,358.9 303,430.6 355.5,427.9 
		413.8,360.9 398.3,358.9 391.5,333.1 329.9,288.7 384.3,229 402,289.4 419,198.6 449.8,310.5 391.5,333.1 402,289.4 449.8,310.5 
		451.7,365.9 	"/>
	<polyline fill="none" stroke="#535258" stroke-miterlimit="10" points="165.9,289 142.5,169.3 184.2,217.8 168.1,281.8 
		188.2,328.5 152.5,329.2 	"/>
	<polyline fill="none" stroke="#535258" stroke-miterlimit="10" points="449.8,310.5 469.1,276.9 485.7,210.9 452.5,257.9 
		448.4,312.4 	"/>
	<line fill="none" stroke="#535258" stroke-miterlimit="10" x1="328.8" y1="287.8" x2="402" y2="289.4"/>
	<polyline fill="none" stroke="#535258" stroke-miterlimit="10" points="329.8,291.4 300.5,218 383.3,230.5 419,198.6 456.3,157.9 
		451.2,259.8 	"/>
	<polyline fill="none" stroke="#535258" stroke-miterlimit="10" points="383.3,230.5 393.5,126.4 363.2,196.9 305.7,215.9 
		238.8,194.5 197.3,196 	"/>
	<polyline fill="none" stroke="#535258" stroke-miterlimit="10" points="43.2,71.4 88.9,12.5 113.7,7.3 40.3,75.4 	"/>
	<polygon fill="none" stroke="#535258" stroke-miterlimit="10" points="115.5,8.6 236.9,45 236,65.4 	"/>
	<polyline fill="none" stroke="#535258" stroke-miterlimit="10" points="113.7,11.2 97.4,80.1 236,65.4 237.9,135.1 328.3,142.3 
		268,191.6 	"/>
	<polyline fill="none" stroke="#535258" stroke-miterlimit="10" points="364.9,198.2 338.3,179 295.2,202.2 363.2,196.9 	"/>
	<polyline fill="none" stroke="#535258" stroke-miterlimit="10" points="301.2,217.1 295.2,202.2 240.7,195.8 	"/>
	<polyline fill="none" stroke="#535258" stroke-miterlimit="10" points="377,164.7 338.3,179 393.5,126.4 328.3,142.3 336.1,177.5 
		268,191.6 	"/>
	<polyline fill="none" stroke="#535258" stroke-miterlimit="10" points="419,198.6 429.3,110.9 392.5,127.8 341.1,121.1 
		328.3,142.3 236,65.4 338.4,119.2 330.4,96.5 325.3,86.2 387.1,63.9 330.4,96.5 	"/>
	<polyline fill="none" stroke="#535258" stroke-miterlimit="10" points="143.2,170.8 235,135.9 210.8,175.4 195.9,197.9 	"/>
	<polyline fill="none" stroke="#535258" stroke-miterlimit="10" points="156.3,359.3 190,333.6 157.2,349.3 156.3,359.3 	"/>
	<polyline fill="none" stroke="#535258" stroke-miterlimit="10" points="159.3,292.6 146.8,295.9 174.3,328.8 	"/>
	<polyline fill="none" stroke="#535258" stroke-miterlimit="10" points="147.4,296.3 152.5,329.2 157.2,349.3 	"/>
	<polyline fill="none" stroke="#535258" stroke-miterlimit="10" points="188.2,328.5 165.8,291.4 80.7,186.7 187.1,414.3 199,405.1 
			"/>
	<polyline fill="none" stroke="#535258" stroke-miterlimit="10" points="190.5,415.2 303,430.6 274.5,440.8 	"/>
	<line fill="none" stroke="#535258" stroke-miterlimit="10" x1="146.5" y1="297.4" x2="157.5" y2="281"/>
	<polyline fill="none" stroke="#535258" stroke-miterlimit="10" points="339.7,120.2 386.1,65.3 391.9,126.4 416.3,65.5 431.9,94.2 
		458.5,107 429.3,110.9 	"/>
	<polygon fill="none" stroke="#535258" stroke-miterlimit="10" points="456.3,157.9 459.8,109.8 485.7,209 	"/>
	<polyline fill="none" stroke="#535258" stroke-miterlimit="10" points="480.3,188.2 505,233.8 476.1,249 	"/>
	<line fill="none" stroke="#535258" stroke-miterlimit="10" x1="504.6" y1="236.7" x2="472.6" y2="262.9"/>
	<line fill="none" stroke="#535258" stroke-miterlimit="10" x1="431.9" y1="94.2" x2="408.6" y2="84.9"/>
	<polyline fill="none" stroke="#535258" stroke-miterlimit="10" points="390.7,113.6 416.3,65.5 387.1,63.9 	"/>
	<polyline fill="none" stroke="#E2E4E1" stroke-miterlimit="10" points="122.3,234.1 114.2,253 134.6,253 121.8,322.9 162.1,269.1 	
		"/>
	<line fill="none" stroke="#E2E4E1" stroke-miterlimit="10" x1="121.8" y1="322.9" x2="198.5" y2="352.1"/>
	<circle fill="#35343A" cx="165.9" cy="289" r="7.6"/>
	<circle fill="#5A5961" cx="147.4" cy="296.3" r="2.3"/>
	<circle fill="#5A5961" cx="152.5" cy="329.2" r="2.3"/>
	<circle fill="#B2B3B5" cx="121.8" cy="322.9" r="3.3"/>
	<circle fill="#B2B3B5" cx="115.5" cy="254" r="1.7"/>
	<circle fill="#3F3E46" cx="306.7" cy="323.5" r="5.9"/>
	<circle fill="#FAFCF7" cx="253.7" cy="351" r="3"/>
	<circle fill="#D6D8D5" cx="306" cy="380.1" r="4.2"/>
	<circle fill="#201D28" cx="329.9" cy="288.7" r="3.9"/>
	<circle fill="#201D28" cx="342.9" cy="339.4" r="2.7"/>
	<circle fill="#201D28" cx="398.3" cy="358.9" r="1.8"/>
	<circle fill="#FBFBF9" cx="391.5" cy="333.1" r="2.2"/>
	<circle fill="#1D1A25" cx="383.3" cy="230.5" r="3.6"/>
	<circle fill="#36333C" cx="301.2" cy="217.1" r="7.9"/>
	<circle fill="#F2F4F3" cx="338.3" cy="179" r="2.7"/>
	<circle fill="#211E29" cx="216.1" cy="293.3" r="2.2"/>
	<circle fill="#FBFBF9" cx="184.2" cy="217.8" r="2.2"/>
	<circle fill="#FBFBF9" cx="230.5" cy="242.4" r="2.5"/>
	<circle fill="#201D28" cx="268" cy="191.6" r="2.3"/>
	<circle fill="#1F1C27" cx="448.4" cy="312.4" r="2.4"/>
	<circle fill="#1F1C27" cx="402" cy="289.4" r="1.4"/>
	<circle fill="#1F1C27" cx="363.2" cy="196.9" r="2.2"/>
	<circle fill="#1F1C27" cx="451.2" cy="259.8" r="2.2"/>
	<circle fill="#3A3941" cx="469.1" cy="276.9" r="1.6"/>
	<circle fill="#403E49" cx="485.7" cy="210.9" r="3.9"/>
	<circle fill="#403E49" cx="505.9" cy="235.9" r="6.1"/>
	<circle fill="#1D1A25" cx="142.5" cy="169.3" r="3.9"/>
	<circle fill="#1D1A25" cx="80" cy="186.2" r="2.3"/>
	<circle fill="#1D1A25" cx="392.5" cy="127.8" r="3.9"/>
	<circle fill="#1D1A25" cx="328.3" cy="142.3" r="2"/>
	<circle fill="#221F2A" cx="339.7" cy="120.2" r="1.7"/>
	<circle fill="#221F2A" cx="325.3" cy="86.2" r="2.7"/>
	<circle fill="#221F2A" cx="297.4" cy="70.5" r="1.8"/>
	<circle fill="#23202B" cx="202.5" cy="403.2" r="5.9"/>
	<circle fill="#23202B" cx="187.1" cy="414.3" r="4.2"/>
	<circle fill="#333039" cx="354.9" cy="428.7" r="3.9"/>
	<circle fill="#1E1B26" cx="303" cy="430.6" r="2.7"/>
	<path fill="#1E1B26" d="M276.1,441.9c-0.6,0.9-1.9,1.1-2.8,0.4s-1.1-1.9-0.4-2.8c0.6-0.9,0.7,0.5,1.6,1.2
		C275.4,441.4,276.7,441.1,276.1,441.9z"/>
	<circle fill="#1E1B26" cx="156.3" cy="359.3" r="2.3"/>
	<circle fill="#6D6C74" cx="237" cy="136.3" r="3.5"/>
	<circle fill="#4B4A50" cx="236" cy="65.4" r="5.9"/>
	<circle fill="#4B4A50" cx="236.9" cy="45" r="2.5"/>
	<circle fill="#201D28" cx="238.8" cy="194.5" r="2.3"/>
	<circle fill="#201D28" cx="197.3" cy="196" r="2.3"/>
	<circle fill="#525157" cx="387.1" cy="63.9" r="1.7"/>
	<circle fill="#FFFFFF" cx="330.4" cy="96.5" r="2.2"/>
	<circle fill="#FBFBF9" cx="419" cy="198.6" r="3"/>
	<line fill="none" stroke="#FFFFFF" stroke-miterlimit="10" x1="496.8" y1="337.8" x2="454.6" y2="382"/>
</g>
<g id="Layer_3" opacity="0.51">
</g>
</svg>
