<?xml version="1.0" encoding="utf-8"?>
<!-- Generator: Adobe Illustrator 18.1.1, SVG Export Plug-In . SVG Version: 6.00 Build 0)  -->
<svg version="1.1" id="Layer_1" xmlns="http://www.w3.org/2000/svg" xmlns:xlink="http://www.w3.org/1999/xlink" x="0px" y="0px"
	 viewBox="0 0 536 443" enable-background="new 0 0 536 443" xml:space="preserve">
<g opacity="0.5">
	<g id="Layer_2" opacity="0.51">
		<circle fill="#FBFBF9" cx="541.2" cy="192.6" r="3.9"/>
		<circle fill="#FBFBF9" cx="529.8" cy="211.7" r="2.7"/>
	</g>
	
		<linearGradient id="SVGID_1_" gradientUnits="userSpaceOnUse" x1="329.7192" y1="116.9965" x2="329.7192" y2="173.1897" gradientTransform="matrix(1 0 0 -1 0 444)">
		<stop  offset="0" style="stop-color:#5E5D63"/>
		<stop  offset="1" style="stop-color:#47464E"/>
	</linearGradient>
	<polyline fill="url(#SVGID_1_)" points="363.5,314.7 304.8,305.3 279.7,263.9 379.8,263.9 363.5,314.7 	"/>
	<polygon fill="#1F1C27" points="304.8,305.3 309.5,342.8 343,359 	"/>
	
		<linearGradient id="SVGID_2_" gradientUnits="userSpaceOnUse" x1="309.2269" y1="86.001" x2="363.2682" y2="116.2762" gradientTransform="matrix(1 0 0 -1 0 444)">
		<stop  offset="0" style="stop-color:#5E5D63"/>
		<stop  offset="1" style="stop-color:#2B2831"/>
	</linearGradient>
	<polygon fill="url(#SVGID_2_)" points="366.7,380.9 343,359 304.8,305.3 363.5,314.7 	"/>
	
		<linearGradient id="SVGID_3_" gradientUnits="userSpaceOnUse" x1="337.8165" y1="80.9041" x2="383.7062" y2="106.6126" gradientTransform="matrix(1 0 0 -1 0 444)">
		<stop  offset="0" style="stop-color:#A9AAAE"/>
		<stop  offset="1" style="stop-color:#BCC0C1"/>
	</linearGradient>
	<polyline fill="url(#SVGID_3_)" points="414.7,297.9 366.7,380.9 363.5,314.7 414.7,297.9 	"/>
	<polygon fill="#5E5D63" points="279.7,263.9 306.3,249.3 411.1,249.3 379.8,263.9 	"/>
	
		<linearGradient id="SVGID_4_" gradientUnits="userSpaceOnUse" x1="403.1952" y1="96.4042" x2="433.736" y2="76.3643" gradientTransform="matrix(1 0 0 -1 0 444)">
		<stop  offset="0" style="stop-color:#4E4D55"/>
		<stop  offset="1" style="stop-color:#67666C"/>
	</linearGradient>
	<polygon fill="url(#SVGID_4_)" points="366.7,380.9 414.7,297.9 444.3,332.1 	"/>
	
		<linearGradient id="SVGID_5_" gradientUnits="userSpaceOnUse" x1="432.3514" y1="178.3062" x2="462.7211" y2="158.3785" gradientTransform="matrix(1 0 0 -1 0 444)">
		<stop  offset="0" style="stop-color:#706F75"/>
		<stop  offset="1" style="stop-color:#858489"/>
	</linearGradient>
	<polygon fill="url(#SVGID_5_)" points="444.3,332.1 414.7,297.9 426.6,242.2 459.1,224.7 	"/>
	<polygon fill="#57565C" points="314.4,345.1 309.6,383 343,359 	"/>
	<polygon fill="#1E1B26" points="304.8,375.1 309.6,383 314.4,345.1 	"/>
	<polygon fill="#1E1B26" points="265.4,350.7 288.1,366.4 300.6,352.4 	"/>
	<polygon fill="#1E1B26" points="261,333.4 265.4,350.7 270,333.4 	"/>
	
		<linearGradient id="SVGID_6_" gradientUnits="userSpaceOnUse" x1="291.0559" y1="84.5508" x2="284.9167" y2="106.0815" gradientTransform="matrix(1 0 0 -1 0 444)">
		<stop  offset="0" style="stop-color:#5E5D63"/>
		<stop  offset="0.4456" style="stop-color:#4A484F"/>
		<stop  offset="1" style="stop-color:#2B2831"/>
	</linearGradient>
	<polygon fill="url(#SVGID_6_)" points="300.6,352.4 265.4,350.7 270,333.4 309.5,342.8 	"/>
	
		<linearGradient id="SVGID_7_" gradientUnits="userSpaceOnUse" x1="332.2339" y1="48.8896" x2="344.4423" y2="76.026" gradientTransform="matrix(1 0 0 -1 0 444)">
		<stop  offset="0" style="stop-color:#5E5D63"/>
		<stop  offset="0.2767" style="stop-color:#55535A"/>
		<stop  offset="0.7393" style="stop-color:#3C3A42"/>
		<stop  offset="1" style="stop-color:#2B2831"/>
	</linearGradient>
	<polygon fill="url(#SVGID_7_)" points="366.7,380.9 343,359 309.6,383 	"/>
	
		<linearGradient id="SVGID_8_" gradientUnits="userSpaceOnUse" x1="288.0672" y1="85.0551" x2="314.3893" y2="85.0551" gradientTransform="matrix(1 0 0 -1 0 444)">
		<stop  offset="0" style="stop-color:#5E5D63"/>
		<stop  offset="0.2767" style="stop-color:#55535A"/>
		<stop  offset="0.7393" style="stop-color:#3C3A42"/>
		<stop  offset="1" style="stop-color:#2B2831"/>
	</linearGradient>
	<polygon fill="url(#SVGID_8_)" points="304.8,375.1 288.1,366.4 309.5,342.8 314.4,345.1 	"/>
	
		<linearGradient id="SVGID_9_" gradientUnits="userSpaceOnUse" x1="289.7576" y1="82.0778" x2="270.5909" y2="149.2966" gradientTransform="matrix(1 0 0 -1 0 444)">
		<stop  offset="0" style="stop-color:#7B7A80"/>
		<stop  offset="0.7789" style="stop-color:#66656B"/>
		<stop  offset="1" style="stop-color:#5F5E64"/>
	</linearGradient>
	<polygon fill="url(#SVGID_9_)" points="309.5,342.8 234.5,277.7 304.8,305.3 	"/>
	<polyline fill="#727177" points="476.9,296.6 444.3,332.1 435.6,354.9 476.9,296.6 	"/>
	
		<linearGradient id="SVGID_10_" gradientUnits="userSpaceOnUse" x1="462.9957" y1="148.0842" x2="467.1974" y2="180.3446" gradientTransform="matrix(1 0 0 -1 0 444)">
		<stop  offset="0" style="stop-color:#A9AAAE"/>
		<stop  offset="1" style="stop-color:#BCC0C1"/>
	</linearGradient>
	<polyline fill="url(#SVGID_10_)" points="476.9,296.6 444.3,332.1 459.1,224.7 469.8,216.4 	"/>
	
		<linearGradient id="SVGID_11_" gradientUnits="userSpaceOnUse" x1="264.5016" y1="76.2015" x2="270.7366" y2="124.0716" gradientTransform="matrix(1 0 0 -1 0 444)">
		<stop  offset="0" style="stop-color:#5E5D63"/>
		<stop  offset="0.2767" style="stop-color:#55535A"/>
		<stop  offset="0.7393" style="stop-color:#3C3A42"/>
		<stop  offset="1" style="stop-color:#2B2831"/>
	</linearGradient>
	<polygon fill="url(#SVGID_11_)" points="309.5,342.8 270,333.4 234.5,277.7 	"/>
	
		<linearGradient id="SVGID_12_" gradientUnits="userSpaceOnUse" x1="261.8492" y1="122.5829" x2="266.23" y2="156.2181" gradientTransform="matrix(1 0 0 -1 0 444)">
		<stop  offset="0" style="stop-color:#5E5D63"/>
		<stop  offset="0.2767" style="stop-color:#55535A"/>
		<stop  offset="0.7393" style="stop-color:#3C3A42"/>
		<stop  offset="1" style="stop-color:#2B2831"/>
	</linearGradient>
	<polygon fill="url(#SVGID_12_)" points="304.8,305.3 234.5,277.7 229.4,256.6 	"/>
	
		<linearGradient id="SVGID_13_" gradientUnits="userSpaceOnUse" x1="257.8432" y1="181.5792" x2="286.3497" y2="163.1972" gradientTransform="matrix(1 0 0 -1 0 444)">
		<stop  offset="0" style="stop-color:#706F75"/>
		<stop  offset="1" style="stop-color:#858489"/>
	</linearGradient>
	<polygon fill="url(#SVGID_13_)" points="304.8,305.3 229.4,256.6 279.7,263.9 	"/>
	
		<linearGradient id="SVGID_14_" gradientUnits="userSpaceOnUse" x1="246.3131" y1="124.3653" x2="218.7434" y2="154.158" gradientTransform="matrix(1 0 0 -1 0 444)">
		<stop  offset="0" style="stop-color:#5E5D63"/>
		<stop  offset="1" style="stop-color:#47464E"/>
	</linearGradient>
	<polygon fill="url(#SVGID_14_)" points="270,333.4 179.1,276.2 234.5,277.7 	"/>
	
		<linearGradient id="SVGID_15_" gradientUnits="userSpaceOnUse" x1="357.2366" y1="175.83" x2="359.3976" y2="203.6095" gradientTransform="matrix(1 0 0 -1 0 444)">
		<stop  offset="0" style="stop-color:#5E5D63"/>
		<stop  offset="1" style="stop-color:#47464E"/>
	</linearGradient>
	<polygon fill="url(#SVGID_15_)" points="306.3,249.3 371.4,227.1 411.1,249.3 	"/>
	
		<linearGradient id="SVGID_16_" gradientUnits="userSpaceOnUse" x1="235.416" y1="184.1593" x2="251.916" y2="190.1758" gradientTransform="matrix(1 0 0 -1 0 444)">
		<stop  offset="0" style="stop-color:#5E5D63"/>
		<stop  offset="1" style="stop-color:#47464E"/>
	</linearGradient>
	<polygon fill="url(#SVGID_16_)" points="279.7,263.9 249.1,234.6 229.4,256.6 	"/>
	<polygon fill="#F0F2EF" points="169.3,152.5 214.6,193.7 274.3,139.7 	"/>
	
		<linearGradient id="SVGID_17_" gradientUnits="userSpaceOnUse" x1="278.0519" y1="274.9166" x2="292.6877" y2="304.2471" gradientTransform="matrix(1 0 0 -1 0 444)">
		<stop  offset="0" style="stop-color:#5E5D63"/>
		<stop  offset="0.2767" style="stop-color:#55535A"/>
		<stop  offset="0.7393" style="stop-color:#3C3A42"/>
		<stop  offset="1" style="stop-color:#2B2831"/>
	</linearGradient>
	<polygon fill="url(#SVGID_17_)" points="270.8,208.7 274.3,139.7 303.5,155 	"/>
	<polygon fill="#A6A7AB" points="279.7,263.9 249.1,234.6 254.5,229.6 306.3,249.3 	"/>
	
		<linearGradient id="SVGID_18_" gradientUnits="userSpaceOnUse" x1="385.744" y1="244.923" x2="438.3686" y2="205.8257" gradientTransform="matrix(1 0 0 -1 0 444)">
		<stop  offset="0" style="stop-color:#706F75"/>
		<stop  offset="1" style="stop-color:#858489"/>
	</linearGradient>
	<polygon fill="url(#SVGID_18_)" points="371.4,227.1 414.7,181.9 436.9,214.6 	"/>
	<polygon fill="#F9FBF6" points="371.4,227.1 366.6,156.9 306.3,202.8 	"/>
	<polygon fill="#B8BCBD" points="414.7,181.9 371.4,227.1 366.6,156.9 	"/>
	
		<linearGradient id="SVGID_19_" gradientUnits="userSpaceOnUse" x1="435.4907" y1="278.8948" x2="443.2003" y2="235.2067" gradientTransform="matrix(1 0 0 -1 0 444)">
		<stop  offset="0" style="stop-color:#A5A6AA"/>
		<stop  offset="1" style="stop-color:#B0B1B5"/>
	</linearGradient>
	<polygon fill="url(#SVGID_19_)" points="436.9,214.6 414.7,181.9 459.1,164.6 	"/>
	
		<linearGradient id="SVGID_20_" gradientUnits="userSpaceOnUse" x1="455.7757" y1="228.6508" x2="486.33" y2="278.4336" gradientTransform="matrix(1 0 0 -1 0 444)">
		<stop  offset="0" style="stop-color:#76757B"/>
		<stop  offset="1" style="stop-color:#97989C"/>
	</linearGradient>
	<polyline fill="url(#SVGID_20_)" points="495.4,196.1 459.1,224.7 436.9,214.6 459.1,164.6 495.4,196.1 	"/>
	
		<linearGradient id="SVGID_21_" gradientUnits="userSpaceOnUse" x1="131.9406" y1="208.4205" x2="146.5563" y2="125.5986" gradientTransform="matrix(1 0 0 -1 0 444)">
		<stop  offset="0" style="stop-color:#4E4D55"/>
		<stop  offset="1" style="stop-color:#89888D"/>
	</linearGradient>
	<polygon fill="url(#SVGID_21_)" points="179.1,276.2 151.3,326.5 94.3,249.3 	"/>
	
		<linearGradient id="SVGID_22_" gradientUnits="userSpaceOnUse" x1="218.5127" y1="59.7451" x2="201.547" y2="177.3218" gradientTransform="matrix(1 0 0 -1 0 444)">
		<stop  offset="0" style="stop-color:#5E5D63"/>
		<stop  offset="0.2767" style="stop-color:#55535A"/>
		<stop  offset="0.7393" style="stop-color:#3C3A42"/>
		<stop  offset="1" style="stop-color:#2B2831"/>
	</linearGradient>
	<polygon fill="url(#SVGID_22_)" points="151.3,326.5 179.1,276.2 270,333.4 	"/>
	
		<linearGradient id="SVGID_23_" gradientUnits="userSpaceOnUse" x1="88.915" y1="177.4111" x2="112.197" y2="114.5091" gradientTransform="matrix(1 0 0 -1 0 444)">
		<stop  offset="0" style="stop-color:#4E4D55"/>
		<stop  offset="1" style="stop-color:#5B5A60"/>
	</linearGradient>
	<polygon fill="url(#SVGID_23_)" points="151.3,326.5 55.6,285.3 94.3,249.3 	"/>
	<polygon fill="#8F9094" points="366.6,156.9 303.5,87.7 316.5,54.6 366.6,113.8 	"/>
	<polyline fill="#5C5B61" points="411.1,249.3 371.4,227.1 436.9,214.6 459.1,224.7 411.1,250.6 	"/>
	
		<linearGradient id="SVGID_24_" gradientUnits="userSpaceOnUse" x1="81.2734" y1="235.7767" x2="49.8283" y2="166.9222" gradientTransform="matrix(1 0 0 -1 0 444)">
		<stop  offset="0" style="stop-color:#4E4D55"/>
		<stop  offset="1" style="stop-color:#89888D"/>
	</linearGradient>
	<polygon fill="url(#SVGID_24_)" points="55.6,285.3 55.6,194.7 94.3,249.3 	"/>
	<polygon fill="#44434B" points="55.6,194.7 45.1,216.3 55.6,285.3 	"/>
	<polygon fill="#CED0CF" points="179.1,276.2 94.3,249.3 214.6,193.7 	"/>
	
		<linearGradient id="SVGID_25_" gradientUnits="userSpaceOnUse" x1="123.5601" y1="208.9108" x2="115.4885" y2="253.5342" gradientTransform="matrix(1 0 0 -1 0 444)">
		<stop  offset="0" style="stop-color:#919296"/>
		<stop  offset="1" style="stop-color:#A3A4A8"/>
	</linearGradient>
	<polygon fill="url(#SVGID_25_)" points="94.3,249.3 55.6,194.7 169.3,152.5 	"/>
	
		<linearGradient id="SVGID_26_" gradientUnits="userSpaceOnUse" x1="246.2845" y1="223.075" x2="235.0232" y2="285.3319" gradientTransform="matrix(1 0 0 -1 0 444)">
		<stop  offset="0" style="stop-color:#5E5D63"/>
		<stop  offset="0.2767" style="stop-color:#55535A"/>
		<stop  offset="0.7393" style="stop-color:#3C3A42"/>
		<stop  offset="1" style="stop-color:#2B2831"/>
	</linearGradient>
	<polygon fill="url(#SVGID_26_)" points="270.8,208.7 214.6,193.7 223.3,234.6 	"/>
	<polygon fill="#414048" points="249.1,234.6 223.3,234.6 270.8,208.7 	"/>
	<polygon fill="#2A2730" points="229.4,256.6 223.3,234.6 249.1,234.6 	"/>
	
		<linearGradient id="SVGID_27_" gradientUnits="userSpaceOnUse" x1="237.6152" y1="286.6271" x2="272.8354" y2="238.4929" gradientTransform="matrix(1 0 0 -1 0 444)">
		<stop  offset="0" style="stop-color:#98979D"/>
		<stop  offset="1" style="stop-color:#A8A9AD"/>
	</linearGradient>
	<polygon fill="url(#SVGID_27_)" points="270.8,208.7 214.6,193.7 274.3,139.7 	"/>
	
		<linearGradient id="SVGID_28_" gradientUnits="userSpaceOnUse" x1="188.1232" y1="199.6438" x2="135.3183" y2="240.3802" gradientTransform="matrix(1 0 0 -1 0 444)">
		<stop  offset="0" style="stop-color:#A1A2A6"/>
		<stop  offset="1" style="stop-color:#C9CACC"/>
	</linearGradient>
	<polygon fill="url(#SVGID_28_)" points="94.3,249.3 169.3,152.5 214.6,193.7 	"/>
	<polygon fill="#1F1C27" points="309.6,383 365.2,396.3 366.7,380.9 	"/>
	<polygon fill="#1E1B24" points="444.3,332.1 435.6,354.9 365.2,396.3 	"/>
	
		<linearGradient id="SVGID_29_" gradientUnits="userSpaceOnUse" x1="368.1018" y1="63.5385" x2="417.6398" y2="85.4983" gradientTransform="matrix(1 0 0 -1 0 444)">
		<stop  offset="0" style="stop-color:#5E5D63"/>
		<stop  offset="0.2767" style="stop-color:#55535A"/>
		<stop  offset="0.7393" style="stop-color:#3C3A42"/>
		<stop  offset="1" style="stop-color:#2B2831"/>
	</linearGradient>
	<polygon fill="url(#SVGID_29_)" points="365.2,396.3 366.7,380.9 444.3,332.1 	"/>
	<polygon fill="#A3A4A8" points="366.6,156.9 332.1,148.9 306.3,202.8 	"/>
	
		<linearGradient id="SVGID_30_" gradientUnits="userSpaceOnUse" x1="172.3546" y1="289.0603" x2="89.0949" y2="274.507" gradientTransform="matrix(1 0 0 -1 0 444)">
		<stop  offset="0" style="stop-color:#706F75"/>
		<stop  offset="1" style="stop-color:#858489"/>
	</linearGradient>
	<polygon fill="url(#SVGID_30_)" points="169.3,152.5 154.5,138.7 55.6,194.7 	"/>
	
		<linearGradient id="SVGID_31_" gradientUnits="userSpaceOnUse" x1="260.4005" y1="316.2235" x2="217.5518" y2="308.7339" gradientTransform="matrix(1 0 0 -1 0 444)">
		<stop  offset="0" style="stop-color:#A5A6AA"/>
		<stop  offset="1" style="stop-color:#B0B1B5"/>
	</linearGradient>
	<polygon fill="url(#SVGID_31_)" points="169.3,152.5 154.5,138.7 267.1,117.8 	"/>
	<polygon fill="#807F84" points="332.1,148.9 294,197.9 306.3,202.8 	"/>
	<polygon fill="#EFF1EE" points="459.4,164.8 366.9,114 414.8,181.9 	"/>
	<polygon fill="#8B8A8F" points="179.1,276.2 223.3,234.6 214.6,193.7 	"/>
	
		<linearGradient id="SVGID_32_" gradientUnits="userSpaceOnUse" x1="215.6396" y1="170.7518" x2="180.7969" y2="213.7867" gradientTransform="matrix(1 0 0 -1 0 444)">
		<stop  offset="0" style="stop-color:#5E5D63"/>
		<stop  offset="0.2767" style="stop-color:#55535A"/>
		<stop  offset="0.7393" style="stop-color:#3C3A42"/>
		<stop  offset="1" style="stop-color:#2B2831"/>
	</linearGradient>
	<polygon fill="url(#SVGID_32_)" points="234.5,277.7 179.1,276.2 223.3,234.6 	"/>
	
		<linearGradient id="SVGID_33_" gradientUnits="userSpaceOnUse" x1="297.2773" y1="189.2047" x2="324.1651" y2="234.5116" gradientTransform="matrix(1 0 0 -1 0 444)">
		<stop  offset="0" style="stop-color:#87868B"/>
		<stop  offset="1" style="stop-color:#78797E"/>
	</linearGradient>
	<polygon fill="url(#SVGID_33_)" points="371.4,227.1 306.3,249.3 254.5,229.6 306.3,202.8 	"/>
	
		<linearGradient id="SVGID_34_" gradientUnits="userSpaceOnUse" x1="459.5754" y1="243.9849" x2="400.6334" y2="320.742" gradientTransform="matrix(1 0 0 -1 0 444)">
		<stop  offset="0" style="stop-color:#A1A2A6"/>
		<stop  offset="1" style="stop-color:#C9CACC"/>
	</linearGradient>
	<polygon fill="url(#SVGID_34_)" points="459.1,164.6 366.6,113.8 362.3,64.5 	"/>
	
		<linearGradient id="SVGID_35_" gradientUnits="userSpaceOnUse" x1="436.9207" y1="322.9501" x2="429.6731" y2="448.0318" gradientTransform="matrix(1 0 0 -1 0 444)">
		<stop  offset="0" style="stop-color:#A1A2A6"/>
		<stop  offset="1" style="stop-color:#C9CACC"/>
	</linearGradient>
	<polygon fill="url(#SVGID_35_)" points="425.7,130 414.7,77.8 448.5,131.3 459.1,164.6 	"/>
	<polygon fill="#BBBFC0" points="414.7,77.8 362.3,64.5 332.7,31.2 	"/>
	<polygon fill="#D2D4D3" points="433.9,108 443.5,81.5 398.9,68.8 414.7,77.8 	"/>
	
		<linearGradient id="SVGID_36_" gradientUnits="userSpaceOnUse" x1="402.0893" y1="382.5106" x2="390.2816" y2="330.3326" gradientTransform="matrix(1 0 0 -1 0 444)">
		<stop  offset="0" style="stop-color:#4E4D55"/>
		<stop  offset="1" style="stop-color:#89888D"/>
	</linearGradient>
	<polygon fill="url(#SVGID_36_)" points="425.7,130 362.3,64.5 414.7,77.8 	"/>
	<polygon fill="#898A8E" points="259.8,52.7 295.5,81.7 277.6,35.7 	"/>
	
		<linearGradient id="SVGID_37_" gradientUnits="userSpaceOnUse" x1="277.6172" y1="382.2875" x2="303.6189" y2="382.2875" gradientTransform="matrix(1 0 0 -1 0 444)">
		<stop  offset="0" style="stop-color:#5E5D63"/>
		<stop  offset="0.4456" style="stop-color:#4A484F"/>
		<stop  offset="1" style="stop-color:#2B2831"/>
	</linearGradient>
	<polygon fill="url(#SVGID_37_)" points="303.5,87.7 295.5,81.7 277.6,35.7 	"/>
	<polygon fill="#F0F2EF" points="366.6,113.8 316.5,54.6 332.7,31.2 362.3,64.5 	"/>
	<polygon fill="#66656B" points="294,197.9 303.5,155 332.1,148.9 	"/>
	
		<linearGradient id="SVGID_38_" gradientUnits="userSpaceOnUse" x1="262.5239" y1="230.338" x2="300.5074" y2="269.3766" gradientTransform="matrix(1 0 0 -1 0 444)">
		<stop  offset="0" style="stop-color:#5E5D63"/>
		<stop  offset="1" style="stop-color:#2B2831"/>
	</linearGradient>
	<polygon fill="url(#SVGID_38_)" points="303.5,155 294,197.9 249.1,234.6 272,206.7 	"/>
	<polygon fill="#626167" points="294,197.9 306.3,202.8 256.4,228.7 	"/>
	<polygon fill="#AEAFB1" points="443.5,81.5 441.6,120.3 433.9,108 	"/>
	
		<linearGradient id="SVGID_39_" gradientUnits="userSpaceOnUse" x1="303.5943" y1="322.6439" x2="319.3678" y2="322.6439" gradientTransform="matrix(1 0 0 -1 0 444)">
		<stop  offset="0" style="stop-color:#3D3C44"/>
		<stop  offset="1" style="stop-color:#35343C"/>
	</linearGradient>
	<polygon fill="url(#SVGID_39_)" points="303.5,155 319.3,121.3 303.5,87.7 	"/>
	
		<linearGradient id="SVGID_40_" gradientUnits="userSpaceOnUse" x1="303.5943" y1="305.8845" x2="341.8004" y2="305.8845" gradientTransform="matrix(1 0 0 -1 0 444)">
		<stop  offset="0" style="stop-color:#5E5D63"/>
		<stop  offset="1" style="stop-color:#2B2831"/>
	</linearGradient>
	<polygon fill="url(#SVGID_40_)" points="303.5,155 319.3,121.3 332.1,148.9 	"/>
	
		<linearGradient id="SVGID_41_" gradientUnits="userSpaceOnUse" x1="366.6391" y1="287.0549" x2="366.6391" y2="287.0549" gradientTransform="matrix(1 0 0 -1 0 444)">
		<stop  offset="0" style="stop-color:#5E5D63"/>
		<stop  offset="1" style="stop-color:#2B2831"/>
	</linearGradient>
	<path fill="url(#SVGID_41_)" d="M366.6,156.9"/>
	
		<linearGradient id="SVGID_42_" gradientUnits="userSpaceOnUse" x1="403.8295" y1="310.6253" x2="371.4872" y2="274.9097" gradientTransform="matrix(1 0 0 -1 0 444)">
		<stop  offset="0" style="stop-color:#706F75"/>
		<stop  offset="1" style="stop-color:#858489"/>
	</linearGradient>
	<polygon fill="url(#SVGID_42_)" points="366.6,113.8 366.6,156.9 414.8,181.9 	"/>
	
		<linearGradient id="SVGID_43_" gradientUnits="userSpaceOnUse" x1="343.7886" y1="331.2616" x2="317.363" y2="302.0798" gradientTransform="matrix(1 0 0 -1 0 444)">
		<stop  offset="0" style="stop-color:#4E4D55"/>
		<stop  offset="1" style="stop-color:#67666C"/>
	</linearGradient>
	<polygon fill="url(#SVGID_43_)" points="332.1,148.9 303.5,87.7 366.6,156.9 	"/>
	<polygon fill="#B1B2B4" points="277.6,35.7 308.2,42.7 286.2,53 	"/>
	
		<linearGradient id="SVGID_44_" gradientUnits="userSpaceOnUse" x1="311.4039" y1="354.4727" x2="309.4969" y2="400.96" gradientTransform="matrix(1 0 0 -1 0 444)">
		<stop  offset="0" style="stop-color:#706F75"/>
		<stop  offset="1" style="stop-color:#9D9EA3"/>
	</linearGradient>
	<polyline fill="url(#SVGID_44_)" points="303.5,87.7 286.2,53 332.7,31.2 316.5,54.6 	"/>
	
		<linearGradient id="SVGID_45_" gradientUnits="userSpaceOnUse" x1="211.9015" y1="293.0196" x2="260.3672" y2="316.9861" gradientTransform="matrix(1 0 0 -1 0 444)">
		<stop  offset="0" style="stop-color:#706F75"/>
		<stop  offset="1" style="stop-color:#9D9EA3"/>
	</linearGradient>
	<polygon fill="url(#SVGID_45_)" points="267.1,117.8 274.3,139.7 169.3,152.5 	"/>
	
		<linearGradient id="SVGID_46_" gradientUnits="userSpaceOnUse" x1="153.3376" y1="287.3389" x2="205.1583" y2="312.9645" gradientTransform="matrix(1 0 0 -1 0 444)">
		<stop  offset="0" style="stop-color:#706F75"/>
		<stop  offset="1" style="stop-color:#9D9EA3"/>
	</linearGradient>
	<polygon fill="url(#SVGID_46_)" points="154.5,138.7 247.4,109.6 267.1,117.8 	"/>
	<polygon fill="#616066" points="204.9,122.9 209.8,115.2 225.9,116.4 	"/>
	<polyline fill="#AAABAF" points="227.8,115.7 236.5,107 246.4,86.5 209.8,115.2 225.9,116.4 	"/>
	
		<linearGradient id="SVGID_47_" gradientUnits="userSpaceOnUse" x1="254.996" y1="368.8147" x2="237.9066" y2="325.5125" gradientTransform="matrix(1 0 0 -1 0 444)">
		<stop  offset="0" style="stop-color:#5E5D63"/>
		<stop  offset="0.2767" style="stop-color:#55535A"/>
		<stop  offset="0.7393" style="stop-color:#3C3A42"/>
		<stop  offset="1" style="stop-color:#2B2831"/>
	</linearGradient>
	<polygon fill="url(#SVGID_47_)" points="247.4,109.6 259.8,52.7 236.5,107 	"/>
	
		<linearGradient id="SVGID_48_" gradientUnits="userSpaceOnUse" x1="291.9114" y1="357.8372" x2="265.9576" y2="292.0737" gradientTransform="matrix(1 0 0 -1 0 444)">
		<stop  offset="0" style="stop-color:#5E5D63"/>
		<stop  offset="1" style="stop-color:#2B2831"/>
	</linearGradient>
	<polygon fill="url(#SVGID_48_)" points="274.3,139.8 267.2,117.8 303.5,87.7 	"/>
	
		<linearGradient id="SVGID_49_" gradientUnits="userSpaceOnUse" x1="256.4925" y1="319.3306" x2="259.3524" y2="362.9758" gradientTransform="matrix(1 0 0 -1 0 444)">
		<stop  offset="0" style="stop-color:#4E4D55"/>
		<stop  offset="1" style="stop-color:#89888D"/>
	</linearGradient>
	<polygon fill="url(#SVGID_49_)" points="247.4,109.6 267.1,117.8 259.8,52.7 	"/>
	
		<linearGradient id="SVGID_50_" gradientUnits="userSpaceOnUse" x1="232.8708" y1="336.1946" x2="240.9467" y2="327.8549" gradientTransform="matrix(1 0 0 -1 0 444)">
		<stop  offset="0" style="stop-color:#706F75"/>
		<stop  offset="1" style="stop-color:#9D9EA3"/>
	</linearGradient>
	<polygon fill="url(#SVGID_50_)" points="227.8,115.7 236.5,107 247.4,109.6 	"/>
	
		<linearGradient id="SVGID_51_" gradientUnits="userSpaceOnUse" x1="299.8353" y1="346.2285" x2="287.6644" y2="291.0406" gradientTransform="matrix(1 0 0 -1 0 444)">
		<stop  offset="0" style="stop-color:#4E4D55"/>
		<stop  offset="1" style="stop-color:#67666C"/>
	</linearGradient>
	<polygon fill="url(#SVGID_51_)" points="303.5,155 274.3,139.7 303.5,87.7 	"/>
	
		<linearGradient id="SVGID_52_" gradientUnits="userSpaceOnUse" x1="282.1826" y1="376.1332" x2="270.6941" y2="324.0386" gradientTransform="matrix(1 0 0 -1 0 444)">
		<stop  offset="0" style="stop-color:#4E4D55"/>
		<stop  offset="1" style="stop-color:#67666C"/>
	</linearGradient>
	<polygon fill="url(#SVGID_52_)" points="267.1,117.8 259.8,52.7 303.5,87.7 268.9,116.3 	"/>
	<polygon fill="#AAABAF" points="414.7,297.9 379.8,263.9 426.6,242.2 	"/>
	<polygon fill="#8A898E" points="363.5,314.7 379.8,263.9 414.7,297.9 	"/>
	<circle fill="#34313A" cx="37.2" cy="148.2" r="3.9"/>
	<circle fill="#1E1C27" cx="20.1" cy="169.5" r="2.7"/>
	<circle fill="#57565E" cx="17.5" cy="246.4" r="8.6"/>
	<circle fill="#CCCDCF" cx="212.7" cy="227" r="2.7"/>
	<polyline fill="none" stroke="#535258" stroke-miterlimit="10" points="434.6,278.8 411.1,338.4 378.6,292.1 	"/>
	<polyline fill="none" stroke="#535258" stroke-miterlimit="10" points="417.2,283.8 377.1,250.3 269.3,268.2 215.3,252.5 	"/>
	<polyline fill="none" stroke="#535258" stroke-miterlimit="10" points="210,227 242.4,231.5 269.3,270.7 	"/>
	<polyline fill="none" stroke="#535258" stroke-miterlimit="10" points="248.1,227 306.5,262 414.6,283.8 	"/>
	<line fill="none" stroke="#535258" stroke-miterlimit="10" x1="159.2" y1="106.8" x2="286.6" y2="107.8"/>
	<line fill="none" stroke="#535258" stroke-miterlimit="10" x1="159.2" y1="106.8" x2="265.2" y2="93.9"/>
	<polyline fill="none" stroke="#535258" stroke-miterlimit="10" points="217.4,99 223.2,92.2 239.6,97 	"/>
	<line fill="none" stroke="#535258" stroke-miterlimit="10" x1="223.2" y1="92.2" x2="268.6" y2="68.8"/>
	<line fill="none" stroke="#535258" stroke-miterlimit="10" x1="256.1" y1="87" x2="247.5" y2="96.1"/>
	<polyline fill="none" stroke="#535258" stroke-miterlimit="10" points="285.3,365.4 318.6,389 277.4,409 334.6,435.6 421,406.1 
		479.1,349.3 	"/>
	<polyline fill="none" stroke="#E2E4E1" stroke-miterlimit="10" points="281.5,363.1 267.9,388.8 313.4,414.5 332.4,388.8 
		345.1,392.5 	"/>
	<polyline fill="none" stroke="#E2E4E1" stroke-miterlimit="10" points="228.1,399.6 277.4,409 337.9,417.6 	"/>
	<line fill="none" stroke="#E2E4E1" stroke-miterlimit="10" x1="228.1" y1="399.6" x2="223.6" y2="342.4"/>
	<polyline fill="none" stroke="#FFFFFF" stroke-miterlimit="10" points="196,125.7 156.7,54.8 245.9,83.1 255,16.4 154.1,54.8 
		154.1,-2.1 81.2,54.8 71.7,79.2 155.5,-2.1 255,14.7 279,36.1 	"/>
	<polyline fill="none" stroke="#FFFFFF" stroke-miterlimit="10" points="154.1,54.8 71.7,79.2 132.1,152.1 	"/>
	<line fill="none" stroke="#FFFFFF" stroke-miterlimit="10" x1="71.7" y1="79.2" x2="118.7" y2="159"/>
	<line fill="none" stroke="#FFFFFF" stroke-miterlimit="10" x1="156.7" y1="54.8" x2="148.9" y2="143.2"/>
	<polyline fill="none" stroke="#FFFFFF" stroke-miterlimit="10" points="473.6,289.3 532.8,253.2 529.8,211.7 	"/>
	<polyline fill="none" stroke="#FFFFFF" stroke-miterlimit="10" points="530.1,209.9 487.1,114.8 539.7,191.5 	"/>
	<polyline fill="none" stroke="#FFFFFF" stroke-miterlimit="10" points="440.9,92.2 487.1,114.8 479.1,128.1 437.3,98.4 
		438.1,119.8 479.1,128.1 473.7,178.3 455.2,148.2 479.1,128.1 530.1,209.9 	"/>
	<line fill="none" stroke="#FFFFFF" stroke-miterlimit="10" x1="530.1" y1="212.5" x2="473.6" y2="265.5"/>
	<line fill="none" stroke="#FFFFFF" stroke-miterlimit="10" x1="530.1" y1="212.5" x2="468" y2="212.5"/>
	<line fill="none" stroke="#FFFFFF" stroke-miterlimit="10" x1="479.1" y1="128.1" x2="438.7" y2="125.1"/>
	<polyline fill="none" stroke="#535258" stroke-miterlimit="10" points="378.6,292.1 372.7,292.1 269.3,270.7 287.4,320.5 
		351.7,345.3 378.6,292.1 417.2,283.8 412.8,336.1 342.6,415.9 346.1,415.9 438.1,381.1 411.1,338.4 351.7,345.3 342.4,412 
		338.8,415.9 318.6,389 287.4,320.5 285.3,365.4 	"/>
	<polyline fill="none" stroke="#535258" stroke-miterlimit="10" points="287.4,320.5 215.3,252.5 217.4,277.8 155.2,262.8 
		212.7,227 270.1,207.6 212.7,180.9 68,216.8 152.8,262.8 114.4,313.1 66.4,216.8 20.7,246.4 114.4,313.1 	"/>
	<line fill="none" stroke="#535258" stroke-miterlimit="10" x1="521" y1="241.8" x2="473.6" y2="267.3"/>
	<polyline fill="none" stroke="#535258" stroke-miterlimit="10" points="417.2,283.8 473.6,267.3 438.1,381.1 479.1,348.3 
		487.4,259.9 473.6,267.3 453,250.3 377.1,250.3 386.4,170.1 435.9,208.7 396.7,125.1 487.1,198 453,250.3 435.9,208.7 487.1,198 
		521,241.8 	"/>
	<polyline fill="none" stroke="#535258" stroke-miterlimit="10" points="244.2,346.3 155.2,262.8 217.4,277.8 241.7,339.1 
		285.3,365.4 256.7,386.7 	"/>
	<polyline fill="none" stroke="#535258" stroke-miterlimit="10" points="487.1,198 483.2,159.4 458,96.1 458.6,153.7 487.1,200.3 	
		"/>
	<line fill="none" stroke="#535258" stroke-miterlimit="10" x1="375.6" y1="250.2" x2="435.9" y2="208.7"/>
	<polyline fill="none" stroke="#535258" stroke-miterlimit="10" points="378.6,252.5 311.9,210.1 386.4,171.8 396.7,125.1 
		403.2,70.3 458.6,156 	"/>
	<polyline fill="none" stroke="#535258" stroke-miterlimit="10" points="386.4,171.8 333.9,81.4 350.5,156.4 314.9,205.4 248.1,227 
		215.3,252.5 	"/>
	<polyline fill="none" stroke="#535258" stroke-miterlimit="10" points="17.5,241.4 20.1,166.9 37.2,148.2 17.5,246.4 	"/>
	<polygon fill="none" stroke="#535258" stroke-miterlimit="10" points="39.4,148.2 159.2,106.8 170.5,123.9 	"/>
	<polyline fill="none" stroke="#535258" stroke-miterlimit="10" points="39.4,151.3 66.4,216.8 170.5,123.9 212.7,179.3 
		290.2,132.4 270.1,207.6 	"/>
	<polyline fill="none" stroke="#535258" stroke-miterlimit="10" points="352.6,156.4 319.8,156.4 298.4,200.3 350.5,156.4 	"/>
	<polyline fill="none" stroke="#535258" stroke-miterlimit="10" points="311.9,208.9 298.4,200.3 250.4,227 	"/>
	<polyline fill="none" stroke="#535258" stroke-miterlimit="10" points="342.9,122.1 319.8,156.4 333.9,81.4 290.2,132.4 
		317.1,156.4 270.1,207.6 	"/>
	<polyline fill="none" stroke="#535258" stroke-miterlimit="10" points="396.7,125.1 353.9,47.9 333.9,83.1 288.3,107.8 
		290.2,132.4 170.5,123.9 284.9,107.8 265.2,93.9 255,88.6 292.2,34.4 265.2,93.9 	"/>
	<polyline fill="none" stroke="#535258" stroke-miterlimit="10" points="156.7,263.7 210.8,181.7 214.2,227.8 215.3,254.8 	"/>
	<polyline fill="none" stroke="#535258" stroke-miterlimit="10" points="277.4,409 289.7,368.5 272.3,400.4 277.4,409 	"/>
	<polyline fill="none" stroke="#535258" stroke-miterlimit="10" points="240.8,353.1 232.7,363.1 274.2,373.7 	"/>
	<polyline fill="none" stroke="#535258" stroke-miterlimit="10" points="233.4,363.1 256.7,386.7 272.3,400.4 	"/>
	<polyline fill="none" stroke="#535258" stroke-miterlimit="10" points="285.3,365.4 245.5,348.3 115.2,313.1 334.6,435.6 
		338.8,421.3 	"/>
	<polyline fill="none" stroke="#535258" stroke-miterlimit="10" points="337.9,434.4 438.1,381.1 421,406.1 	"/>
	<line fill="none" stroke="#535258" stroke-miterlimit="10" x1="233.4" y1="364.5" x2="232.7" y2="344.7"/>
	<polyline fill="none" stroke="#535258" stroke-miterlimit="10" points="286.6,107.8 292.2,36.1 332.6,82.3 316.9,18.6 346.2,32.8 
		375.3,27.7 353.9,47.9 	"/>
	<polygon fill="none" stroke="#535258" stroke-miterlimit="10" points="403.2,70.3 378,29.2 456.9,94.5 	"/>
	<polyline fill="none" stroke="#535258" stroke-miterlimit="10" points="440.4,80.8 487.1,103.4 472.5,132.7 	"/>
	<line fill="none" stroke="#535258" stroke-miterlimit="10" x1="488.5" y1="106" x2="477.8" y2="146"/>
	<line fill="none" stroke="#535258" stroke-miterlimit="10" x1="346.2" y1="32.8" x2="321.9" y2="38.9"/>
	<polyline fill="none" stroke="#535258" stroke-miterlimit="10" points="324.1,72.7 316.9,18.6 292.2,34.4 	"/>
	<polyline fill="none" stroke="#E2E4E1" stroke-miterlimit="10" points="176.7,327.2 181.1,347.3 197.7,335.4 228.1,399.6 
		229.4,332.4 	"/>
	<line fill="none" stroke="#E2E4E1" stroke-miterlimit="10" x1="228.1" y1="399.6" x2="307.5" y2="378.5"/>
	<circle fill="#35343A" cx="244.2" cy="346.3" r="7.6"/>
	<circle fill="#5A5961" cx="233.4" cy="363.1" r="2.3"/>
	<circle fill="#5A5961" cx="256.7" cy="386.7" r="2.3"/>
	<circle fill="#B2B3B5" cx="228.1" cy="399.6" r="3.3"/>
	<circle fill="#B2B3B5" cx="182.8" cy="347.3" r="1.7"/>
	<circle fill="#3F3E46" cx="378.6" cy="292.1" r="5.9"/>
	<circle fill="#FAFCF7" cx="351.7" cy="345.3" r="3"/>
	<circle fill="#D6D8D5" cx="411.1" cy="338.4" r="4.2"/>
	<circle fill="#201D28" cx="377.1" cy="250.3" r="3.9"/>
	<circle fill="#201D28" cx="417.2" cy="283.8" r="2.7"/>
	<circle fill="#201D28" cx="473.6" cy="267.3" r="1.8"/>
	<circle fill="#FBFBF9" cx="453" cy="250.3" r="2.2"/>
	<circle fill="#1D1A25" cx="386.4" cy="171.8" r="3.6"/>
	<circle fill="#36333C" cx="311.9" cy="208.9" r="7.9"/>
	<circle fill="#F2F4F3" cx="319.8" cy="156.4" r="2.7"/>
	<circle fill="#211E29" cx="287.4" cy="320.5" r="2.2"/>
	<circle fill="#FBFBF9" cx="217.4" cy="277.8" r="2.2"/>
	<circle fill="#FBFBF9" cx="269.3" cy="270.7" r="2.5"/>
	<circle fill="#201D28" cx="270.1" cy="207.6" r="2.3"/>
	<circle fill="#1F1C27" cx="487.1" cy="200.3" r="2.4"/>
	<circle fill="#1F1C27" cx="435.9" cy="208.7" r="1.4"/>
	<circle fill="#1F1C27" cx="350.5" cy="156.4" r="2.2"/>
	<circle fill="#1F1C27" cx="458.6" cy="156" r="2.2"/>
	<circle fill="#3A3941" cx="483.2" cy="159.4" r="1.6"/>
	<circle fill="#403E49" cx="458" cy="96.1" r="3.9"/>
	<circle fill="#403E49" cx="489.1" cy="104.6" r="6.1"/>
	<circle fill="#1D1A25" cx="155.2" cy="262.8" r="3.9"/>
	<circle fill="#1D1A25" cx="114.4" cy="313.1" r="2.3"/>
	<circle fill="#1D1A25" cx="333.9" cy="83.1" r="3.9"/>
	<circle fill="#1D1A25" cx="290.2" cy="132.4" r="2"/>
	<circle fill="#221F2A" cx="286.6" cy="107.8" r="1.7"/>
	<circle fill="#221F2A" cx="255" cy="88.6" r="2.7"/>
	<circle fill="#221F2A" cx="223.2" cy="92.2" r="1.8"/>
	<circle fill="#23202B" cx="340.5" cy="417.6" r="5.9"/>
	<circle fill="#23202B" cx="334.6" cy="435.6" r="4.2"/>
	<circle fill="#333039" cx="479.1" cy="349.3" r="3.9"/>
	<circle fill="#1E1B26" cx="438.1" cy="381.1" r="2.7"/>
	<path fill="#1E1B26" d="M422.9,406.1c0,1.1-0.9,2-2,2s-2-0.9-2-2s0.9,0,2,0C422,406.1,422.9,405,422.9,406.1z"/>
	<circle fill="#1E1B26" cx="277.4" cy="409" r="2.3"/>
	<circle fill="#6D6C74" cx="212.7" cy="180.9" r="3.5"/>
	<circle fill="#4B4A50" cx="170.5" cy="123.9" r="5.9"/>
	<circle fill="#4B4A50" cx="159.2" cy="106.8" r="2.5"/>
	<circle fill="#201D28" cx="248.1" cy="227" r="2.3"/>
	<circle fill="#201D28" cx="215.3" cy="252.5" r="2.3"/>
	<circle fill="#525157" cx="292.2" cy="34.4" r="1.7"/>
	<circle fill="#FFFFFF" cx="265.2" cy="93.9" r="2.2"/>
	<circle fill="#FBFBF9" cx="396.7" cy="125.1" r="3"/>
	<line fill="none" stroke="#FFFFFF" stroke-miterlimit="10" x1="541.2" y1="192.6" x2="532.8" y2="253.2"/>
</g>
<g id="Layer_3" opacity="0.51">
</g>
</svg>
