<?xml version="1.0" encoding="utf-8"?>
<!-- Generator: Adobe Illustrator 18.1.1, SVG Export Plug-In . SVG Version: 6.00 Build 0)  -->
<svg version="1.1" xmlns="http://www.w3.org/2000/svg" xmlns:xlink="http://www.w3.org/1999/xlink" x="0px" y="0px"
	 viewBox="0 0 800 600" enable-background="new 0 0 800 600" xml:space="preserve">
<g id="Layer_2">
	<circle fill="#FBFBF9" cx="671.3" cy="274.7" r="4"/>
	<circle fill="#FBFBF9" cx="659.7" cy="294" r="2.7"/>
</g>
<g id="Layer_1">
	<linearGradient id="SVGID_1_" gradientUnits="userSpaceOnUse" x1="456.75" y1="411" x2="456.75" y2="354">
		<stop  offset="0" style="stop-color:#5E5D63"/>
		<stop  offset="1" style="stop-color:#47464E"/>
	</linearGradient>
	<polyline fill="url(#SVGID_1_)" points="491,398.5 431.5,389 406,347 507.5,347 491,398.5 	"/>
	<polygon fill="#1F1C27" points="431.5,389 436.2,427 470.2,443.5 	"/>
	<linearGradient id="SVGID_2_" gradientUnits="userSpaceOnUse" x1="435.9603" y1="442.4349" x2="490.7775" y2="411.725">
		<stop  offset="0" style="stop-color:#5E5D63"/>
		<stop  offset="1" style="stop-color:#2B2831"/>
	</linearGradient>
	<polygon fill="url(#SVGID_2_)" points="494.3,465.7 470.2,443.5 431.5,389 491,398.5 	"/>
	<linearGradient id="SVGID_3_" gradientUnits="userSpaceOnUse" x1="464.9604" y1="447.605" x2="511.509" y2="421.5274">
		<stop  offset="0" style="stop-color:#A9AAAE"/>
		<stop  offset="1" style="stop-color:#BCC0C1"/>
	</linearGradient>
	<polyline fill="url(#SVGID_3_)" points="543,381.5 494.3,465.7 491,398.5 543,381.5 	"/>
	<polygon fill="#5E5D63" points="406,347 433,332.2 539.3,332.2 507.5,347 	"/>
	<linearGradient id="SVGID_4_" gradientUnits="userSpaceOnUse" x1="531.2935" y1="431.8687" x2="562.2729" y2="452.1963">
		<stop  offset="0" style="stop-color:#4E4D55"/>
		<stop  offset="1" style="stop-color:#67666C"/>
	</linearGradient>
	<polygon fill="url(#SVGID_4_)" points="494.3,465.7 543,381.5 573,416.2 	"/>
	<linearGradient id="SVGID_5_" gradientUnits="userSpaceOnUse" x1="560.8328" y1="348.845" x2="591.6386" y2="369.0588">
		<stop  offset="0" style="stop-color:#706F75"/>
		<stop  offset="1" style="stop-color:#858489"/>
	</linearGradient>
	<polygon fill="url(#SVGID_5_)" points="573,416.2 543,381.5 555,325 588,307.2 	"/>
	<polygon fill="#57565C" points="441.2,429.4 436.3,467.8 470.2,443.5 	"/>
	<polygon fill="#1E1B26" points="431.5,459.8 436.3,467.8 441.2,429.4 	"/>
	<polygon fill="#1E1B26" points="391.5,435 414.5,451 427.2,436.8 	"/>
	<polygon fill="#1E1B26" points="387,417.5 391.5,435 396.2,417.5 	"/>
	<linearGradient id="SVGID_6_" gradientUnits="userSpaceOnUse" x1="417.5547" y1="443.905" x2="411.3273" y2="422.0651">
		<stop  offset="0" style="stop-color:#5E5D63"/>
		<stop  offset="0.4456" style="stop-color:#4A484F"/>
		<stop  offset="1" style="stop-color:#2B2831"/>
	</linearGradient>
	<polygon fill="url(#SVGID_6_)" points="427.2,436.8 391.5,435 396.2,417.5 436.2,427 	"/>
	<linearGradient id="SVGID_7_" gradientUnits="userSpaceOnUse" x1="459.3285" y1="480.0972" x2="471.7122" y2="452.5712">
		<stop  offset="0" style="stop-color:#5E5D63"/>
		<stop  offset="0.2767" style="stop-color:#55535A"/>
		<stop  offset="0.7393" style="stop-color:#3C3A42"/>
		<stop  offset="1" style="stop-color:#2B2831"/>
	</linearGradient>
	<polygon fill="url(#SVGID_7_)" points="494.3,465.7 470.2,443.5 436.3,467.8 	"/>
	<linearGradient id="SVGID_8_" gradientUnits="userSpaceOnUse" x1="414.5" y1="443.4167" x2="441.2154" y2="443.4167">
		<stop  offset="0" style="stop-color:#5E5D63"/>
		<stop  offset="0.2767" style="stop-color:#55535A"/>
		<stop  offset="0.7393" style="stop-color:#3C3A42"/>
		<stop  offset="1" style="stop-color:#2B2831"/>
	</linearGradient>
	<polygon fill="url(#SVGID_8_)" points="431.5,459.8 414.5,451 436.2,427 441.2,429.4 	"/>
	<linearGradient id="SVGID_9_" gradientUnits="userSpaceOnUse" x1="416.1992" y1="446.4244" x2="396.7573" y2="378.2405">
		<stop  offset="0" style="stop-color:#7B7A80"/>
		<stop  offset="0.7789" style="stop-color:#66656B"/>
		<stop  offset="1" style="stop-color:#5F5E64"/>
	</linearGradient>
	<polygon fill="url(#SVGID_9_)" points="436.2,427 360.2,361 431.5,389 	"/>
	<polyline fill="#727177" points="606,380.2 573,416.2 564.2,439.3 606,380.2 	"/>
	<linearGradient id="SVGID_10_" gradientUnits="userSpaceOnUse" x1="591.9412" y1="379.4661" x2="596.2033" y2="346.7425">
		<stop  offset="0" style="stop-color:#A9AAAE"/>
		<stop  offset="1" style="stop-color:#BCC0C1"/>
	</linearGradient>
	<polyline fill="url(#SVGID_10_)" points="606,380.2 573,416.2 588,307.2 598.8,298.8 	"/>
	<linearGradient id="SVGID_11_" gradientUnits="userSpaceOnUse" x1="390.6042" y1="452.3818" x2="396.9287" y2="403.8244">
		<stop  offset="0" style="stop-color:#5E5D63"/>
		<stop  offset="0.2767" style="stop-color:#55535A"/>
		<stop  offset="0.7393" style="stop-color:#3C3A42"/>
		<stop  offset="1" style="stop-color:#2B2831"/>
	</linearGradient>
	<polygon fill="url(#SVGID_11_)" points="436.2,427 396.2,417.5 360.2,361 	"/>
	<linearGradient id="SVGID_12_" gradientUnits="userSpaceOnUse" x1="387.9071" y1="405.3336" x2="392.3509" y2="371.2155">
		<stop  offset="0" style="stop-color:#5E5D63"/>
		<stop  offset="0.2767" style="stop-color:#55535A"/>
		<stop  offset="0.7393" style="stop-color:#3C3A42"/>
		<stop  offset="1" style="stop-color:#2B2831"/>
	</linearGradient>
	<polygon fill="url(#SVGID_12_)" points="431.5,389 360.2,361 355,339.6 	"/>
	<linearGradient id="SVGID_13_" gradientUnits="userSpaceOnUse" x1="383.842" y1="345.49" x2="412.7578" y2="364.136">
		<stop  offset="0" style="stop-color:#706F75"/>
		<stop  offset="1" style="stop-color:#858489"/>
	</linearGradient>
	<polygon fill="url(#SVGID_13_)" points="431.5,389 355,339.6 406,347 	"/>
	<linearGradient id="SVGID_14_" gradientUnits="userSpaceOnUse" x1="372.1374" y1="403.5337" x2="344.1719" y2="373.3133">
		<stop  offset="0" style="stop-color:#5E5D63"/>
		<stop  offset="1" style="stop-color:#47464E"/>
	</linearGradient>
	<polygon fill="url(#SVGID_14_)" points="396.2,417.5 304,359.5 360.2,361 	"/>
	<linearGradient id="SVGID_15_" gradientUnits="userSpaceOnUse" x1="484.6895" y1="351.3239" x2="486.8816" y2="323.1455">
		<stop  offset="0" style="stop-color:#5E5D63"/>
		<stop  offset="1" style="stop-color:#47464E"/>
	</linearGradient>
	<polygon fill="url(#SVGID_15_)" points="433,332.2 499,309.7 539.3,332.2 	"/>
	<linearGradient id="SVGID_16_" gradientUnits="userSpaceOnUse" x1="361.0982" y1="342.8878" x2="377.8351" y2="336.7849">
		<stop  offset="0" style="stop-color:#5E5D63"/>
		<stop  offset="1" style="stop-color:#47464E"/>
	</linearGradient>
	<polygon fill="url(#SVGID_16_)" points="406,347 375,317.3 355,339.6 	"/>
	<polygon fill="#F0F2EF" points="294,234 340,275.8 400.5,221 	"/>
	<linearGradient id="SVGID_17_" gradientUnits="userSpaceOnUse" x1="404.3609" y1="250.8225" x2="419.2068" y2="221.0709">
		<stop  offset="0" style="stop-color:#5E5D63"/>
		<stop  offset="0.2767" style="stop-color:#55535A"/>
		<stop  offset="0.7393" style="stop-color:#3C3A42"/>
		<stop  offset="1" style="stop-color:#2B2831"/>
	</linearGradient>
	<polygon fill="url(#SVGID_17_)" points="397,291 400.5,221 430.2,236.5 	"/>
	<polygon fill="#A6A7AB" points="406,347 375,317.3 380.5,312.2 433,332.2 	"/>
	<linearGradient id="SVGID_18_" gradientUnits="userSpaceOnUse" x1="513.5992" y1="281.2099" x2="566.9793" y2="320.8686">
		<stop  offset="0" style="stop-color:#706F75"/>
		<stop  offset="1" style="stop-color:#858489"/>
	</linearGradient>
	<polygon fill="url(#SVGID_18_)" points="499,309.7 543,263.8 565.5,297 	"/>
	<polygon fill="#F9FBF6" points="499,309.7 494.2,238.5 433,285 	"/>
	<polygon fill="#B8BCBD" points="543,263.8 499,309.7 494.2,238.5 	"/>
	<linearGradient id="SVGID_19_" gradientUnits="userSpaceOnUse" x1="564.0415" y1="246.777" x2="571.8619" y2="291.0923">
		<stop  offset="0" style="stop-color:#A5A6AA"/>
		<stop  offset="1" style="stop-color:#B0B1B5"/>
	</linearGradient>
	<polygon fill="url(#SVGID_19_)" points="565.5,297 543,263.8 588,246.3 	"/>
	<linearGradient id="SVGID_20_" gradientUnits="userSpaceOnUse" x1="584.6167" y1="297.7428" x2="615.6097" y2="247.2453">
		<stop  offset="0" style="stop-color:#76757B"/>
		<stop  offset="1" style="stop-color:#97989C"/>
	</linearGradient>
	<polyline fill="url(#SVGID_20_)" points="624.8,278.2 588,307.2 565.5,297 588,246.3 624.8,278.2 	"/>
	<linearGradient id="SVGID_21_" gradientUnits="userSpaceOnUse" x1="256.1346" y1="318.2629" x2="270.9601" y2="402.2739">
		<stop  offset="0" style="stop-color:#4E4D55"/>
		<stop  offset="1" style="stop-color:#89888D"/>
	</linearGradient>
	<polygon fill="url(#SVGID_21_)" points="304,359.5 275.8,410.5 218,332.2 	"/>
	<linearGradient id="SVGID_22_" gradientUnits="userSpaceOnUse" x1="343.9468" y1="469.0734" x2="326.7375" y2="349.8086">
		<stop  offset="0" style="stop-color:#5E5D63"/>
		<stop  offset="0.2767" style="stop-color:#55535A"/>
		<stop  offset="0.7393" style="stop-color:#3C3A42"/>
		<stop  offset="1" style="stop-color:#2B2831"/>
	</linearGradient>
	<polygon fill="url(#SVGID_22_)" points="275.8,410.5 304,359.5 396.2,417.5 	"/>
	<linearGradient id="SVGID_23_" gradientUnits="userSpaceOnUse" x1="212.4572" y1="349.7295" x2="236.0735" y2="413.5347">
		<stop  offset="0" style="stop-color:#4E4D55"/>
		<stop  offset="1" style="stop-color:#5B5A60"/>
	</linearGradient>
	<polygon fill="url(#SVGID_23_)" points="275.8,410.5 178.7,368.7 218,332.2 	"/>
	<polygon fill="#8F9094" points="494.2,238.5 430.2,168.3 443.3,134.7 494.2,194.7 	"/>
	<polyline fill="#5C5B61" points="539.3,332.2 499,309.7 565.5,297 588,307.2 539.3,333.5 	"/>
	<linearGradient id="SVGID_24_" gradientUnits="userSpaceOnUse" x1="204.7154" y1="290.5045" x2="172.8188" y2="360.3476">
		<stop  offset="0" style="stop-color:#4E4D55"/>
		<stop  offset="1" style="stop-color:#89888D"/>
	</linearGradient>
	<polygon fill="url(#SVGID_24_)" points="178.7,368.7 178.7,276.8 218,332.2 	"/>
	<polygon fill="#44434B" points="178.7,276.8 168,298.7 178.7,368.7 	"/>
	<polygon fill="#CED0CF" points="304,359.5 218,332.2 340,275.8 	"/>
	<linearGradient id="SVGID_25_" gradientUnits="userSpaceOnUse" x1="247.6156" y1="317.7688" x2="239.4281" y2="272.5047">
		<stop  offset="0" style="stop-color:#919296"/>
		<stop  offset="1" style="stop-color:#A3A4A8"/>
	</linearGradient>
	<polygon fill="url(#SVGID_25_)" points="218,332.2 178.7,276.8 294,234 	"/>
	<linearGradient id="SVGID_26_" gradientUnits="userSpaceOnUse" x1="372.1218" y1="303.3976" x2="360.6988" y2="240.2469">
		<stop  offset="0" style="stop-color:#5E5D63"/>
		<stop  offset="0.2767" style="stop-color:#55535A"/>
		<stop  offset="0.7393" style="stop-color:#3C3A42"/>
		<stop  offset="1" style="stop-color:#2B2831"/>
	</linearGradient>
	<polygon fill="url(#SVGID_26_)" points="397,291 340,275.8 348.8,317.3 	"/>
	<polygon fill="#414048" points="375,317.3 348.8,317.3 397,291 	"/>
	<polygon fill="#2A2730" points="355,339.6 348.8,317.3 375,317.3 	"/>
	<linearGradient id="SVGID_27_" gradientUnits="userSpaceOnUse" x1="363.3355" y1="238.9252" x2="399.0614" y2="287.7505">
		<stop  offset="0" style="stop-color:#98979D"/>
		<stop  offset="1" style="stop-color:#A8A9AD"/>
	</linearGradient>
	<polygon fill="url(#SVGID_27_)" points="397,291 340,275.8 400.5,221 	"/>
	<linearGradient id="SVGID_28_" gradientUnits="userSpaceOnUse" x1="313.1291" y1="327.1556" x2="259.566" y2="285.8343">
		<stop  offset="0" style="stop-color:#A1A2A6"/>
		<stop  offset="1" style="stop-color:#C9CACC"/>
	</linearGradient>
	<polygon fill="url(#SVGID_28_)" points="218,332.2 294,234 340,275.8 	"/>
	<polygon fill="#1F1C27" points="436.3,467.8 492.7,481.3 494.3,465.7 	"/>
	<polygon fill="#1E1B24" points="573,416.2 564.2,439.3 492.7,481.3 	"/>
	<linearGradient id="SVGID_29_" gradientUnits="userSpaceOnUse" x1="495.6964" y1="465.2542" x2="545.9456" y2="442.9791">
		<stop  offset="0" style="stop-color:#5E5D63"/>
		<stop  offset="0.2767" style="stop-color:#55535A"/>
		<stop  offset="0.7393" style="stop-color:#3C3A42"/>
		<stop  offset="1" style="stop-color:#2B2831"/>
	</linearGradient>
	<polygon fill="url(#SVGID_29_)" points="492.7,481.3 494.3,465.7 573,416.2 	"/>
	<polygon fill="#A3A4A8" points="494.2,238.5 459.2,230.3 433,285 	"/>
	<linearGradient id="SVGID_30_" gradientUnits="userSpaceOnUse" x1="297.1248" y1="236.4589" x2="212.6697" y2="251.2211">
		<stop  offset="0" style="stop-color:#706F75"/>
		<stop  offset="1" style="stop-color:#858489"/>
	</linearGradient>
	<polygon fill="url(#SVGID_30_)" points="294,234 279,220 178.7,276.8 	"/>
	<linearGradient id="SVGID_31_" gradientUnits="userSpaceOnUse" x1="386.4326" y1="208.8925" x2="342.9687" y2="216.4897">
		<stop  offset="0" style="stop-color:#A5A6AA"/>
		<stop  offset="1" style="stop-color:#B0B1B5"/>
	</linearGradient>
	<polygon fill="url(#SVGID_31_)" points="294,234 279,220 393.2,198.8 	"/>
	<polygon fill="#807F84" points="459.2,230.3 420.5,280 433,285 	"/>
	<polygon fill="#EFF1EE" points="588.3,246.5 494.5,194.9 543.1,263.8 	"/>
	<polygon fill="#8B8A8F" points="304,359.5 348.8,317.3 340,275.8 	"/>
	<linearGradient id="SVGID_32_" gradientUnits="userSpaceOnUse" x1="341.0092" y1="356.4917" x2="305.6663" y2="312.8389">
		<stop  offset="0" style="stop-color:#5E5D63"/>
		<stop  offset="0.2767" style="stop-color:#55535A"/>
		<stop  offset="0.7393" style="stop-color:#3C3A42"/>
		<stop  offset="1" style="stop-color:#2B2831"/>
	</linearGradient>
	<polygon fill="url(#SVGID_32_)" points="360.2,361 304,359.5 348.8,317.3 	"/>
	<linearGradient id="SVGID_33_" gradientUnits="userSpaceOnUse" x1="423.846" y1="337.7572" x2="451.1198" y2="291.7998">
		<stop  offset="0" style="stop-color:#87868B"/>
		<stop  offset="1" style="stop-color:#78797E"/>
	</linearGradient>
	<polygon fill="url(#SVGID_33_)" points="499,309.7 433,332.2 380.5,312.2 433,285 	"/>
	<linearGradient id="SVGID_34_" gradientUnits="userSpaceOnUse" x1="588.4863" y1="282.1763" x2="528.6981" y2="204.3171">
		<stop  offset="0" style="stop-color:#A1A2A6"/>
		<stop  offset="1" style="stop-color:#C9CACC"/>
	</linearGradient>
	<polygon fill="url(#SVGID_34_)" points="588,246.3 494.2,194.7 489.8,144.7 	"/>
	<linearGradient id="SVGID_35_" gradientUnits="userSpaceOnUse" x1="565.4883" y1="202.0895" x2="558.1366" y2="75.2119">
		<stop  offset="0" style="stop-color:#A1A2A6"/>
		<stop  offset="1" style="stop-color:#C9CACC"/>
	</linearGradient>
	<polygon fill="url(#SVGID_35_)" points="554.1,211.2 543,158.2 577.2,212.5 588,246.3 	"/>
	<polygon fill="#BBBFC0" points="543,158.2 489.8,144.7 459.8,111 	"/>
	<polygon fill="#D2D4D3" points="562.4,188.9 572.2,162 526.9,149.1 543,158.2 	"/>
	<linearGradient id="SVGID_36_" gradientUnits="userSpaceOnUse" x1="530.1532" y1="141.6724" x2="518.176" y2="194.5996">
		<stop  offset="0" style="stop-color:#4E4D55"/>
		<stop  offset="1" style="stop-color:#89888D"/>
	</linearGradient>
	<polygon fill="url(#SVGID_36_)" points="554.1,211.2 489.8,144.7 543,158.2 	"/>
	<polygon fill="#898A8E" points="385.8,132.8 422,162.2 403.9,115.5 	"/>
	<linearGradient id="SVGID_37_" gradientUnits="userSpaceOnUse" x1="403.875" y1="141.9167" x2="430.25" y2="141.9167">
		<stop  offset="0" style="stop-color:#5E5D63"/>
		<stop  offset="0.4456" style="stop-color:#4A484F"/>
		<stop  offset="1" style="stop-color:#2B2831"/>
	</linearGradient>
	<polygon fill="url(#SVGID_37_)" points="430.2,168.3 422,162.2 403.9,115.5 	"/>
	<polygon fill="#F0F2EF" points="494.2,194.7 443.3,134.7 459.8,111 489.8,144.7 	"/>
	<polygon fill="#66656B" points="420.5,280 430.2,236.5 459.2,230.3 	"/>
	<linearGradient id="SVGID_38_" gradientUnits="userSpaceOnUse" x1="388.6028" y1="296.0437" x2="427.1316" y2="256.4446">
		<stop  offset="0" style="stop-color:#5E5D63"/>
		<stop  offset="1" style="stop-color:#2B2831"/>
	</linearGradient>
	<polygon fill="url(#SVGID_38_)" points="430.2,236.5 420.5,280 375,317.3 398.2,289 	"/>
	<polygon fill="#626167" points="420.5,280 433,285 382.4,311.3 	"/>
	<polygon fill="#AEAFB1" points="572.2,162 570.2,201.3 562.4,188.9 	"/>
	<linearGradient id="SVGID_39_" gradientUnits="userSpaceOnUse" x1="430.25" y1="202.4167" x2="446.25" y2="202.4167">
		<stop  offset="0" style="stop-color:#3D3C44"/>
		<stop  offset="1" style="stop-color:#35343C"/>
	</linearGradient>
	<polygon fill="url(#SVGID_39_)" points="430.2,236.5 446.2,202.3 430.2,168.3 	"/>
	<linearGradient id="SVGID_40_" gradientUnits="userSpaceOnUse" x1="430.25" y1="219.3958" x2="469.0047" y2="219.3958">
		<stop  offset="0" style="stop-color:#5E5D63"/>
		<stop  offset="1" style="stop-color:#2B2831"/>
	</linearGradient>
	<polygon fill="url(#SVGID_40_)" points="430.2,236.5 446.2,202.3 459.2,230.3 	"/>
	<linearGradient id="SVGID_41_" gradientUnits="userSpaceOnUse" x1="494.25" y1="238.5" x2="494.25" y2="238.5">
		<stop  offset="0" style="stop-color:#5E5D63"/>
		<stop  offset="1" style="stop-color:#2B2831"/>
	</linearGradient>
	<path fill="url(#SVGID_41_)" d="M494.2,238.5"/>
	<linearGradient id="SVGID_42_" gradientUnits="userSpaceOnUse" x1="531.9242" y1="214.591" x2="499.1176" y2="250.8194">
		<stop  offset="0" style="stop-color:#706F75"/>
		<stop  offset="1" style="stop-color:#858489"/>
	</linearGradient>
	<polygon fill="url(#SVGID_42_)" points="494.2,194.7 494.2,238.5 543.1,263.8 	"/>
	<linearGradient id="SVGID_43_" gradientUnits="userSpaceOnUse" x1="471.0572" y1="193.6909" x2="444.2522" y2="223.2917">
		<stop  offset="0" style="stop-color:#4E4D55"/>
		<stop  offset="1" style="stop-color:#67666C"/>
	</linearGradient>
	<polygon fill="url(#SVGID_43_)" points="459.2,230.3 430.2,168.3 494.2,238.5 	"/>
	<polygon fill="#B1B2B4" points="403.9,115.5 434.9,122.6 412.6,133.1 	"/>
	<linearGradient id="SVGID_44_" gradientUnits="userSpaceOnUse" x1="438.2087" y1="170.1127" x2="436.2743" y2="122.9579">
		<stop  offset="0" style="stop-color:#706F75"/>
		<stop  offset="1" style="stop-color:#9D9EA3"/>
	</linearGradient>
	<polyline fill="url(#SVGID_44_)" points="430.2,168.3 412.6,133.1 459.8,111 443.3,134.7 	"/>
	<linearGradient id="SVGID_45_" gradientUnits="userSpaceOnUse" x1="337.2407" y1="232.4497" x2="386.4023" y2="208.139">
		<stop  offset="0" style="stop-color:#706F75"/>
		<stop  offset="1" style="stop-color:#9D9EA3"/>
	</linearGradient>
	<polygon fill="url(#SVGID_45_)" points="393.2,198.8 400.5,221 294,234 	"/>
	<linearGradient id="SVGID_46_" gradientUnits="userSpaceOnUse" x1="277.831" y1="238.2017" x2="330.3957" y2="212.2082">
		<stop  offset="0" style="stop-color:#706F75"/>
		<stop  offset="1" style="stop-color:#9D9EA3"/>
	</linearGradient>
	<polygon fill="url(#SVGID_46_)" points="279,220 373.2,190.5 393.2,198.8 	"/>
	<polygon fill="#616066" points="330.1,204 335.1,196.2 351.4,197.4 	"/>
	<polyline fill="#AAABAF" points="353.4,196.7 362.2,187.8 372.2,167 335.1,196.2 351.4,197.4 	"/>
	<linearGradient id="SVGID_47_" gradientUnits="userSpaceOnUse" x1="380.9887" y1="155.58" x2="363.6539" y2="199.5039">
		<stop  offset="0" style="stop-color:#5E5D63"/>
		<stop  offset="0.2767" style="stop-color:#55535A"/>
		<stop  offset="0.7393" style="stop-color:#3C3A42"/>
		<stop  offset="1" style="stop-color:#2B2831"/>
	</linearGradient>
	<polygon fill="url(#SVGID_47_)" points="373.2,190.5 385.8,132.8 362.2,187.8 	"/>
	<linearGradient id="SVGID_48_" gradientUnits="userSpaceOnUse" x1="418.4146" y1="166.7074" x2="392.0881" y2="233.4151">
		<stop  offset="0" style="stop-color:#5E5D63"/>
		<stop  offset="1" style="stop-color:#2B2831"/>
	</linearGradient>
	<polygon fill="url(#SVGID_48_)" points="400.5,221.1 393.3,198.8 430.2,168.3 	"/>
	<linearGradient id="SVGID_49_" gradientUnits="userSpaceOnUse" x1="382.5201" y1="205.764" x2="385.4211" y2="161.4922">
		<stop  offset="0" style="stop-color:#4E4D55"/>
		<stop  offset="1" style="stop-color:#89888D"/>
	</linearGradient>
	<polygon fill="url(#SVGID_49_)" points="373.2,190.5 393.2,198.8 385.8,132.8 	"/>
	<linearGradient id="SVGID_50_" gradientUnits="userSpaceOnUse" x1="358.5143" y1="188.6516" x2="366.7062" y2="197.111">
		<stop  offset="0" style="stop-color:#706F75"/>
		<stop  offset="1" style="stop-color:#9D9EA3"/>
	</linearGradient>
	<polygon fill="url(#SVGID_50_)" points="353.4,196.7 362.2,187.8 373.2,190.5 	"/>
	<linearGradient id="SVGID_51_" gradientUnits="userSpaceOnUse" x1="426.4608" y1="178.482" x2="414.1152" y2="234.4623">
		<stop  offset="0" style="stop-color:#4E4D55"/>
		<stop  offset="1" style="stop-color:#67666C"/>
	</linearGradient>
	<polygon fill="url(#SVGID_51_)" points="430.2,236.5 400.5,221 430.2,168.3 	"/>
	<linearGradient id="SVGID_52_" gradientUnits="userSpaceOnUse" x1="408.5291" y1="148.1423" x2="396.8756" y2="200.9849">
		<stop  offset="0" style="stop-color:#4E4D55"/>
		<stop  offset="1" style="stop-color:#67666C"/>
	</linearGradient>
	<polygon fill="url(#SVGID_52_)" points="393.2,198.8 385.8,132.8 430.2,168.3 395.1,197.3 	"/>
	<polygon fill="#AAABAF" points="543,381.5 507.5,347 555,325 	"/>
	<polygon fill="#8A898E" points="491,398.5 507.5,347 543,381.5 	"/>
	<circle fill="#34313A" cx="160" cy="229.6" r="4"/>
	<circle fill="#1E1C27" cx="142.7" cy="251.2" r="2.7"/>
	<circle fill="#57565E" cx="140" cy="329.2" r="8.7"/>
	<circle fill="#CCCDCF" cx="338" cy="309.6" r="2.7"/>
	<polyline fill="none" stroke="#535258" stroke-miterlimit="10" points="563.1,362.1 539.3,422.6 506.3,375.6 	"/>
	<polyline fill="none" stroke="#535258" stroke-miterlimit="10" points="545.5,367.2 504.8,333.2 395.5,351.4 340.7,335.4 	"/>
	<polyline fill="none" stroke="#535258" stroke-miterlimit="10" points="335.3,309.6 368.2,314.1 395.5,353.9 	"/>
	<polyline fill="none" stroke="#535258" stroke-miterlimit="10" points="374,309.6 433.2,345.1 542.8,367.2 	"/>
	<line fill="none" stroke="#535258" stroke-miterlimit="10" x1="283.8" y1="187.6" x2="413" y2="188.6"/>
	<line fill="none" stroke="#535258" stroke-miterlimit="10" x1="283.8" y1="187.6" x2="391.3" y2="174.6"/>
	<polyline fill="none" stroke="#535258" stroke-miterlimit="10" points="342.8,179.7 348.7,172.8 365.3,177.7 	"/>
	<line fill="none" stroke="#535258" stroke-miterlimit="10" x1="348.7" y1="172.8" x2="394.8" y2="149.1"/>
	<line fill="none" stroke="#535258" stroke-miterlimit="10" x1="382.1" y1="167.6" x2="373.4" y2="176.8"/>
	<polyline fill="none" stroke="#535258" stroke-miterlimit="10" points="411.7,449.9 445.5,473.9 403.7,494.2 461.7,521.2 
		549.3,491.2 608.3,433.6 	"/>
	<polyline fill="none" stroke="#E2E4E1" stroke-miterlimit="10" points="407.8,447.6 394,473.7 440.2,499.8 459.5,473.7 
		472.4,477.4 	"/>
	<polyline fill="none" stroke="#E2E4E1" stroke-miterlimit="10" points="353.7,484.6 403.7,494.2 465,502.9 	"/>
	<line fill="none" stroke="#E2E4E1" stroke-miterlimit="10" x1="353.7" y1="484.6" x2="349.1" y2="426.6"/>
	<polyline fill="none" stroke="#FFFFFF" stroke-miterlimit="10" points="321.1,206.8 281.2,134.9 371.7,163.6 381,95.9 278.6,134.9 
		278.6,77.2 204.7,134.9 195,159.6 280,77.2 381,94.2 405.3,115.9 	"/>
	<polyline fill="none" stroke="#FFFFFF" stroke-miterlimit="10" points="278.6,134.9 195,159.6 256.3,233.6 	"/>
	<line fill="none" stroke="#FFFFFF" stroke-miterlimit="10" x1="195" y1="159.6" x2="242.7" y2="240.6"/>
	<line fill="none" stroke="#FFFFFF" stroke-miterlimit="10" x1="281.2" y1="134.9" x2="273.3" y2="224.6"/>
	<polyline fill="none" stroke="#FFFFFF" stroke-miterlimit="10" points="602.7,372.8 662.7,336.1 659.7,294 	"/>
	<polyline fill="none" stroke="#FFFFFF" stroke-miterlimit="10" points="660,292.2 616.4,195.8 669.7,273.6 	"/>
	<polyline fill="none" stroke="#FFFFFF" stroke-miterlimit="10" points="569.5,172.8 616.4,195.8 608.3,209.2 565.9,179.1 
		566.7,200.8 608.3,209.2 602.8,260.2 584,229.6 608.3,209.2 660,292.2 	"/>
	<line fill="none" stroke="#FFFFFF" stroke-miterlimit="10" x1="660" y1="294.9" x2="602.7" y2="348.6"/>
	<line fill="none" stroke="#FFFFFF" stroke-miterlimit="10" x1="660" y1="294.9" x2="597" y2="294.9"/>
	<line fill="none" stroke="#FFFFFF" stroke-miterlimit="10" x1="608.3" y1="209.2" x2="567.3" y2="206.2"/>
	<polyline fill="none" stroke="#535258" stroke-miterlimit="10" points="506.3,375.6 500.3,375.6 395.5,353.9 413.8,404.4 
		479,429.6 506.3,375.6 545.5,367.2 541,420.2 469.8,501.2 473.4,501.2 566.7,465.9 539.3,422.6 479,429.6 469.6,497.2 466,501.2 
		445.5,473.9 413.8,404.4 411.7,449.9 	"/>
	<polyline fill="none" stroke="#535258" stroke-miterlimit="10" points="413.8,404.4 340.7,335.4 342.8,361.1 279.7,345.9 
		338,309.6 396.3,289.9 338,262.8 191.3,299.2 277.3,345.9 238.3,396.9 189.7,299.2 143.3,329.2 238.3,396.9 	"/>
	<line fill="none" stroke="#535258" stroke-miterlimit="10" x1="650.8" y1="324.6" x2="602.7" y2="350.4"/>
	<polyline fill="none" stroke="#535258" stroke-miterlimit="10" points="545.5,367.2 602.7,350.4 566.7,465.9 608.3,432.6 
		616.7,342.9 602.7,350.4 581.8,333.2 504.8,333.2 514.2,251.8 564.5,291 524.7,206.2 616.4,280.1 581.8,333.2 564.5,291 
		616.4,280.1 650.8,324.6 	"/>
	<polyline fill="none" stroke="#535258" stroke-miterlimit="10" points="370,430.6 279.7,345.9 342.8,361.1 367.5,423.3 
		411.7,449.9 382.7,471.6 	"/>
	<polyline fill="none" stroke="#535258" stroke-miterlimit="10" points="616.4,280.1 612.4,241 586.9,176.8 587.5,235.2 
		616.4,282.5 	"/>
	<line fill="none" stroke="#535258" stroke-miterlimit="10" x1="503.3" y1="333.1" x2="564.5" y2="291"/>
	<polyline fill="none" stroke="#535258" stroke-miterlimit="10" points="506.3,335.4 438.7,292.4 514.2,253.6 524.7,206.2 
		531.3,150.6 587.5,237.5 	"/>
	<polyline fill="none" stroke="#535258" stroke-miterlimit="10" points="514.2,253.6 461,161.9 477.8,237.9 441.7,287.6 374,309.6 
		340.7,335.4 	"/>
	<polyline fill="none" stroke="#535258" stroke-miterlimit="10" points="140,324.2 142.7,248.6 160,229.6 140,329.2 	"/>
	<polygon fill="none" stroke="#535258" stroke-miterlimit="10" points="162.3,229.6 283.8,187.6 295.2,205 	"/>
	<polyline fill="none" stroke="#535258" stroke-miterlimit="10" points="162.3,232.8 189.7,299.2 295.2,205 338,261.2 416.7,213.6 
		396.3,289.9 	"/>
	<polyline fill="none" stroke="#535258" stroke-miterlimit="10" points="480,237.9 446.7,237.9 425,282.5 477.8,237.9 	"/>
	<polyline fill="none" stroke="#535258" stroke-miterlimit="10" points="438.7,291.2 425,282.5 376.3,309.6 	"/>
	<polyline fill="none" stroke="#535258" stroke-miterlimit="10" points="470.1,203.2 446.7,237.9 461,161.9 416.7,213.6 444,237.9 
		396.3,289.9 	"/>
	<polyline fill="none" stroke="#535258" stroke-miterlimit="10" points="524.7,206.2 481.3,127.9 461,163.6 414.7,188.6 
		416.7,213.6 295.2,205 411.3,188.6 391.3,174.6 381,169.2 418.7,114.2 391.3,174.6 	"/>
	<polyline fill="none" stroke="#535258" stroke-miterlimit="10" points="281.2,346.8 336.1,263.6 339.6,310.4 340.7,337.8 	"/>
	<polyline fill="none" stroke="#535258" stroke-miterlimit="10" points="403.7,494.2 416.2,453.1 398.5,485.4 403.7,494.2 	"/>
	<polyline fill="none" stroke="#535258" stroke-miterlimit="10" points="366.6,437.5 358.3,447.6 400.4,458.4 	"/>
	<polyline fill="none" stroke="#535258" stroke-miterlimit="10" points="359,447.6 382.7,471.6 398.5,485.4 	"/>
	<polyline fill="none" stroke="#535258" stroke-miterlimit="10" points="411.7,449.9 371.3,432.6 239.2,396.9 461.7,521.2 
		466,506.6 	"/>
	<polyline fill="none" stroke="#535258" stroke-miterlimit="10" points="465,519.9 566.7,465.9 549.3,491.2 	"/>
	<line fill="none" stroke="#535258" stroke-miterlimit="10" x1="359" y1="449" x2="358.3" y2="429"/>
	<polyline fill="none" stroke="#535258" stroke-miterlimit="10" points="413,188.6 418.7,115.9 459.7,162.8 443.7,98.2 473.5,112.6 
		503,107.4 481.3,127.9 	"/>
	<polygon fill="none" stroke="#535258" stroke-miterlimit="10" points="531.3,150.6 505.7,108.9 585.8,175.2 	"/>
	<polyline fill="none" stroke="#535258" stroke-miterlimit="10" points="569,161.3 616.4,184.2 601.6,213.9 	"/>
	<line fill="none" stroke="#535258" stroke-miterlimit="10" x1="617.8" y1="186.8" x2="607" y2="227.4"/>
	<line fill="none" stroke="#535258" stroke-miterlimit="10" x1="473.5" y1="112.6" x2="448.8" y2="118.8"/>
	<polyline fill="none" stroke="#535258" stroke-miterlimit="10" points="451.1,153 443.7,98.2 418.7,114.2 	"/>
	<polyline fill="none" stroke="#E2E4E1" stroke-miterlimit="10" points="301.5,411.2 306,431.6 322.8,419.5 353.7,484.6 355,416.5 	
		"/>
	<line fill="none" stroke="#E2E4E1" stroke-miterlimit="10" x1="353.7" y1="484.6" x2="434.2" y2="463.2"/>
	<circle fill="#35343A" cx="370" cy="430.6" r="7.7"/>
	<circle fill="#5A5961" cx="359" cy="447.6" r="2.3"/>
	<circle fill="#5A5961" cx="382.7" cy="471.6" r="2.3"/>
	<circle fill="#B2B3B5" cx="353.7" cy="484.6" r="3.3"/>
	<circle fill="#B2B3B5" cx="307.7" cy="431.6" r="1.7"/>
	<circle fill="#3F3E46" cx="506.3" cy="375.6" r="6"/>
	<circle fill="#FAFCF7" cx="479" cy="429.6" r="3"/>
	<circle fill="#D6D8D5" cx="539.3" cy="422.6" r="4.3"/>
	<circle fill="#201D28" cx="504.8" cy="333.2" r="4"/>
	<circle fill="#201D28" cx="545.5" cy="367.2" r="2.7"/>
	<circle fill="#201D28" cx="602.7" cy="350.4" r="1.8"/>
	<circle fill="#FBFBF9" cx="581.8" cy="333.2" r="2.2"/>
	<circle fill="#1D1A25" cx="514.2" cy="253.6" r="3.7"/>
	<circle fill="#36333C" cx="438.7" cy="291.2" r="8"/>
	<circle fill="#F2F4F3" cx="446.7" cy="237.9" r="2.7"/>
	<circle fill="#211E29" cx="413.8" cy="404.4" r="2.2"/>
	<circle fill="#FBFBF9" cx="342.8" cy="361.1" r="2.2"/>
	<circle fill="#FBFBF9" cx="395.5" cy="353.9" r="2.5"/>
	<circle fill="#201D28" cx="396.3" cy="289.9" r="2.3"/>
	<circle fill="#1F1C27" cx="616.4" cy="282.5" r="2.4"/>
	<circle fill="#1F1C27" cx="564.5" cy="291" r="1.4"/>
	<circle fill="#1F1C27" cx="477.8" cy="237.9" r="2.2"/>
	<circle fill="#1F1C27" cx="587.5" cy="237.5" r="2.2"/>
	<circle fill="#3A3941" cx="612.4" cy="241" r="1.6"/>
	<circle fill="#403E49" cx="586.9" cy="176.8" r="4"/>
	<circle fill="#403E49" cx="618.4" cy="185.4" r="6.2"/>
	<circle fill="#1D1A25" cx="279.7" cy="345.9" r="4"/>
	<circle fill="#1D1A25" cx="238.3" cy="396.9" r="2.3"/>
	<circle fill="#1D1A25" cx="461" cy="163.6" r="4"/>
	<circle fill="#1D1A25" cx="416.7" cy="213.6" r="2"/>
	<circle fill="#221F2A" cx="413" cy="188.6" r="1.7"/>
	<circle fill="#221F2A" cx="381" cy="169.2" r="2.7"/>
	<circle fill="#221F2A" cx="348.7" cy="172.8" r="1.8"/>
	<circle fill="#23202B" cx="467.7" cy="502.9" r="6"/>
	<circle fill="#23202B" cx="461.7" cy="521.2" r="4.3"/>
	<circle fill="#333039" cx="608.3" cy="433.6" r="4"/>
	<circle fill="#1E1B26" cx="566.7" cy="465.9" r="2.7"/>
	<path fill="#1E1B26" d="M551.3,491.2c0,1.1-0.9,2-2,2c-1.1,0-2-0.9-2-2s0.9,0,2,0C550.4,491.2,551.3,490.1,551.3,491.2z"/>
	<circle fill="#1E1B26" cx="403.7" cy="494.2" r="2.3"/>
	<circle fill="#6D6C74" cx="338" cy="262.8" r="3.5"/>
	<circle fill="#4B4A50" cx="295.2" cy="205" r="6"/>
	<circle fill="#4B4A50" cx="283.8" cy="187.6" r="2.5"/>
	<circle fill="#201D28" cx="374" cy="309.6" r="2.3"/>
	<circle fill="#201D28" cx="340.7" cy="335.4" r="2.3"/>
	<circle fill="#525157" cx="418.7" cy="114.2" r="1.7"/>
	<circle fill="#FFFFFF" cx="391.3" cy="174.6" r="2.2"/>
	<circle fill="#FBFBF9" cx="524.7" cy="206.2" r="3"/>
	<line fill="none" stroke="#FFFFFF" stroke-miterlimit="10" x1="671.3" y1="274.7" x2="662.7" y2="336.1"/>
	<polyline fill="none" stroke="#FFFFFF" stroke-miterlimit="10" points="485,1117.5 425.5,1108 400,1066 501.5,1066 485,1117.5 	"/>
	<polygon fill="none" stroke="#FFFFFF" stroke-miterlimit="10" points="425.5,1108 430.2,1146 464.2,1162.5 	"/>
	<polygon fill="none" stroke="#FFFFFF" stroke-miterlimit="10" points="488.3,1184.7 464.2,1162.5 425.5,1108 485,1117.5 	"/>
	<polyline fill="none" stroke="#FFFFFF" stroke-miterlimit="10" points="537,1100.5 488.3,1184.7 485,1117.5 537,1100.5 	"/>
	<polygon fill="none" stroke="#FFFFFF" stroke-miterlimit="10" points="400,1066 427,1051.2 533.3,1051.2 501.5,1066 	"/>
	<polygon fill="none" stroke="#FFFFFF" stroke-miterlimit="10" points="488.3,1184.7 537,1100.5 567,1135.2 	"/>
	<polygon fill="none" stroke="#FFFFFF" stroke-miterlimit="10" points="567,1135.2 537,1100.5 549,1044 582,1026.2 	"/>
	<polygon fill="none" stroke="#FFFFFF" stroke-miterlimit="10" points="435.2,1148.4 430.3,1186.8 464.2,1162.5 	"/>
	<polygon fill="none" stroke="#FFFFFF" stroke-miterlimit="10" points="425.5,1178.8 430.3,1186.8 435.2,1148.4 	"/>
	<polygon fill="none" stroke="#FFFFFF" stroke-miterlimit="10" points="385.5,1154 408.5,1170 421.2,1155.8 	"/>
	<polygon fill="none" stroke="#FFFFFF" stroke-miterlimit="10" points="381,1136.5 385.5,1154 390.2,1136.5 	"/>
	<polygon fill="none" stroke="#FFFFFF" stroke-miterlimit="10" points="421.2,1155.8 385.5,1154 390.2,1136.5 430.2,1146 	"/>
	<polygon fill="none" stroke="#FFFFFF" stroke-miterlimit="10" points="488.3,1184.7 464.2,1162.5 430.3,1186.8 	"/>
	<polygon fill="none" stroke="#FFFFFF" stroke-miterlimit="10" points="425.5,1178.8 408.5,1170 430.2,1146 435.2,1148.4 	"/>
	<polygon fill="none" stroke="#FFFFFF" stroke-miterlimit="10" points="430.2,1146 354.2,1080 425.5,1108 	"/>
	<polyline fill="none" stroke="#FFFFFF" stroke-miterlimit="10" points="600,1099.2 567,1135.2 558.2,1158.3 600,1099.2 	"/>
	<polyline fill="none" stroke="#FFFFFF" stroke-miterlimit="10" points="600,1099.2 567,1135.2 582,1026.2 592.8,1017.8 	"/>
	<polygon fill="none" stroke="#FFFFFF" stroke-miterlimit="10" points="430.2,1146 390.2,1136.5 354.2,1080 	"/>
	<polygon fill="none" stroke="#FFFFFF" stroke-miterlimit="10" points="425.5,1108 354.2,1080 349,1058.6 	"/>
	<polygon fill="none" stroke="#FFFFFF" stroke-miterlimit="10" points="425.5,1108 349,1058.6 400,1066 	"/>
	<polygon fill="none" stroke="#FFFFFF" stroke-miterlimit="10" points="390.2,1136.5 298,1078.5 354.2,1080 	"/>
	<polygon fill="none" stroke="#FFFFFF" stroke-miterlimit="10" points="427,1051.2 493,1028.7 533.3,1051.2 	"/>
	<polygon fill="none" stroke="#FFFFFF" stroke-miterlimit="10" points="400,1066 369,1036.3 349,1058.6 	"/>
	<polygon fill="none" stroke="#FFFFFF" stroke-miterlimit="10" points="288,953 334,994.8 394.5,940 	"/>
	<polygon fill="none" stroke="#FFFFFF" stroke-miterlimit="10" points="391,1010 394.5,940 424.2,955.5 	"/>
	<polygon fill="none" stroke="#FFFFFF" stroke-miterlimit="10" points="400,1066 369,1036.3 374.5,1031.2 427,1051.2 	"/>
	<polygon fill="none" stroke="#FFFFFF" stroke-miterlimit="10" points="493,1028.7 537,982.8 559.5,1016 	"/>
	<polygon fill="none" stroke="#FFFFFF" stroke-miterlimit="10" points="493,1028.7 488.2,957.5 427,1004 	"/>
	<polygon fill="none" stroke="#FFFFFF" stroke-miterlimit="10" points="537,982.8 493,1028.7 488.2,957.5 	"/>
	<polygon fill="none" stroke="#FFFFFF" stroke-miterlimit="10" points="559.5,1016 537,982.8 582,965.3 	"/>
	<polyline fill="none" stroke="#FFFFFF" stroke-miterlimit="10" points="618.8,997.2 582,1026.2 559.5,1016 582,965.3 618.8,997.2 	
		"/>
	<polygon fill="none" stroke="#FFFFFF" stroke-miterlimit="10" points="298,1078.5 269.8,1129.5 212,1051.2 	"/>
	<polygon fill="none" stroke="#FFFFFF" stroke-miterlimit="10" points="269.8,1129.5 298,1078.5 390.2,1136.5 	"/>
	<polygon fill="none" stroke="#FFFFFF" stroke-miterlimit="10" points="269.8,1129.5 172.7,1087.7 212,1051.2 	"/>
	<polygon fill="none" stroke="#FFFFFF" stroke-miterlimit="10" points="488.2,957.5 424.2,887.3 437.3,853.7 488.2,913.7 	"/>
	<polyline fill="none" stroke="#FFFFFF" stroke-miterlimit="10" points="533.3,1051.2 493,1028.7 559.5,1016 582,1026.2 
		533.3,1052.5 	"/>
	<polygon fill="none" stroke="#FFFFFF" stroke-miterlimit="10" points="172.7,1087.7 172.7,995.8 212,1051.2 	"/>
	<polygon fill="none" stroke="#FFFFFF" stroke-miterlimit="10" points="172.7,995.8 162,1017.7 172.7,1087.7 	"/>
	<polygon fill="none" stroke="#FFFFFF" stroke-miterlimit="10" points="298,1078.5 212,1051.2 334,994.8 	"/>
	<polygon fill="none" stroke="#FFFFFF" stroke-miterlimit="10" points="212,1051.2 172.7,995.8 288,953 	"/>
	<polygon fill="none" stroke="#FFFFFF" stroke-miterlimit="10" points="391,1010 334,994.8 342.8,1036.3 	"/>
	<polygon fill="none" stroke="#FFFFFF" stroke-miterlimit="10" points="369,1036.3 342.8,1036.3 391,1010 	"/>
	<polygon fill="none" stroke="#FFFFFF" stroke-miterlimit="10" points="349,1058.6 342.8,1036.3 369,1036.3 	"/>
	<polygon fill="none" stroke="#FFFFFF" stroke-miterlimit="10" points="391,1010 334,994.8 394.5,940 	"/>
	<polygon fill="none" stroke="#FFFFFF" stroke-miterlimit="10" points="212,1051.2 288,953 334,994.8 	"/>
	<polygon fill="none" stroke="#FFFFFF" stroke-miterlimit="10" points="430.3,1186.8 486.7,1200.3 488.3,1184.7 	"/>
	<polygon fill="none" stroke="#FFFFFF" stroke-miterlimit="10" points="567,1135.2 558.2,1158.3 486.7,1200.3 	"/>
	<polygon fill="none" stroke="#FFFFFF" stroke-miterlimit="10" points="486.7,1200.3 488.3,1184.7 567,1135.2 	"/>
	<polygon fill="none" stroke="#FFFFFF" stroke-miterlimit="10" points="488.2,957.5 453.2,949.3 427,1004 	"/>
	<polygon fill="none" stroke="#FFFFFF" stroke-miterlimit="10" points="288,953 273,939 172.7,995.8 	"/>
	<polygon fill="none" stroke="#FFFFFF" stroke-miterlimit="10" points="288,953 273,939 387.2,917.8 	"/>
	<polygon fill="none" stroke="#FFFFFF" stroke-miterlimit="10" points="453.2,949.3 414.5,999 427,1004 	"/>
	<polygon fill="none" stroke="#FFFFFF" stroke-miterlimit="10" points="582.3,965.5 488.5,913.9 537.1,982.8 	"/>
	<polygon fill="none" stroke="#FFFFFF" stroke-miterlimit="10" points="298,1078.5 342.8,1036.3 334,994.8 	"/>
	<polygon fill="none" stroke="#FFFFFF" stroke-miterlimit="10" points="354.2,1080 298,1078.5 342.8,1036.3 	"/>
	<polygon fill="none" stroke="#FFFFFF" stroke-miterlimit="10" points="493,1028.7 427,1051.2 374.5,1031.2 427,1004 	"/>
	<polygon fill="none" stroke="#FFFFFF" stroke-miterlimit="10" points="582,965.3 488.2,913.7 483.8,863.7 	"/>
	<polygon fill="none" stroke="#FFFFFF" stroke-miterlimit="10" points="548.1,930.2 537,877.2 571.2,931.5 582,965.3 	"/>
	<polygon fill="none" stroke="#FFFFFF" stroke-miterlimit="10" points="537,877.2 483.8,863.7 453.8,830 	"/>
	<polygon fill="none" stroke="#FFFFFF" stroke-miterlimit="10" points="556.4,907.9 566.2,881 520.9,868.1 537,877.2 	"/>
	<polygon fill="none" stroke="#FFFFFF" stroke-miterlimit="10" points="548.1,930.2 483.8,863.7 537,877.2 	"/>
	<polygon fill="none" stroke="#FFFFFF" stroke-miterlimit="10" points="379.8,851.8 416,881.2 397.9,834.5 	"/>
	<polygon fill="none" stroke="#FFFFFF" stroke-miterlimit="10" points="424.2,887.3 416,881.2 397.9,834.5 	"/>
	<polygon fill="none" stroke="#FFFFFF" stroke-miterlimit="10" points="488.2,913.7 437.3,853.7 453.8,830 483.8,863.7 	"/>
	<polygon fill="none" stroke="#FFFFFF" stroke-miterlimit="10" points="414.5,999 424.2,955.5 453.2,949.3 	"/>
	<polygon fill="none" stroke="#FFFFFF" stroke-miterlimit="10" points="424.2,955.5 414.5,999 369,1036.3 392.2,1008 	"/>
	<polygon fill="none" stroke="#FFFFFF" stroke-miterlimit="10" points="414.5,999 427,1004 376.4,1030.3 	"/>
	<polygon fill="none" stroke="#FFFFFF" stroke-miterlimit="10" points="566.2,881 564.2,920.3 556.4,907.9 	"/>
	<polygon fill="none" stroke="#FFFFFF" stroke-miterlimit="10" points="424.2,955.5 440.2,921.3 424.2,887.3 	"/>
	<polygon fill="none" stroke="#FFFFFF" stroke-miterlimit="10" points="424.2,955.5 440.2,921.3 453.2,949.3 	"/>
	<path fill="none" stroke="#FFFFFF" stroke-miterlimit="10" d="M488.2,957.5"/>
	<polygon fill="none" stroke="#FFFFFF" stroke-miterlimit="10" points="488.2,913.7 488.2,957.5 537.1,982.8 	"/>
	<polygon fill="none" stroke="#FFFFFF" stroke-miterlimit="10" points="453.2,949.3 424.2,887.3 488.2,957.5 	"/>
	<polygon fill="none" stroke="#FFFFFF" stroke-miterlimit="10" points="397.9,834.5 428.9,841.6 406.6,852.1 	"/>
	<polyline fill="none" stroke="#FFFFFF" stroke-miterlimit="10" points="424.2,887.3 406.6,852.1 453.8,830 437.3,853.7 	"/>
	<polygon fill="none" stroke="#FFFFFF" stroke-miterlimit="10" points="387.2,917.8 394.5,940 288,953 	"/>
	<polygon fill="none" stroke="#FFFFFF" stroke-miterlimit="10" points="273,939 367.2,909.5 387.2,917.8 	"/>
	<polygon fill="none" stroke="#FFFFFF" stroke-miterlimit="10" points="324.1,923 329.1,915.2 345.4,916.4 	"/>
	<polyline fill="none" stroke="#FFFFFF" stroke-miterlimit="10" points="347.4,915.7 356.2,906.8 366.2,886 329.1,915.2 
		345.4,916.4 	"/>
	<polygon fill="none" stroke="#FFFFFF" stroke-miterlimit="10" points="367.2,909.5 379.8,851.8 356.2,906.8 	"/>
	<polygon fill="none" stroke="#FFFFFF" stroke-miterlimit="10" points="394.5,940.1 387.3,917.8 424.2,887.3 	"/>
	<polygon fill="none" stroke="#FFFFFF" stroke-miterlimit="10" points="367.2,909.5 387.2,917.8 379.8,851.8 	"/>
	<polygon fill="none" stroke="#FFFFFF" stroke-miterlimit="10" points="347.4,915.7 356.2,906.8 367.2,909.5 	"/>
	<polygon fill="none" stroke="#FFFFFF" stroke-miterlimit="10" points="424.2,955.5 394.5,940 424.2,887.3 	"/>
	<polygon fill="none" stroke="#FFFFFF" stroke-miterlimit="10" points="387.2,917.8 379.8,851.8 424.2,887.3 389.1,916.3 	"/>
	<polygon fill="none" stroke="#FFFFFF" stroke-miterlimit="10" points="537,1100.5 501.5,1066 549,1044 	"/>
	<polygon fill="none" stroke="#FFFFFF" stroke-miterlimit="10" points="485,1117.5 501.5,1066 537,1100.5 	"/>
	<g>
		<circle fill="#FFFFFF" cx="665.3" cy="993.7" r="4"/>
		<circle fill="#FFFFFF" cx="653.7" cy="1013" r="2.7"/>
		<circle fill="#FFFFFF" cx="154" cy="948.6" r="4"/>
		<circle fill="#FFFFFF" cx="136.7" cy="970.2" r="2.7"/>
		<circle fill="#FFFFFF" cx="134" cy="1048.2" r="8.7"/>
		<circle fill="#FFFFFF" cx="332" cy="1028.6" r="2.7"/>
		<circle fill="#FFFFFF" cx="364" cy="1149.6" r="7.7"/>
		<circle fill="#FFFFFF" cx="353" cy="1166.6" r="2.3"/>
		<circle fill="#FFFFFF" cx="376.7" cy="1190.6" r="2.3"/>
		<circle fill="#FFFFFF" cx="347.7" cy="1203.6" r="3.3"/>
		<circle fill="#FFFFFF" cx="301.7" cy="1150.6" r="1.7"/>
		<circle fill="#FFFFFF" cx="500.3" cy="1094.6" r="6"/>
		<circle fill="#FFFFFF" cx="473" cy="1148.6" r="3"/>
		<circle fill="#FFFFFF" cx="533.3" cy="1141.6" r="4.3"/>
		<circle fill="#FFFFFF" cx="498.8" cy="1052.2" r="4"/>
		<circle fill="#FFFFFF" cx="539.5" cy="1086.2" r="2.7"/>
		<circle fill="#FFFFFF" cx="596.7" cy="1069.4" r="1.8"/>
		<circle fill="#FFFFFF" cx="575.8" cy="1052.2" r="2.2"/>
		<circle fill="#FFFFFF" cx="508.2" cy="972.6" r="3.7"/>
		<circle fill="#FFFFFF" cx="432.7" cy="1010.2" r="8"/>
		<circle fill="#FFFFFF" cx="440.7" cy="956.9" r="2.7"/>
		<circle fill="#FFFFFF" cx="407.8" cy="1123.4" r="2.2"/>
		<circle fill="#FFFFFF" cx="336.8" cy="1080.1" r="2.2"/>
		<circle fill="#FFFFFF" cx="389.5" cy="1072.9" r="2.5"/>
		<circle fill="#FFFFFF" cx="390.3" cy="1008.9" r="2.3"/>
		<circle fill="#FFFFFF" cx="610.4" cy="1001.5" r="2.4"/>
		<circle fill="#FFFFFF" cx="558.5" cy="1010" r="1.4"/>
		<circle fill="#FFFFFF" cx="471.8" cy="956.9" r="2.2"/>
		<circle fill="#FFFFFF" cx="581.5" cy="956.5" r="2.2"/>
		<circle fill="#FFFFFF" cx="606.4" cy="960" r="1.6"/>
		<circle fill="#FFFFFF" cx="580.9" cy="895.8" r="4"/>
		<circle fill="#FFFFFF" cx="612.4" cy="904.4" r="6.2"/>
		<circle fill="#FFFFFF" cx="273.7" cy="1064.9" r="4"/>
		<circle fill="#FFFFFF" cx="232.3" cy="1115.9" r="2.3"/>
		<circle fill="#FFFFFF" cx="455" cy="882.6" r="4"/>
		<circle fill="#FFFFFF" cx="410.7" cy="932.6" r="2"/>
		<circle fill="#FFFFFF" cx="407" cy="907.6" r="1.7"/>
		<circle fill="#FFFFFF" cx="375" cy="888.2" r="2.7"/>
		<circle fill="#FFFFFF" cx="342.7" cy="891.8" r="1.8"/>
		<circle fill="#FFFFFF" cx="461.7" cy="1221.9" r="6"/>
		<circle fill="#FFFFFF" cx="455.7" cy="1240.2" r="4.3"/>
		<circle fill="#FFFFFF" cx="602.3" cy="1152.6" r="4"/>
		<circle fill="#FFFFFF" cx="560.7" cy="1184.9" r="2.7"/>
		<path fill="#FFFFFF" d="M545.3,1210.2c0,1.1-0.9,2-2,2c-1.1,0-2-0.9-2-2s0.9,0,2,0C544.4,1210.2,545.3,1209.1,545.3,1210.2z"/>
		<circle fill="#FFFFFF" cx="397.7" cy="1213.2" r="2.3"/>
		<circle fill="#FFFFFF" cx="332" cy="981.8" r="3.5"/>
		<circle fill="#FFFFFF" cx="289.2" cy="924" r="6"/>
		<circle fill="#FFFFFF" cx="277.8" cy="906.6" r="2.5"/>
		<circle fill="#FFFFFF" cx="368" cy="1028.6" r="2.3"/>
		<circle fill="#FFFFFF" cx="334.7" cy="1054.4" r="2.3"/>
		<circle fill="#FFFFFF" cx="412.7" cy="833.2" r="1.7"/>
		<circle fill="#FFFFFF" cx="385.3" cy="893.6" r="2.2"/>
		<circle fill="#FFFFFF" cx="518.7" cy="925.2" r="3"/>
	</g>
	<rect x="735.2" y="785.3" fill="#FFFFFF" width="253.8" height="253.8"/>
	<rect x="812.8" y="859.2" fill="none" width="515" height="408"/>
	<text transform="matrix(1 0 0 1 812.75 965.2145)" font-family="'BodoniSvtyTwoITCTT-Book'" font-size="150">II</text>
</g>
<g id="Layer_3">
</g>
</svg>
