<?xml version="1.0" encoding="utf-8"?>
<!-- Generator: Adobe Illustrator 18.1.1, SVG Export Plug-In . SVG Version: 6.00 Build 0)  -->
<svg version="1.1" xmlns="http://www.w3.org/2000/svg" xmlns:xlink="http://www.w3.org/1999/xlink" x="0px" y="0px"
	 viewBox="0 0 800 600" enable-background="new 0 0 800 600" xml:space="preserve">
<g id="Layer_2">
</g>
<g id="Layer_1">
	<g opacity="0.54">
		<g opacity="0.63">
			<defs>
				<polygon id="SVGID_1_" opacity="0.63" points="241.1,387.1 232.1,364.4 263.7,355.4 259.2,350.8 281.8,332.7 281.8,310.1 
					327,301 345.1,310.1 376.7,301 386.3,277.8 413.4,277.8 431,246.6 462.6,233 462.6,224 480.7,210.4 521.4,233 557.6,224 
					571.1,233 580.2,264.7 589.2,287.4 616.3,296.5 539.5,364.4 227.5,405.2 				"/>
			</defs>
			<use xlink:href="#SVGID_1_"  overflow="visible" fill="#8B8A8F"/>
			<clipPath id="SVGID_2_">
				<use xlink:href="#SVGID_1_"  overflow="visible"/>
			</clipPath>
			<g clip-path="url(#SVGID_2_)">
				<polyline fill="#8B8A8F" points="499.5,421.8 443,412.7 418.8,372.9 515.2,372.9 499.5,421.8 				"/>
				<polygon fill="#8B8A8F" points="443,412.7 447.5,448.8 479.8,464.5 				"/>
				<polygon fill="#8B8A8F" points="502.7,485.6 479.8,464.5 443,412.7 499.5,421.8 				"/>
				<polyline fill="#8B8A8F" points="548.9,405.6 502.7,485.6 499.5,421.8 548.9,405.6 				"/>
				<polygon fill="#8B8A8F" points="418.8,372.9 444.4,358.8 545.4,358.8 515.2,372.9 				"/>
				<polygon fill="#8B8A8F" points="502.7,485.6 548.9,405.6 577.4,438.6 				"/>
				<polygon fill="#8B8A8F" points="577.4,438.6 548.9,405.6 560.3,352 591.6,335.1 				"/>
				<polygon fill="#8B8A8F" points="452.2,451.1 447.6,487.6 479.8,464.5 				"/>
				<polygon fill="#8B8A8F" points="443,480 447.6,487.6 452.2,451.1 				"/>
				<polygon fill="#8B8A8F" points="405,456.4 426.8,471.6 438.9,458.1 				"/>
				<polygon fill="#8B8A8F" points="400.7,439.8 405,456.4 409.5,439.8 				"/>
				<polygon fill="#8B8A8F" points="438.9,458.1 405,456.4 409.5,439.8 447.5,448.8 				"/>
				<polygon fill="#8B8A8F" points="502.7,485.6 479.8,464.5 447.6,487.6 				"/>
				<polygon fill="#8B8A8F" points="443,480 426.8,471.6 447.5,448.8 452.2,451.1 				"/>
				<polygon fill="#8B8A8F" points="447.5,448.8 375.2,386.1 443,412.7 				"/>
				<polygon fill="#8B8A8F" points="577.4,438.6 569,460.6 608.7,404.4 				"/>
				<polygon fill="#8B8A8F" points="577.4,438.6 591.6,335.1 601.8,327 608.7,404.4 				"/>
				<polygon fill="#8B8A8F" points="447.5,448.8 409.5,439.8 375.2,386.1 				"/>
				<polygon fill="#8B8A8F" points="443,412.7 375.2,386.1 370.3,365.8 				"/>
				<polygon fill="#8B8A8F" points="443,412.7 370.3,365.8 393.4,368.9 418.8,372.9 				"/>
				<polygon fill="#8B8A8F" points="409.5,439.8 321.9,384.7 375.2,386.1 				"/>
				<polygon fill="#8B8A8F" points="444.4,358.8 507.1,337.4 545.4,358.8 				"/>
				<polygon fill="#8B8A8F" points="418.8,372.9 389.3,344.7 370.3,365.8 394.6,369.4 				"/>
				<polygon fill="#8B8A8F" points="312.4,265.5 356.1,305.2 413.5,253.2 				"/>
				<polygon fill="#8B8A8F" points="410.2,319.7 413.5,253.2 441.8,267.9 				"/>
				<polygon fill="#8B8A8F" points="418.8,372.9 389.3,344.7 394.5,339.8 444.4,358.8 				"/>
				<polygon fill="#8B8A8F" points="507.1,337.4 548.9,293.8 570.3,325.4 				"/>
				<polygon fill="#8B8A8F" points="507.1,337.4 502.6,269.8 444.4,314 				"/>
				<polygon fill="#8B8A8F" points="548.9,293.8 507.1,337.4 502.6,269.8 				"/>
				<polygon fill="#8B8A8F" points="570.3,325.4 548.9,293.8 591.6,277.2 				"/>
				<polygon fill="#8B8A8F" points="591.6,335.1 570.3,325.4 591.6,277.2 626.5,307.5 				"/>
				<polygon fill="#8B8A8F" points="321.9,384.7 295,433.2 240.2,358.8 				"/>
				<polygon fill="#8B8A8F" points="295,433.2 321.9,384.7 409.5,439.8 				"/>
				<polygon fill="#8B8A8F" points="295,433.2 202.8,393.4 240.2,358.8 				"/>
				<polygon fill="#8B8A8F" points="502.6,269.8 441.8,203.1 454.2,171.2 502.6,228.2 				"/>
				<polyline fill="#8B8A8F" points="545.4,358.8 507.1,337.4 570.3,325.4 591.6,335.1 545.4,360 				"/>
				<polygon fill="#8B8A8F" points="202.8,393.4 202.8,306.2 240.2,358.8 				"/>
				<polygon fill="#8B8A8F" points="202.8,306.2 192.7,326.9 202.8,393.4 				"/>
				<polygon fill="#8B8A8F" points="321.9,384.7 240.2,358.8 356.1,305.2 				"/>
				<polygon fill="#8B8A8F" points="240.2,358.8 202.8,306.2 312.4,265.5 				"/>
				<polygon fill="#8B8A8F" points="410.2,319.7 356.1,305.2 364.4,344.7 				"/>
				<polygon fill="#8B8A8F" points="389.3,344.7 364.4,344.7 410.2,319.7 				"/>
				<polygon fill="#8B8A8F" points="370.3,365.8 364.4,344.7 389.3,344.7 				"/>
				<polygon fill="#8B8A8F" points="410.2,319.7 356.1,305.2 413.5,253.2 				"/>
				<polygon fill="#8B8A8F" points="240.2,358.8 312.4,265.5 356.1,305.2 				"/>
				<polygon fill="#8B8A8F" points="447.6,487.6 501.1,500.5 502.7,485.6 				"/>
				<polygon fill="#8B8A8F" points="577.4,438.6 569,460.6 501.1,500.5 				"/>
				<polygon fill="#8B8A8F" points="501.1,500.5 502.7,485.6 577.4,438.6 				"/>
				<polygon fill="#8B8A8F" points="502.6,269.8 469.3,262 444.4,314 				"/>
				<polygon fill="#8B8A8F" points="312.4,265.5 298.1,252.2 202.8,306.2 				"/>
				<polygon fill="#8B8A8F" points="312.4,265.5 298.1,252.2 406.6,232 				"/>
				<polygon fill="#8B8A8F" points="469.3,262 432.5,309.2 444.4,314 				"/>
				<polygon fill="#8B8A8F" points="591.9,277.4 502.8,228.3 549,293.8 				"/>
				<polygon fill="#8B8A8F" points="321.9,384.7 364.4,344.7 356.1,305.2 				"/>
				<polygon fill="#8B8A8F" points="375.2,386.1 347.8,385.6 321.9,384.7 364.4,344.7 370.3,365.8 				"/>
				<polygon fill="#8B8A8F" points="507.1,337.4 444.4,358.8 394.5,339.8 444.4,314 				"/>
				<polygon fill="#8B8A8F" points="591.6,277.2 502.6,228.2 498.4,180.7 				"/>
				<polygon fill="#8B8A8F" points="559.4,243.8 548.9,193.6 581.4,245.1 591.6,277.2 				"/>
				<polygon fill="#8B8A8F" points="548.9,193.6 498.4,180.7 469.9,148.7 				"/>
				<polygon fill="#8B8A8F" points="567.3,222.7 576.6,197.1 533.6,184.9 548.9,193.6 				"/>
				<polygon fill="#8B8A8F" points="559.4,243.8 498.4,180.7 548.9,193.6 				"/>
				<polygon fill="#8B8A8F" points="399.5,169.3 434,197.4 416.7,153 				"/>
				<polygon fill="#8B8A8F" points="441.8,203.1 434,197.4 416.7,153 				"/>
				<polygon fill="#8B8A8F" points="502.6,228.2 454.2,171.2 469.9,148.7 498.4,180.7 				"/>
				<polygon fill="#8B8A8F" points="432.5,309.2 441.8,267.9 469.3,262 				"/>
				<polygon fill="#8B8A8F" points="441.8,267.9 432.5,309.2 389.3,344.7 411.4,317.8 				"/>
				<polygon fill="#8B8A8F" points="432.5,309.2 444.4,314 396.3,338.9 				"/>
				<polygon fill="#8B8A8F" points="576.6,197.1 574.7,234.5 567.3,222.7 				"/>
				<polygon fill="#8B8A8F" points="441.8,267.9 457,235.4 441.8,203.1 				"/>
				<polygon fill="#8B8A8F" points="441.8,267.9 457,235.4 469.3,262 				"/>
				<path fill="#8B8A8F" d="M502.6,269.8"/>
				<polygon fill="#8B8A8F" points="502.6,228.2 502.6,269.8 549,293.8 				"/>
				<polygon fill="#8B8A8F" points="469.3,262 441.8,203.1 502.6,269.8 				"/>
				<polygon fill="#8B8A8F" points="416.7,153 446.2,159.7 425.1,169.6 				"/>
				<polyline fill="#8B8A8F" points="441.8,203.1 425.1,169.6 469.9,148.7 454.2,171.2 				"/>
				<polygon fill="#8B8A8F" points="406.6,232 413.5,253.2 312.4,265.5 				"/>
				<polygon fill="#8B8A8F" points="298.1,252.2 387.6,224.2 406.6,232 				"/>
				<polygon fill="#8B8A8F" points="346.6,237 351.4,229.7 366.9,230.7 				"/>
				<polyline fill="#8B8A8F" points="368.8,230.1 377.2,221.6 386.7,201.9 351.4,229.7 366.9,230.7 				"/>
				<polygon fill="#8B8A8F" points="387.6,224.2 399.5,169.3 377.2,221.6 				"/>
				<polygon fill="#8B8A8F" points="413.5,253.2 406.7,232.1 441.8,203.1 				"/>
				<polygon fill="#8B8A8F" points="387.6,224.2 406.6,232 399.5,169.3 				"/>
				<polygon fill="#8B8A8F" points="368.8,230.1 377.2,221.6 387.6,224.2 				"/>
				<polygon fill="#8B8A8F" points="441.8,267.9 413.5,253.2 441.8,203.1 				"/>
				<polygon fill="#8B8A8F" points="406.6,232 399.5,169.3 441.8,203.1 408.4,230.6 				"/>
				<polygon fill="#8B8A8F" points="548.9,405.6 515.2,372.9 560.3,352 				"/>
				<polygon fill="#8B8A8F" points="499.5,421.8 515.2,372.9 548.9,405.6 				"/>
			</g>
		</g>
		<g>
			<defs>
				<polygon id="SVGID_3_" points="241.1,386.6 232.1,364 263.7,354.9 259.2,350.4 281.8,332.3 281.8,309.6 327,300.5 345.1,309.6 
					376.7,300.5 386.3,277.3 413.4,277.3 431,246.1 462.6,232.5 462.6,223.5 480.7,209.9 521.4,232.5 557.6,223.5 571.1,232.5 
					580.2,264.3 589.2,286.9 616.3,296 539.5,364 227.5,404.8 				"/>
			</defs>
			<clipPath id="SVGID_4_">
				<use xlink:href="#SVGID_3_"  overflow="visible"/>
			</clipPath>
			<g clip-path="url(#SVGID_4_)">
				<linearGradient id="SVGID_5_" gradientUnits="userSpaceOnUse" x1="466.9595" y1="433.1729" x2="466.9595" y2="379.0296">
					<stop  offset="0" style="stop-color:#5E5D63"/>
					<stop  offset="1" style="stop-color:#47464E"/>
				</linearGradient>
				<polyline fill="url(#SVGID_5_)" points="499.5,421.3 443,412.3 418.8,372.4 515.2,372.4 499.5,421.3 				"/>
				<polygon fill="#1F1C27" points="443,412.3 447.5,448.4 479.8,464 				"/>
				<linearGradient id="SVGID_6_" gradientUnits="userSpaceOnUse" x1="447.2117" y1="463.0324" x2="499.2816" y2="433.8616">
					<stop  offset="0" style="stop-color:#5E5D63"/>
					<stop  offset="1" style="stop-color:#2B2831"/>
				</linearGradient>
				<polygon fill="url(#SVGID_6_)" points="502.7,485.1 479.8,464 443,412.3 499.5,421.3 				"/>
				<linearGradient id="SVGID_7_" gradientUnits="userSpaceOnUse" x1="474.7584" y1="467.9434" x2="518.9741" y2="443.1727">
					<stop  offset="0" style="stop-color:#A9AAAE"/>
					<stop  offset="1" style="stop-color:#BCC0C1"/>
				</linearGradient>
				<polyline fill="url(#SVGID_7_)" points="548.9,405.2 502.7,485.1 499.5,421.3 548.9,405.2 				"/>
				<polygon fill="#5E5D63" points="418.8,372.4 444.4,358.4 545.4,358.4 515.2,372.4 				"/>
				<linearGradient id="SVGID_8_" gradientUnits="userSpaceOnUse" x1="537.767" y1="452.9957" x2="567.1938" y2="472.3045">
					<stop  offset="0" style="stop-color:#4E4D55"/>
					<stop  offset="1" style="stop-color:#67666C"/>
				</linearGradient>
				<polygon fill="url(#SVGID_8_)" points="502.7,485.1 548.9,405.2 577.4,438.2 				"/>
				<linearGradient id="SVGID_9_" gradientUnits="userSpaceOnUse" x1="565.8258" y1="374.133" x2="595.0877" y2="393.3337">
					<stop  offset="0" style="stop-color:#706F75"/>
					<stop  offset="1" style="stop-color:#858489"/>
				</linearGradient>
				<polygon fill="url(#SVGID_9_)" points="577.4,438.2 548.9,405.2 560.3,351.5 591.6,334.6 				"/>
				<polygon fill="#57565C" points="452.2,450.7 447.6,487.2 479.8,464 				"/>
				<polygon fill="#1E1B26" points="443,479.6 447.6,487.2 452.2,450.7 				"/>
				<polygon fill="#1E1B26" points="405,456 426.8,471.2 438.9,457.6 				"/>
				<polygon fill="#1E1B26" points="400.7,439.3 405,456 409.5,439.3 				"/>
				<linearGradient id="SVGID_10_" gradientUnits="userSpaceOnUse" x1="429.7286" y1="464.4288" x2="423.8133" y2="443.6834">
					<stop  offset="0" style="stop-color:#5E5D63"/>
					<stop  offset="0.4456" style="stop-color:#4A484F"/>
					<stop  offset="1" style="stop-color:#2B2831"/>
				</linearGradient>
				<polygon fill="url(#SVGID_10_)" points="438.9,457.6 405,456 409.5,439.3 447.5,448.4 				"/>
				<linearGradient id="SVGID_11_" gradientUnits="userSpaceOnUse" x1="469.4088" y1="498.8071" x2="481.1718" y2="472.6606">
					<stop  offset="0" style="stop-color:#5E5D63"/>
					<stop  offset="0.2767" style="stop-color:#55535A"/>
					<stop  offset="0.7393" style="stop-color:#3C3A42"/>
					<stop  offset="1" style="stop-color:#2B2831"/>
				</linearGradient>
				<polygon fill="url(#SVGID_11_)" points="502.7,485.1 479.8,464 447.6,487.2 				"/>
				<linearGradient id="SVGID_12_" gradientUnits="userSpaceOnUse" x1="426.827" y1="463.9649" x2="452.2034" y2="463.9649">
					<stop  offset="0" style="stop-color:#5E5D63"/>
					<stop  offset="0.2767" style="stop-color:#55535A"/>
					<stop  offset="0.7393" style="stop-color:#3C3A42"/>
					<stop  offset="1" style="stop-color:#2B2831"/>
				</linearGradient>
				<polygon fill="url(#SVGID_12_)" points="443,479.6 426.8,471.2 447.5,448.4 452.2,450.7 				"/>
				<linearGradient id="SVGID_13_" gradientUnits="userSpaceOnUse" x1="428.441" y1="466.8219" x2="409.9735" y2="402.0552">
					<stop  offset="0" style="stop-color:#7B7A80"/>
					<stop  offset="0.7789" style="stop-color:#66656B"/>
					<stop  offset="1" style="stop-color:#5F5E64"/>
				</linearGradient>
				<polygon fill="url(#SVGID_13_)" points="447.5,448.4 375.2,385.7 443,412.3 				"/>
				<polygon fill="#727177" points="577.4,438.2 569,460.1 608.7,403.9 				"/>
				<linearGradient id="SVGID_14_" gradientUnits="userSpaceOnUse" x1="595.3751" y1="403.2194" x2="599.4236" y2="372.1358">
					<stop  offset="0" style="stop-color:#A9AAAE"/>
					<stop  offset="1" style="stop-color:#BCC0C1"/>
				</linearGradient>
				<polygon fill="url(#SVGID_14_)" points="577.4,438.2 591.6,334.6 601.8,326.5 608.7,403.9 				"/>
				<linearGradient id="SVGID_15_" gradientUnits="userSpaceOnUse" x1="404.1288" y1="472.4807" x2="410.1363" y2="426.357">
					<stop  offset="0" style="stop-color:#5E5D63"/>
					<stop  offset="0.2767" style="stop-color:#55535A"/>
					<stop  offset="0.7393" style="stop-color:#3C3A42"/>
					<stop  offset="1" style="stop-color:#2B2831"/>
				</linearGradient>
				<polygon fill="url(#SVGID_15_)" points="447.5,448.4 409.5,439.3 375.2,385.7 				"/>
				<linearGradient id="SVGID_16_" gradientUnits="userSpaceOnUse" x1="401.5668" y1="427.7905" x2="405.7879" y2="395.3823">
					<stop  offset="0" style="stop-color:#5E5D63"/>
					<stop  offset="0.2767" style="stop-color:#55535A"/>
					<stop  offset="0.7393" style="stop-color:#3C3A42"/>
					<stop  offset="1" style="stop-color:#2B2831"/>
				</linearGradient>
				<polygon fill="url(#SVGID_16_)" points="443,412.3 375.2,385.7 370.3,365.4 				"/>
				<linearGradient id="SVGID_17_" gradientUnits="userSpaceOnUse" x1="397.7054" y1="370.9461" x2="425.172" y2="388.6576">
					<stop  offset="0" style="stop-color:#706F75"/>
					<stop  offset="1" style="stop-color:#858489"/>
				</linearGradient>
				<polygon fill="url(#SVGID_17_)" points="443,412.3 370.3,365.4 393.4,368.4 418.8,372.4 				"/>
				<linearGradient id="SVGID_18_" gradientUnits="userSpaceOnUse" x1="386.5874" y1="426.0808" x2="360.0236" y2="397.375">
					<stop  offset="0" style="stop-color:#5E5D63"/>
					<stop  offset="1" style="stop-color:#47464E"/>
				</linearGradient>
				<polygon fill="url(#SVGID_18_)" points="409.5,439.3 321.9,384.3 375.2,385.7 				"/>
				<linearGradient id="SVGID_19_" gradientUnits="userSpaceOnUse" x1="493.4987" y1="376.4876" x2="495.5809" y2="349.7215">
					<stop  offset="0" style="stop-color:#5E5D63"/>
					<stop  offset="1" style="stop-color:#47464E"/>
				</linearGradient>
				<polygon fill="url(#SVGID_19_)" points="444.4,358.4 507.1,336.9 545.4,358.4 				"/>
				<linearGradient id="SVGID_20_" gradientUnits="userSpaceOnUse" x1="376.1016" y1="368.4744" x2="391.9996" y2="362.6772">
					<stop  offset="0" style="stop-color:#5E5D63"/>
					<stop  offset="1" style="stop-color:#47464E"/>
				</linearGradient>
				<polygon fill="url(#SVGID_20_)" points="418.8,372.4 389.3,344.2 370.3,365.4 394.6,368.9 				"/>
				<polygon fill="#F0F2EF" points="312.4,265 356.1,304.7 413.5,252.7 				"/>
				<linearGradient id="SVGID_21_" gradientUnits="userSpaceOnUse" x1="417.196" y1="281.0232" x2="431.2979" y2="252.7626">
					<stop  offset="0" style="stop-color:#5E5D63"/>
					<stop  offset="0.2767" style="stop-color:#55535A"/>
					<stop  offset="0.7393" style="stop-color:#3C3A42"/>
					<stop  offset="1" style="stop-color:#2B2831"/>
				</linearGradient>
				<polygon fill="url(#SVGID_21_)" points="410.2,319.2 413.5,252.7 441.8,267.4 				"/>
				<polygon fill="#A6A7AB" points="418.8,372.4 389.3,344.2 394.5,339.4 444.4,358.4 				"/>
				<linearGradient id="SVGID_22_" gradientUnits="userSpaceOnUse" x1="520.9595" y1="309.8876" x2="571.6643" y2="347.5587">
					<stop  offset="0" style="stop-color:#706F75"/>
					<stop  offset="1" style="stop-color:#858489"/>
				</linearGradient>
				<polygon fill="url(#SVGID_22_)" points="507.1,336.9 548.9,293.3 570.3,324.9 				"/>
				<polygon fill="#F9FBF6" points="507.1,336.9 502.6,269.3 444.4,313.5 				"/>
				<polygon fill="#B8BCBD" points="548.9,293.3 507.1,336.9 502.6,269.3 				"/>
				<linearGradient id="SVGID_23_" gradientUnits="userSpaceOnUse" x1="568.8738" y1="277.1804" x2="576.3022" y2="319.2747">
					<stop  offset="0" style="stop-color:#A5A6AA"/>
					<stop  offset="1" style="stop-color:#B0B1B5"/>
				</linearGradient>
				<polygon fill="url(#SVGID_23_)" points="570.3,324.9 548.9,293.3 591.6,276.8 				"/>
				<linearGradient id="SVGID_24_" gradientUnits="userSpaceOnUse" x1="588.4178" y1="325.5919" x2="617.8575" y2="277.6253">
					<stop  offset="0" style="stop-color:#76757B"/>
					<stop  offset="1" style="stop-color:#97989C"/>
				</linearGradient>
				<polygon fill="url(#SVGID_24_)" points="591.6,334.6 570.3,324.9 591.6,276.8 626.5,307.1 				"/>
				<linearGradient id="SVGID_25_" gradientUnits="userSpaceOnUse" x1="276.3985" y1="345.0836" x2="290.481" y2="424.8842">
					<stop  offset="0" style="stop-color:#4E4D55"/>
					<stop  offset="1" style="stop-color:#89888D"/>
				</linearGradient>
				<polygon fill="url(#SVGID_25_)" points="321.9,384.3 295,432.7 240.2,358.3 				"/>
				<linearGradient id="SVGID_26_" gradientUnits="userSpaceOnUse" x1="359.8098" y1="488.3358" x2="343.4629" y2="375.0483">
					<stop  offset="0" style="stop-color:#5E5D63"/>
					<stop  offset="0.2767" style="stop-color:#55535A"/>
					<stop  offset="0.7393" style="stop-color:#3C3A42"/>
					<stop  offset="1" style="stop-color:#2B2831"/>
				</linearGradient>
				<polygon fill="url(#SVGID_26_)" points="295,432.7 321.9,384.3 409.5,439.3 				"/>
				<linearGradient id="SVGID_27_" gradientUnits="userSpaceOnUse" x1="234.9101" y1="374.9731" x2="257.3428" y2="435.5806">
					<stop  offset="0" style="stop-color:#4E4D55"/>
					<stop  offset="1" style="stop-color:#5B5A60"/>
				</linearGradient>
				<polygon fill="url(#SVGID_27_)" points="295,432.7 202.8,393 240.2,358.3 				"/>
				<polygon fill="#8F9094" points="502.6,269.3 441.8,202.7 454.2,170.7 502.6,227.7 				"/>
				<polyline fill="#5C5B61" points="545.4,358.4 507.1,336.9 570.3,324.9 591.6,334.6 545.4,359.6 				"/>
				<linearGradient id="SVGID_28_" gradientUnits="userSpaceOnUse" x1="227.5564" y1="318.7163" x2="197.2584" y2="385.0591">
					<stop  offset="0" style="stop-color:#4E4D55"/>
					<stop  offset="1" style="stop-color:#89888D"/>
				</linearGradient>
				<polygon fill="url(#SVGID_28_)" points="202.8,393 202.8,305.7 240.2,358.3 				"/>
				<polygon fill="#44434B" points="202.8,305.7 192.7,326.5 202.8,393 				"/>
				<polygon fill="#CED0CF" points="321.9,384.3 240.2,358.3 356.1,304.7 				"/>
				<linearGradient id="SVGID_29_" gradientUnits="userSpaceOnUse" x1="268.3065" y1="344.6143" x2="260.5293" y2="301.6187">
					<stop  offset="0" style="stop-color:#919296"/>
					<stop  offset="1" style="stop-color:#A3A4A8"/>
				</linearGradient>
				<polygon fill="url(#SVGID_29_)" points="240.2,358.3 202.8,305.7 312.4,265 				"/>
				<linearGradient id="SVGID_30_" gradientUnits="userSpaceOnUse" x1="386.5726" y1="330.9633" x2="375.7222" y2="270.9776">
					<stop  offset="0" style="stop-color:#5E5D63"/>
					<stop  offset="0.2767" style="stop-color:#55535A"/>
					<stop  offset="0.7393" style="stop-color:#3C3A42"/>
					<stop  offset="1" style="stop-color:#2B2831"/>
				</linearGradient>
				<polygon fill="url(#SVGID_30_)" points="410.2,319.2 356.1,304.7 364.4,344.2 				"/>
				<polygon fill="#414048" points="389.3,344.2 364.4,344.2 410.2,319.2 				"/>
				<polygon fill="#2A2730" points="370.3,365.4 364.4,344.2 389.3,344.2 				"/>
				<linearGradient id="SVGID_31_" gradientUnits="userSpaceOnUse" x1="378.2267" y1="269.7222" x2="412.1621" y2="316.1005">
					<stop  offset="0" style="stop-color:#98979D"/>
					<stop  offset="1" style="stop-color:#A8A9AD"/>
				</linearGradient>
				<polygon fill="url(#SVGID_31_)" points="410.2,319.2 356.1,304.7 413.5,252.7 				"/>
				<linearGradient id="SVGID_32_" gradientUnits="userSpaceOnUse" x1="330.5366" y1="353.5306" x2="279.6579" y2="314.2803">
					<stop  offset="0" style="stop-color:#A1A2A6"/>
					<stop  offset="1" style="stop-color:#C9CACC"/>
				</linearGradient>
				<polygon fill="url(#SVGID_32_)" points="240.2,358.3 312.4,265 356.1,304.7 				"/>
				<polygon fill="#1F1C27" points="447.6,487.2 501.1,500 502.7,485.1 				"/>
				<polygon fill="#1E1B24" points="577.4,438.2 569,460.1 501.1,500 				"/>
				<linearGradient id="SVGID_33_" gradientUnits="userSpaceOnUse" x1="503.9539" y1="484.708" x2="551.6847" y2="463.5493">
					<stop  offset="0" style="stop-color:#5E5D63"/>
					<stop  offset="0.2767" style="stop-color:#55535A"/>
					<stop  offset="0.7393" style="stop-color:#3C3A42"/>
					<stop  offset="1" style="stop-color:#2B2831"/>
				</linearGradient>
				<polygon fill="url(#SVGID_33_)" points="501.1,500 502.7,485.1 577.4,438.2 				"/>
				<polygon fill="#A3A4A8" points="502.6,269.3 469.3,261.6 444.4,313.5 				"/>
				<linearGradient id="SVGID_34_" gradientUnits="userSpaceOnUse" x1="315.3344" y1="267.3794" x2="235.112" y2="281.4018">
					<stop  offset="0" style="stop-color:#706F75"/>
					<stop  offset="1" style="stop-color:#858489"/>
				</linearGradient>
				<polygon fill="url(#SVGID_34_)" points="312.4,265 298.1,251.7 202.8,305.7 				"/>
				<linearGradient id="SVGID_35_" gradientUnits="userSpaceOnUse" x1="400.1663" y1="241.1946" x2="358.8806" y2="248.4111">
					<stop  offset="0" style="stop-color:#A5A6AA"/>
					<stop  offset="1" style="stop-color:#B0B1B5"/>
				</linearGradient>
				<polygon fill="url(#SVGID_35_)" points="312.4,265 298.1,251.7 406.6,231.6 				"/>
				<polygon fill="#807F84" points="469.3,261.6 432.5,308.7 444.4,313.5 				"/>
				<polygon fill="#EFF1EE" points="591.9,276.9 502.8,227.9 549,293.3 				"/>
				<polygon fill="#8B8A8F" points="321.9,384.3 364.4,344.2 356.1,304.7 				"/>
				<linearGradient id="SVGID_36_" gradientUnits="userSpaceOnUse" x1="357.0194" y1="381.3965" x2="323.4478" y2="339.9314">
					<stop  offset="0" style="stop-color:#5E5D63"/>
					<stop  offset="0.2767" style="stop-color:#55535A"/>
					<stop  offset="0.7393" style="stop-color:#3C3A42"/>
					<stop  offset="1" style="stop-color:#2B2831"/>
				</linearGradient>
				<polygon fill="url(#SVGID_36_)" points="375.2,385.7 347.8,385.1 321.9,384.3 364.4,344.2 370.3,365.4 				"/>
				<linearGradient id="SVGID_37_" gradientUnits="userSpaceOnUse" x1="435.7046" y1="363.6009" x2="461.6114" y2="319.9468">
					<stop  offset="0" style="stop-color:#87868B"/>
					<stop  offset="1" style="stop-color:#78797E"/>
				</linearGradient>
				<polygon fill="url(#SVGID_37_)" points="507.1,336.9 444.4,358.4 394.5,339.4 444.4,313.5 				"/>
				<linearGradient id="SVGID_38_" gradientUnits="userSpaceOnUse" x1="592.0934" y1="310.8056" x2="535.3017" y2="236.8485">
					<stop  offset="0" style="stop-color:#A1A2A6"/>
					<stop  offset="1" style="stop-color:#C9CACC"/>
				</linearGradient>
				<polygon fill="url(#SVGID_38_)" points="591.6,276.8 502.6,227.7 498.4,180.2 				"/>
				<linearGradient id="SVGID_39_" gradientUnits="userSpaceOnUse" x1="570.248" y1="234.7326" x2="563.2648" y2="114.2138">
					<stop  offset="0" style="stop-color:#A1A2A6"/>
					<stop  offset="1" style="stop-color:#C9CACC"/>
				</linearGradient>
				<polygon fill="url(#SVGID_39_)" points="559.4,243.4 548.9,193.1 581.4,244.6 591.6,276.8 				"/>
				<polygon fill="#BBBFC0" points="548.9,193.1 498.4,180.2 469.9,148.2 				"/>
				<polygon fill="#D2D4D3" points="567.3,222.2 576.6,196.7 533.6,184.4 548.9,193.1 				"/>
				<linearGradient id="SVGID_40_" gradientUnits="userSpaceOnUse" x1="536.6838" y1="177.3435" x2="525.3069" y2="227.618">
					<stop  offset="0" style="stop-color:#4E4D55"/>
					<stop  offset="1" style="stop-color:#89888D"/>
				</linearGradient>
				<polygon fill="url(#SVGID_40_)" points="559.4,243.4 498.4,180.2 548.9,193.1 				"/>
				<polygon fill="#898A8E" points="399.5,168.9 434,196.9 416.7,152.5 				"/>
				<linearGradient id="SVGID_41_" gradientUnits="userSpaceOnUse" x1="416.7345" y1="177.5755" x2="441.7876" y2="177.5755">
					<stop  offset="0" style="stop-color:#5E5D63"/>
					<stop  offset="0.4456" style="stop-color:#4A484F"/>
					<stop  offset="1" style="stop-color:#2B2831"/>
				</linearGradient>
				<polygon fill="url(#SVGID_41_)" points="441.8,202.7 434,196.9 416.7,152.5 				"/>
				<polygon fill="#F0F2EF" points="502.6,227.7 454.2,170.7 469.9,148.2 498.4,180.2 				"/>
				<polygon fill="#66656B" points="432.5,308.7 441.8,267.4 469.3,261.6 				"/>
				<linearGradient id="SVGID_42_" gradientUnits="userSpaceOnUse" x1="402.2276" y1="323.978" x2="438.8255" y2="286.3635">
					<stop  offset="0" style="stop-color:#5E5D63"/>
					<stop  offset="1" style="stop-color:#2B2831"/>
				</linearGradient>
				<polygon fill="url(#SVGID_42_)" points="441.8,267.4 432.5,308.7 389.3,344.2 411.4,317.3 				"/>
				<polygon fill="#626167" points="432.5,308.7 444.4,313.5 396.3,338.4 				"/>
				<polygon fill="#AEAFB1" points="576.6,196.7 574.7,234 567.3,222.2 				"/>
				<linearGradient id="SVGID_43_" gradientUnits="userSpaceOnUse" x1="441.7876" y1="235.0433" x2="456.9857" y2="235.0433">
					<stop  offset="0" style="stop-color:#3D3C44"/>
					<stop  offset="1" style="stop-color:#35343C"/>
				</linearGradient>
				<polygon fill="url(#SVGID_43_)" points="441.8,267.4 457,234.9 441.8,202.7 				"/>
				<linearGradient id="SVGID_44_" gradientUnits="userSpaceOnUse" x1="441.7876" y1="251.1715" x2="478.6" y2="251.1715">
					<stop  offset="0" style="stop-color:#5E5D63"/>
					<stop  offset="1" style="stop-color:#2B2831"/>
				</linearGradient>
				<polygon fill="url(#SVGID_44_)" points="441.8,267.4 457,234.9 469.3,261.6 				"/>
				<linearGradient id="SVGID_45_" gradientUnits="userSpaceOnUse" x1="502.58" y1="269.3182" x2="502.58" y2="269.3182">
					<stop  offset="0" style="stop-color:#5E5D63"/>
					<stop  offset="1" style="stop-color:#2B2831"/>
				</linearGradient>
				<path fill="url(#SVGID_45_)" d="M502.6,269.3"/>
				<linearGradient id="SVGID_46_" gradientUnits="userSpaceOnUse" x1="538.3661" y1="246.6075" x2="507.2037" y2="281.0202">
					<stop  offset="0" style="stop-color:#706F75"/>
					<stop  offset="1" style="stop-color:#858489"/>
				</linearGradient>
				<polygon fill="url(#SVGID_46_)" points="502.6,227.7 502.6,269.3 549,293.3 				"/>
				<linearGradient id="SVGID_47_" gradientUnits="userSpaceOnUse" x1="480.5496" y1="226.7549" x2="455.088" y2="254.8721">
					<stop  offset="0" style="stop-color:#4E4D55"/>
					<stop  offset="1" style="stop-color:#67666C"/>
				</linearGradient>
				<polygon fill="url(#SVGID_47_)" points="469.3,261.6 441.8,202.7 502.6,269.3 				"/>
				<polygon fill="#B1B2B4" points="416.7,152.5 446.2,159.3 425.1,169.2 				"/>
				<linearGradient id="SVGID_48_" gradientUnits="userSpaceOnUse" x1="449.3474" y1="204.3584" x2="447.5099" y2="159.5669">
					<stop  offset="0" style="stop-color:#706F75"/>
					<stop  offset="1" style="stop-color:#9D9EA3"/>
				</linearGradient>
				<polyline fill="url(#SVGID_48_)" points="441.8,202.7 425.1,169.2 469.9,148.2 454.2,170.7 				"/>
				<linearGradient id="SVGID_49_" gradientUnits="userSpaceOnUse" x1="353.4397" y1="263.5711" x2="400.1375" y2="240.4789">
					<stop  offset="0" style="stop-color:#706F75"/>
					<stop  offset="1" style="stop-color:#9D9EA3"/>
				</linearGradient>
				<polygon fill="url(#SVGID_49_)" points="406.6,231.6 413.5,252.7 312.4,265 				"/>
				<linearGradient id="SVGID_50_" gradientUnits="userSpaceOnUse" x1="297.0075" y1="269.0349" x2="346.9378" y2="244.3441">
					<stop  offset="0" style="stop-color:#706F75"/>
					<stop  offset="1" style="stop-color:#9D9EA3"/>
				</linearGradient>
				<polygon fill="url(#SVGID_50_)" points="298.1,251.7 387.6,223.7 406.6,231.6 				"/>
				<polygon fill="#616066" points="346.6,236.6 351.4,229.2 366.9,230.2 				"/>
				<polyline fill="#AAABAF" points="368.8,229.6 377.2,221.1 386.7,201.4 351.4,229.2 366.9,230.2 				"/>
				<linearGradient id="SVGID_51_" gradientUnits="userSpaceOnUse" x1="394.9952" y1="190.554" x2="378.5292" y2="232.2765">
					<stop  offset="0" style="stop-color:#5E5D63"/>
					<stop  offset="0.2767" style="stop-color:#55535A"/>
					<stop  offset="0.7393" style="stop-color:#3C3A42"/>
					<stop  offset="1" style="stop-color:#2B2831"/>
				</linearGradient>
				<polygon fill="url(#SVGID_51_)" points="387.6,223.7 399.5,168.9 377.2,221.1 				"/>
				<linearGradient id="SVGID_52_" gradientUnits="userSpaceOnUse" x1="430.5454" y1="201.1238" x2="405.5383" y2="264.4882">
					<stop  offset="0" style="stop-color:#5E5D63"/>
					<stop  offset="1" style="stop-color:#2B2831"/>
				</linearGradient>
				<polygon fill="url(#SVGID_52_)" points="413.5,252.8 406.7,231.6 441.8,202.7 				"/>
				<linearGradient id="SVGID_53_" gradientUnits="userSpaceOnUse" x1="396.4498" y1="238.2229" x2="399.2054" y2="196.1699">
					<stop  offset="0" style="stop-color:#4E4D55"/>
					<stop  offset="1" style="stop-color:#89888D"/>
				</linearGradient>
				<polygon fill="url(#SVGID_53_)" points="387.6,223.7 406.6,231.6 399.5,168.9 				"/>
				<linearGradient id="SVGID_54_" gradientUnits="userSpaceOnUse" x1="373.6471" y1="221.9681" x2="381.4285" y2="230.0036">
					<stop  offset="0" style="stop-color:#706F75"/>
					<stop  offset="1" style="stop-color:#9D9EA3"/>
				</linearGradient>
				<polygon fill="url(#SVGID_54_)" points="368.8,229.6 377.2,221.1 387.6,223.7 				"/>
				<linearGradient id="SVGID_55_" gradientUnits="userSpaceOnUse" x1="438.1882" y1="212.3083" x2="426.4615" y2="265.4829">
					<stop  offset="0" style="stop-color:#4E4D55"/>
					<stop  offset="1" style="stop-color:#67666C"/>
				</linearGradient>
				<polygon fill="url(#SVGID_55_)" points="441.8,267.4 413.5,252.7 441.8,202.7 				"/>
				<linearGradient id="SVGID_56_" gradientUnits="userSpaceOnUse" x1="421.1554" y1="183.489" x2="410.0858" y2="233.6833">
					<stop  offset="0" style="stop-color:#4E4D55"/>
					<stop  offset="1" style="stop-color:#67666C"/>
				</linearGradient>
				<polygon fill="url(#SVGID_56_)" points="406.6,231.6 399.5,168.9 441.8,202.7 408.4,230.1 				"/>
				<polygon fill="#AAABAF" points="548.9,405.2 515.2,372.4 560.3,351.5 				"/>
				<polygon fill="#8A898E" points="499.5,421.3 515.2,372.4 548.9,405.2 				"/>
			</g>
		</g>
		<line opacity="0.51" fill="none" stroke="#1D1A25" stroke-miterlimit="10" x1="282.6" y1="419.3" x2="605.3" y2="357.4"/>
		<path fill="none" stroke="#535258" stroke-miterlimit="10" d="M587.7,385"/>
		<polyline fill="none" stroke="#535258" stroke-miterlimit="10" points="533,357.9 430.3,375 378.7,359.9 		"/>
		<polyline fill="none" stroke="#535258" stroke-miterlimit="10" points="373.7,335.7 404.6,339.9 430.3,377.3 		"/>
		<line fill="none" stroke="#535258" stroke-miterlimit="10" x1="410.1" y1="335.7" x2="465.7" y2="369.1"/>
		<line fill="none" stroke="#535258" stroke-miterlimit="10" x1="325.3" y1="221.1" x2="446.7" y2="222"/>
		<line fill="none" stroke="#535258" stroke-miterlimit="10" x1="325.3" y1="221.1" x2="426.3" y2="208.9"/>
		<polyline fill="none" stroke="#535258" stroke-miterlimit="10" points="380.7,213.7 386.3,207.1 401.9,211.8 		"/>
		<line fill="none" stroke="#535258" stroke-miterlimit="10" x1="386.3" y1="207.1" x2="429.6" y2="184.9"/>
		<line fill="none" stroke="#535258" stroke-miterlimit="10" x1="417.7" y1="202.3" x2="409.5" y2="210.9"/>
		<path fill="none" stroke="#535258" stroke-miterlimit="10" d="M430.3,377.3"/>
		<polyline fill="none" stroke="#535258" stroke-miterlimit="10" points="378.7,359.9 380.8,384 321.4,369.8 376.2,335.7 431,317.2 
			376.2,291.7 238.5,326 319.3,369.8 282.6,417.7 236.9,326 193.4,354.1 282.6,417.7 		"/>
		<polyline fill="none" stroke="#535258" stroke-miterlimit="10" points="605.3,357.9 533,357.9 541.7,281.3 589,318.2 551.6,238.6 
			637.7,308 605.3,357.9 589,318.2 637.7,308 		"/>
		<line fill="none" stroke="#535258" stroke-miterlimit="10" x1="321.4" y1="369.8" x2="380.8" y2="384"/>
		<polyline fill="none" stroke="#535258" stroke-miterlimit="10" points="637.7,308 634,271.2 610,210.9 610.6,265.8 637.7,310.2 		
			"/>
		<line fill="none" stroke="#535258" stroke-miterlimit="10" x1="531.5" y1="357.7" x2="589" y2="318.2"/>
		<polyline fill="none" stroke="#535258" stroke-miterlimit="10" points="534.4,359.9 470.8,319.5 541.7,283.1 551.6,238.6 
			557.8,186.3 610.6,268 		"/>
		<polyline fill="none" stroke="#535258" stroke-miterlimit="10" points="541.7,283.1 491.8,197 507.5,269.9 473.6,315 410.1,335.7 
			378.7,359.9 		"/>
		<polyline fill="none" stroke="#535258" stroke-miterlimit="10" points="190.3,349.4 192.8,278.4 209,260.5 190.3,354.1 		"/>
		<polygon fill="none" stroke="#535258" stroke-miterlimit="10" points="211.2,260.5 325.3,221.1 336.1,237.4 		"/>
		<polyline fill="none" stroke="#535258" stroke-miterlimit="10" points="211.2,263.6 236.9,326 336.1,237.4 376.2,290.3 
			450.1,245.5 431,317.2 		"/>
		<polyline fill="none" stroke="#535258" stroke-miterlimit="10" points="507.5,269.9 478.3,268.3 458,310.2 507.5,269.9 		"/>
		<polyline fill="none" stroke="#535258" stroke-miterlimit="10" points="470.8,318.4 458,310.2 412.2,335.7 		"/>
		<polyline fill="none" stroke="#535258" stroke-miterlimit="10" points="500.3,235.8 478.3,268.3 491.8,197 450.1,245.5 
			475.8,268.3 431,317.2 		"/>
		<polyline fill="none" stroke="#535258" stroke-miterlimit="10" points="551.6,238.6 510.9,165 491.8,198.5 448.3,222 450.1,245.5 
			336.1,237.4 445.1,222 426.3,208.9 416.6,203.8 452,152.2 426.3,208.9 		"/>
		<polyline fill="none" stroke="#535258" stroke-miterlimit="10" points="322.9,370.6 374.4,292.5 377.7,336.4 378.7,362.1 		"/>
		<path fill="none" stroke="#535258" stroke-miterlimit="10" d="M283.4,417.7"/>
		<polyline fill="none" stroke="#535258" stroke-miterlimit="10" points="446.7,222 452,153.7 490.5,197.7 475.5,137.1 503.5,150.6 
			531.2,145.8 510.9,165 		"/>
		<polygon fill="none" stroke="#535258" stroke-miterlimit="10" points="557.8,186.3 533.7,147.2 609,209.5 		"/>
		<polyline fill="none" stroke="#535258" stroke-miterlimit="10" points="593.3,196.4 637.7,217.9 623.9,245.8 		"/>
		<line fill="none" stroke="#535258" stroke-miterlimit="10" x1="639" y1="220.3" x2="628.9" y2="258.4"/>
		<line fill="none" stroke="#535258" stroke-miterlimit="10" x1="503.5" y1="150.6" x2="480.3" y2="156.5"/>
		<polyline fill="none" stroke="#535258" stroke-miterlimit="10" points="482.5,188.5 475.5,137.1 452,152.2 		"/>
		<circle fill="#34313A" cx="209" cy="262.1" r="3.8"/>
		<circle fill="#1E1C27" cx="192.8" cy="282.4" r="2.5"/>
		<circle fill="#57565E" cx="190.3" cy="355.7" r="8.1"/>
		<circle fill="#CCCDCF" cx="376.2" cy="337.2" r="2.5"/>
		<circle fill="#201D28" cx="533" cy="359.5" r="3.8"/>
		<circle fill="#57565E" cx="605.3" cy="357.4" r="2"/>
		<circle fill="#1D1A25" cx="541.7" cy="284.6" r="3.4"/>
		<circle fill="#36333C" cx="470.8" cy="320" r="7.5"/>
		<circle fill="#F2F4F3" cx="478.3" cy="269.9" r="2.5"/>
		<circle fill="#FBFBF9" cx="380.8" cy="385.6" r="2"/>
		<circle fill="#FBFBF9" cx="430.3" cy="378.9" r="2.3"/>
		<circle fill="#201D28" cx="431" cy="318.8" r="2.2"/>
		<circle fill="#1F1C27" cx="637.7" cy="311.8" r="2.2"/>
		<circle fill="#1F1C27" cx="507.5" cy="269.9" r="2.1"/>
		<circle fill="#1F1C27" cx="610.6" cy="269.5" r="2.1"/>
		<circle fill="#3A3941" cx="634" cy="272.8" r="1.5"/>
		<circle fill="#403E49" cx="610" cy="212.5" r="3.8"/>
		<circle fill="#403E49" cx="639.6" cy="220.6" r="5.9"/>
		<circle fill="#1D1A25" cx="321.4" cy="371.4" r="3.8"/>
		<circle fill="#1D1A25" cx="282.6" cy="419.3" r="2.2"/>
		<circle fill="#1D1A25" cx="491.8" cy="200.1" r="3.8"/>
		<circle fill="#1D1A25" cx="450.1" cy="247" r="1.9"/>
		<circle fill="#221F2A" cx="446.7" cy="223.6" r="1.6"/>
		<circle fill="#221F2A" cx="416.6" cy="205.4" r="2.5"/>
		<circle fill="#221F2A" cx="386.3" cy="208.7" r="1.7"/>
		<circle fill="#6D6C74" cx="376.2" cy="293.2" r="3.3"/>
		<circle fill="#4B4A50" cx="336.1" cy="239" r="5.6"/>
		<circle fill="#4B4A50" cx="325.3" cy="222.6" r="2.3"/>
		<circle fill="#201D28" cx="410.9" cy="336.9" r="2.2"/>
		<circle fill="#201D28" cx="378.7" cy="361.5" r="2.2"/>
		<circle fill="#FFFFFF" cx="426.3" cy="210.4" r="2"/>
		<circle fill="#FBFBF9" cx="551.6" cy="240.2" r="2.8"/>
	</g>
</g>
</svg>
